<?xml version="1.0" encoding="UTF-8"?>
<svg id="Layer_2" data-name="Layer 2" xmlns="http://www.w3.org/2000/svg" viewBox="0 0 145 145">
  <defs>
    <style>
      .cls-1, .cls-2, .cls-3 {
        fill: none;
      }

      .cls-2 {
        stroke: #125;
        stroke-width: 6px;
      }

      .cls-2, .cls-3 {
        stroke-linecap: round;
      }

      .cls-3 {
        stroke: #2e6af5;
        stroke-miterlimit: 10;
        stroke-width: 4px;
      }
    </style>
  </defs>
  <g id="Layer_1-2" data-name="Layer 1">
    <g>
      <g>
        <g>
          <path class="cls-3" d="M105.9,39.87h4.52c2.07,0,3.74,1.67,3.74,3.74v9.37c0,2.07-1.67,3.74-3.74,3.74h-4.52"/>
          <path class="cls-3" d="M105.9,63.53h4.52c2.07,0,3.74,1.67,3.74,3.74v9.37c0,2.07-1.67,3.74-3.74,3.74h-4.52"/>
          <path class="cls-3" d="M105.9,87.19h4.52c2.07,0,3.74,1.67,3.74,3.74v9.37c0,2.07-1.67,3.74-3.74,3.74h-4.52"/>
        </g>
        <polyline class="cls-1" points="0 145 145 145 145 0 0 0 0 145"/>
        <rect class="cls-2" x="39.95" y="28.46" width="65.1" height="86.98" rx="12" ry="12"/>
      </g>
      <rect class="cls-3" x="58.66" y="58.11" width="27.68" height="27.68" transform="translate(72.11 -30.19) rotate(45)"/>
      <line class="cls-3" x1="72.5" y1="79.69" x2="72.5" y2="65.32"/>
    </g>
  </g>
</svg>