<svg width="194" height="186" viewBox="0 0 194 186" fill="none" xmlns="http://www.w3.org/2000/svg">
<g filter="url(#filter0_d_1998_11887)">
<rect x="6.29199" y="6.29199" width="180.762" height="173.126" rx="7.19054" fill="white"/>
<path d="M26.8779 33.6543H23.459V32.2744H26.8779C27.54 32.2744 28.0762 32.1689 28.4863 31.958C28.8965 31.7471 29.1953 31.4541 29.3828 31.0791C29.5762 30.7041 29.6729 30.2764 29.6729 29.7959C29.6729 29.3564 29.5762 28.9434 29.3828 28.5566C29.1953 28.1699 28.8965 27.8594 28.4863 27.625C28.0762 27.3848 27.54 27.2646 26.8779 27.2646H23.8545V38.6729H22.1582V25.876H26.8779C27.8447 25.876 28.6621 26.043 29.3301 26.377C29.998 26.7109 30.5049 27.1738 30.8506 27.7656C31.1963 28.3516 31.3691 29.0225 31.3691 29.7783C31.3691 30.5986 31.1963 31.2988 30.8506 31.8789C30.5049 32.459 29.998 32.9014 29.3301 33.2061C28.6621 33.5049 27.8447 33.6543 26.8779 33.6543ZM34.8542 25.1729V38.6729H33.2194V25.1729H34.8542ZM42.892 37.0469V32.1514C42.892 31.7764 42.8158 31.4512 42.6634 31.1758C42.517 30.8945 42.2943 30.6777 41.9955 30.5254C41.6966 30.373 41.3275 30.2969 40.888 30.2969C40.4779 30.2969 40.1175 30.3672 39.807 30.5078C39.5023 30.6484 39.2621 30.833 39.0863 31.0615C38.9164 31.29 38.8314 31.5361 38.8314 31.7998H37.2054C37.2054 31.46 37.2933 31.123 37.4691 30.7891C37.6449 30.4551 37.8968 30.1533 38.225 29.8838C38.5589 29.6084 38.9574 29.3916 39.4203 29.2334C39.889 29.0693 40.4105 28.9873 40.9847 28.9873C41.6761 28.9873 42.2855 29.1045 42.8129 29.3389C43.3461 29.5732 43.7621 29.9277 44.0609 30.4023C44.3656 30.8711 44.5179 31.46 44.5179 32.1689V36.5986C44.5179 36.915 44.5443 37.252 44.597 37.6094C44.6556 37.9668 44.7406 38.2744 44.8519 38.5322V38.6729H43.1556C43.0736 38.4854 43.0091 38.2363 42.9623 37.9258C42.9154 37.6094 42.892 37.3164 42.892 37.0469ZM43.1732 32.9072L43.1908 34.0498H41.5472C41.0843 34.0498 40.6713 34.0879 40.308 34.1641C39.9447 34.2344 39.64 34.3428 39.3939 34.4893C39.1478 34.6357 38.9603 34.8203 38.8314 35.043C38.7025 35.2598 38.638 35.5146 38.638 35.8076C38.638 36.1064 38.7054 36.3789 38.8402 36.625C38.975 36.8711 39.1771 37.0674 39.4466 37.2139C39.722 37.3545 40.0589 37.4248 40.4574 37.4248C40.9554 37.4248 41.3949 37.3193 41.7757 37.1084C42.1566 36.8975 42.4584 36.6396 42.681 36.335C42.9095 36.0303 43.0326 35.7344 43.0502 35.4473L43.7445 36.2295C43.7035 36.4756 43.5921 36.748 43.4105 37.0469C43.2289 37.3457 42.9857 37.6328 42.681 37.9082C42.3822 38.1777 42.0248 38.4033 41.6088 38.585C41.1986 38.7607 40.7357 38.8486 40.2201 38.8486C39.5755 38.8486 39.0101 38.7227 38.5238 38.4707C38.0433 38.2188 37.6683 37.8818 37.3988 37.46C37.1351 37.0322 37.0033 36.5547 37.0033 36.0273C37.0033 35.5176 37.1029 35.0693 37.3021 34.6826C37.5013 34.29 37.7884 33.9648 38.1634 33.707C38.5384 33.4434 38.9896 33.2441 39.517 33.1094C40.0443 32.9746 40.6332 32.9072 41.2836 32.9072H43.1732ZM50.877 29.1631V30.4111H45.7354V29.1631H50.877ZM47.4756 26.8516H49.1016V36.3174C49.1016 36.6396 49.1514 36.8828 49.251 37.0469C49.3506 37.2109 49.4795 37.3193 49.6377 37.3721C49.7959 37.4248 49.9659 37.4512 50.1475 37.4512C50.2823 37.4512 50.4229 37.4395 50.5694 37.416C50.7217 37.3867 50.836 37.3633 50.9121 37.3457L50.9209 38.6729C50.792 38.7139 50.6221 38.752 50.4112 38.7871C50.2061 38.8281 49.9571 38.8486 49.6641 38.8486C49.2657 38.8486 48.8995 38.7695 48.5655 38.6113C48.2315 38.4531 47.9649 38.1895 47.7657 37.8203C47.5723 37.4453 47.4756 36.9414 47.4756 36.3086V26.8516ZM55.03 38.6729H53.404V28.1611C53.404 27.4756 53.5271 26.8984 53.7732 26.4297C54.0251 25.9551 54.3855 25.5977 54.8542 25.3574C55.323 25.1113 55.8796 24.9883 56.5241 24.9883C56.7116 24.9883 56.8991 25 57.0866 25.0234C57.28 25.0469 57.4675 25.082 57.6491 25.1289L57.5613 26.4561C57.4382 26.4268 57.2976 26.4062 57.1394 26.3945C56.987 26.3828 56.8347 26.377 56.6823 26.377C56.3366 26.377 56.0378 26.4473 55.7859 26.5879C55.5398 26.7227 55.3523 26.9219 55.2234 27.1855C55.0945 27.4492 55.03 27.7744 55.03 28.1611V38.6729ZM57.0515 29.1631V30.4111H51.9011V29.1631H57.0515ZM58.2514 34.0234V33.8213C58.2514 33.1357 58.351 32.5 58.5502 31.9141C58.7494 31.3223 59.0365 30.8096 59.4115 30.376C59.7865 29.9365 60.2406 29.5967 60.7738 29.3564C61.307 29.1104 61.9047 28.9873 62.5668 28.9873C63.2348 28.9873 63.8354 29.1104 64.3686 29.3564C64.9076 29.5967 65.3646 29.9365 65.7396 30.376C66.1205 30.8096 66.4105 31.3223 66.6098 31.9141C66.809 32.5 66.9086 33.1357 66.9086 33.8213V34.0234C66.9086 34.709 66.809 35.3447 66.6098 35.9307C66.4105 36.5166 66.1205 37.0293 65.7396 37.4688C65.3646 37.9023 64.9105 38.2422 64.3773 38.4883C63.85 38.7285 63.2523 38.8486 62.5844 38.8486C61.9164 38.8486 61.3158 38.7285 60.7826 38.4883C60.2494 38.2422 59.7924 37.9023 59.4115 37.4688C59.0365 37.0293 58.7494 36.5166 58.5502 35.9307C58.351 35.3447 58.2514 34.709 58.2514 34.0234ZM59.8773 33.8213V34.0234C59.8773 34.498 59.933 34.9463 60.0443 35.3682C60.1557 35.7842 60.3227 36.1533 60.5453 36.4756C60.7738 36.7979 61.058 37.0527 61.3979 37.2402C61.7377 37.4219 62.1332 37.5127 62.5844 37.5127C63.0297 37.5127 63.4193 37.4219 63.7533 37.2402C64.0932 37.0527 64.3744 36.7979 64.5971 36.4756C64.8197 36.1533 64.9867 35.7842 65.098 35.3682C65.2152 34.9463 65.2738 34.498 65.2738 34.0234V33.8213C65.2738 33.3525 65.2152 32.9102 65.098 32.4941C64.9867 32.0723 64.8168 31.7002 64.5883 31.3779C64.3656 31.0498 64.0844 30.792 63.7445 30.6045C63.4105 30.417 63.018 30.3232 62.5668 30.3232C62.1215 30.3232 61.7289 30.417 61.3891 30.6045C61.0551 30.792 60.7738 31.0498 60.5453 31.3779C60.3227 31.7002 60.1557 32.0723 60.0443 32.4941C59.933 32.9102 59.8773 33.3525 59.8773 33.8213ZM70.3936 30.6572V38.6729H68.7677V29.1631H70.3497L70.3936 30.6572ZM73.3643 29.1104L73.3555 30.6221C73.2208 30.5928 73.0919 30.5752 72.9688 30.5693C72.8516 30.5576 72.7169 30.5518 72.5645 30.5518C72.1895 30.5518 71.8585 30.6104 71.5714 30.7275C71.2843 30.8447 71.0411 31.0088 70.8419 31.2197C70.6427 31.4307 70.4845 31.6826 70.3673 31.9756C70.2559 32.2627 70.1827 32.5791 70.1475 32.9248L69.6905 33.1885C69.6905 32.6143 69.7462 32.0752 69.8575 31.5713C69.9747 31.0674 70.1534 30.6221 70.3936 30.2354C70.6339 29.8428 70.9386 29.5381 71.3077 29.3213C71.6827 29.0986 72.128 28.9873 72.6436 28.9873C72.7608 28.9873 72.8956 29.002 73.0479 29.0312C73.2003 29.0547 73.3057 29.0811 73.3643 29.1104ZM76.3045 31.0527V38.6729H74.6697V29.1631H76.2166L76.3045 31.0527ZM75.9705 33.5576L75.2146 33.5312C75.2205 32.8809 75.3054 32.2803 75.4695 31.7295C75.6336 31.1729 75.8767 30.6895 76.199 30.2793C76.5213 29.8691 76.9226 29.5527 77.4031 29.3301C77.8836 29.1016 78.4402 28.9873 79.073 28.9873C79.5183 28.9873 79.9285 29.0518 80.3035 29.1807C80.6785 29.3037 81.0037 29.5 81.2791 29.7695C81.5545 30.0391 81.7683 30.3848 81.9207 30.8066C82.073 31.2285 82.1492 31.7383 82.1492 32.3359V38.6729H80.5232V32.415C80.5232 31.917 80.4382 31.5186 80.2683 31.2197C80.1043 30.9209 79.8699 30.7041 79.5652 30.5693C79.2605 30.4287 78.9031 30.3584 78.4929 30.3584C78.0125 30.3584 77.6111 30.4434 77.2888 30.6133C76.9666 30.7832 76.7088 31.0176 76.5154 31.3164C76.322 31.6152 76.1814 31.958 76.0935 32.3447C76.0115 32.7256 75.9705 33.1299 75.9705 33.5576ZM82.1316 32.6611L81.0418 32.9951C81.0476 32.4736 81.1326 31.9727 81.2966 31.4922C81.4666 31.0117 81.7097 30.584 82.0261 30.209C82.3484 29.834 82.7439 29.5381 83.2127 29.3213C83.6814 29.0986 84.2175 28.9873 84.8211 28.9873C85.3308 28.9873 85.782 29.0547 86.1746 29.1895C86.573 29.3242 86.907 29.5322 87.1765 29.8135C87.4519 30.0889 87.6599 30.4434 87.8005 30.877C87.9412 31.3105 88.0115 31.8262 88.0115 32.4238V38.6729H86.3767V32.4062C86.3767 31.873 86.2918 31.46 86.1218 31.167C85.9578 30.8682 85.7234 30.6602 85.4187 30.543C85.1199 30.4199 84.7625 30.3584 84.3464 30.3584C83.989 30.3584 83.6726 30.4199 83.3972 30.543C83.1218 30.666 82.8904 30.8359 82.7029 31.0527C82.5154 31.2637 82.3718 31.5068 82.2722 31.7822C82.1785 32.0576 82.1316 32.3506 82.1316 32.6611ZM102.145 25.876H103.832V34.5332C103.832 35.4941 103.618 36.2939 103.191 36.9326C102.763 37.5713 102.194 38.0518 101.485 38.374C100.782 38.6904 100.018 38.8486 99.1915 38.8486C98.3243 38.8486 97.5392 38.6904 96.8361 38.374C96.1388 38.0518 95.5851 37.5713 95.1749 36.9326C94.7706 36.2939 94.5685 35.4941 94.5685 34.5332V25.876H96.2472V34.5332C96.2472 35.2012 96.3702 35.752 96.6163 36.1855C96.8624 36.6191 97.2052 36.9414 97.6446 37.1523C98.09 37.3633 98.6056 37.4688 99.1915 37.4688C99.7833 37.4688 100.299 37.3633 100.738 37.1523C101.184 36.9414 101.529 36.6191 101.776 36.1855C102.022 35.752 102.145 35.2012 102.145 34.5332V25.876ZM111.606 36.1504C111.606 35.916 111.554 35.6992 111.448 35.5C111.348 35.2949 111.14 35.1104 110.824 34.9463C110.513 34.7764 110.045 34.6299 109.418 34.5068C108.89 34.3955 108.413 34.2637 107.985 34.1113C107.563 33.959 107.203 33.7744 106.904 33.5576C106.611 33.3408 106.386 33.0859 106.227 32.793C106.069 32.5 105.99 32.1572 105.99 31.7646C105.99 31.3896 106.072 31.0352 106.236 30.7012C106.406 30.3672 106.643 30.0713 106.948 29.8135C107.259 29.5557 107.631 29.3535 108.064 29.207C108.498 29.0605 108.981 28.9873 109.514 28.9873C110.276 28.9873 110.927 29.1221 111.466 29.3916C112.005 29.6611 112.418 30.0215 112.705 30.4727C112.992 30.918 113.136 31.4131 113.136 31.958H111.51C111.51 31.6943 111.43 31.4395 111.272 31.1934C111.12 30.9414 110.894 30.7334 110.596 30.5693C110.303 30.4053 109.942 30.3232 109.514 30.3232C109.063 30.3232 108.697 30.3936 108.416 30.5342C108.14 30.6689 107.938 30.8418 107.809 31.0527C107.686 31.2637 107.625 31.4863 107.625 31.7207C107.625 31.8965 107.654 32.0547 107.713 32.1953C107.777 32.3301 107.888 32.4561 108.047 32.5732C108.205 32.6846 108.428 32.79 108.715 32.8896C109.002 32.9893 109.368 33.0889 109.813 33.1885C110.593 33.3643 111.234 33.5752 111.738 33.8213C112.242 34.0674 112.617 34.3691 112.863 34.7266C113.109 35.084 113.232 35.5176 113.232 36.0273C113.232 36.4434 113.144 36.8242 112.969 37.1699C112.799 37.5156 112.55 37.8145 112.221 38.0664C111.899 38.3125 111.512 38.5059 111.061 38.6465C110.616 38.7812 110.115 38.8486 109.558 38.8486C108.721 38.8486 108.012 38.6992 107.431 38.4004C106.851 38.1016 106.412 37.7148 106.113 37.2402C105.814 36.7656 105.665 36.2646 105.665 35.7373H107.3C107.323 36.1826 107.452 36.5371 107.686 36.8008C107.921 37.0586 108.208 37.2432 108.548 37.3545C108.887 37.46 109.224 37.5127 109.558 37.5127C110.004 37.5127 110.376 37.4541 110.675 37.3369C110.979 37.2197 111.211 37.0586 111.369 36.8535C111.527 36.6484 111.606 36.4141 111.606 36.1504ZM119.134 38.8486C118.472 38.8486 117.872 38.7373 117.332 38.5146C116.799 38.2861 116.339 37.9668 115.953 37.5566C115.572 37.1465 115.279 36.6602 115.074 36.0977C114.869 35.5352 114.766 34.9199 114.766 34.252V33.8828C114.766 33.1094 114.88 32.4209 115.109 31.8174C115.337 31.208 115.648 30.6924 116.041 30.2705C116.433 29.8486 116.878 29.5293 117.376 29.3125C117.874 29.0957 118.39 28.9873 118.923 28.9873C119.603 28.9873 120.189 29.1045 120.681 29.3389C121.179 29.5732 121.586 29.9014 121.903 30.3232C122.219 30.7393 122.454 31.2314 122.606 31.7998C122.758 32.3623 122.834 32.9775 122.834 33.6455V34.375H115.733V33.0479H121.208V32.9248C121.185 32.5029 121.097 32.0928 120.945 31.6943C120.798 31.2959 120.564 30.9678 120.242 30.71C119.919 30.4521 119.48 30.3232 118.923 30.3232C118.554 30.3232 118.214 30.4023 117.904 30.5605C117.593 30.7129 117.327 30.9414 117.104 31.2461C116.881 31.5508 116.708 31.9229 116.585 32.3623C116.462 32.8018 116.401 33.3086 116.401 33.8828V34.252C116.401 34.7031 116.462 35.1279 116.585 35.5264C116.714 35.9189 116.899 36.2646 117.139 36.5635C117.385 36.8623 117.681 37.0967 118.027 37.2666C118.378 37.4365 118.777 37.5215 119.222 37.5215C119.796 37.5215 120.283 37.4043 120.681 37.1699C121.08 36.9355 121.428 36.6221 121.727 36.2295L122.711 37.0117C122.506 37.3223 122.246 37.6182 121.929 37.8994C121.613 38.1807 121.223 38.4092 120.76 38.585C120.303 38.7607 119.761 38.8486 119.134 38.8486ZM130.547 36.8271V25.1729H132.182V38.6729H130.688L130.547 36.8271ZM124.149 34.0234V33.8389C124.149 33.1123 124.236 32.4531 124.412 31.8613C124.594 31.2637 124.849 30.751 125.177 30.3232C125.511 29.8955 125.906 29.5674 126.363 29.3389C126.826 29.1045 127.342 28.9873 127.91 28.9873C128.508 28.9873 129.029 29.0928 129.475 29.3037C129.926 29.5088 130.307 29.8105 130.617 30.209C130.934 30.6016 131.183 31.0762 131.364 31.6328C131.546 32.1895 131.672 32.8193 131.742 33.5225V34.3311C131.678 35.0283 131.552 35.6553 131.364 36.2119C131.183 36.7686 130.934 37.2432 130.617 37.6357C130.307 38.0283 129.926 38.3301 129.475 38.541C129.024 38.7461 128.496 38.8486 127.893 38.8486C127.336 38.8486 126.826 38.7285 126.363 38.4883C125.906 38.248 125.511 37.9111 125.177 37.4775C124.849 37.0439 124.594 36.5342 124.412 35.9482C124.236 35.3564 124.149 34.7148 124.149 34.0234ZM125.783 33.8389V34.0234C125.783 34.498 125.83 34.9434 125.924 35.3594C126.024 35.7754 126.176 36.1416 126.381 36.458C126.586 36.7744 126.847 37.0234 127.163 37.2051C127.48 37.3809 127.858 37.4688 128.297 37.4688C128.836 37.4688 129.278 37.3545 129.624 37.126C129.976 36.8975 130.257 36.5957 130.468 36.2207C130.679 35.8457 130.843 35.4385 130.96 34.999V32.8809C130.89 32.5586 130.787 32.248 130.652 31.9492C130.524 31.6445 130.354 31.375 130.143 31.1406C129.938 30.9004 129.683 30.71 129.378 30.5693C129.079 30.4287 128.725 30.3584 128.315 30.3584C127.869 30.3584 127.486 30.4521 127.163 30.6396C126.847 30.8213 126.586 31.0732 126.381 31.3955C126.176 31.7119 126.024 32.0811 125.924 32.5029C125.83 32.9189 125.783 33.3643 125.783 33.8389ZM23.1162 56.6729H22.0322V49.665C22.0322 49.208 22.1143 48.8232 22.2783 48.5107C22.4463 48.1943 22.6865 47.9561 22.999 47.7959C23.3115 47.6318 23.6826 47.5498 24.1123 47.5498C24.2373 47.5498 24.3623 47.5576 24.4873 47.5732C24.6162 47.5889 24.7412 47.6123 24.8623 47.6436L24.8037 48.5283C24.7217 48.5088 24.6279 48.4951 24.5225 48.4873C24.4209 48.4795 24.3193 48.4756 24.2178 48.4756C23.9873 48.4756 23.7881 48.5225 23.6201 48.6162C23.4561 48.7061 23.3311 48.8389 23.2451 49.0146C23.1592 49.1904 23.1162 49.4072 23.1162 49.665V56.6729ZM24.4639 50.333V51.165H21.0303V50.333H24.4639ZM25.2638 53.5732V53.4385C25.2638 52.9814 25.3302 52.5576 25.463 52.167C25.5958 51.7725 25.7872 51.4307 26.0372 51.1416C26.2872 50.8486 26.59 50.6221 26.9454 50.4619C27.3009 50.2979 27.6993 50.2158 28.1407 50.2158C28.5861 50.2158 28.9864 50.2979 29.3419 50.4619C29.7013 50.6221 30.006 50.8486 30.256 51.1416C30.5099 51.4307 30.7032 51.7725 30.8361 52.167C30.9689 52.5576 31.0353 52.9814 31.0353 53.4385V53.5732C31.0353 54.0303 30.9689 54.4541 30.8361 54.8447C30.7032 55.2354 30.5099 55.5771 30.256 55.8701C30.006 56.1592 29.7032 56.3857 29.3478 56.5498C28.9962 56.71 28.5978 56.79 28.1525 56.79C27.7071 56.79 27.3068 56.71 26.9513 56.5498C26.5958 56.3857 26.2911 56.1592 26.0372 55.8701C25.7872 55.5771 25.5958 55.2354 25.463 54.8447C25.3302 54.4541 25.2638 54.0303 25.2638 53.5732ZM26.3478 53.4385V53.5732C26.3478 53.8896 26.3849 54.1885 26.4591 54.4697C26.5333 54.7471 26.6446 54.9932 26.7931 55.208C26.9454 55.4229 27.1349 55.5928 27.3614 55.7178C27.588 55.8389 27.8517 55.8994 28.1525 55.8994C28.4493 55.8994 28.7091 55.8389 28.9318 55.7178C29.1583 55.5928 29.3458 55.4229 29.4943 55.208C29.6427 54.9932 29.754 54.7471 29.8282 54.4697C29.9064 54.1885 29.9454 53.8896 29.9454 53.5732V53.4385C29.9454 53.126 29.9064 52.8311 29.8282 52.5537C29.754 52.2725 29.6407 52.0244 29.4884 51.8096C29.34 51.5908 29.1525 51.4189 28.9259 51.2939C28.7032 51.1689 28.4415 51.1064 28.1407 51.1064C27.8439 51.1064 27.5821 51.1689 27.3556 51.2939C27.1329 51.4189 26.9454 51.5908 26.7931 51.8096C26.6446 52.0244 26.5333 52.2725 26.4591 52.5537C26.3849 52.8311 26.3478 53.126 26.3478 53.4385ZM33.3586 51.3291V56.6729H32.2746V50.333H33.3293L33.3586 51.3291ZM35.3391 50.2979L35.3332 51.3057C35.2434 51.2861 35.1575 51.2744 35.0754 51.2705C34.9973 51.2627 34.9075 51.2588 34.8059 51.2588C34.5559 51.2588 34.3352 51.2979 34.1438 51.376C33.9524 51.4541 33.7903 51.5635 33.6575 51.7041C33.5246 51.8447 33.4192 52.0127 33.3411 52.208C33.2668 52.3994 33.218 52.6104 33.1946 52.8408L32.8899 53.0166C32.8899 52.6338 32.927 52.2744 33.0012 51.9385C33.0793 51.6025 33.1985 51.3057 33.3586 51.0479C33.5188 50.7861 33.7219 50.583 33.968 50.4385C34.218 50.29 34.5149 50.2158 34.8586 50.2158C34.9368 50.2158 35.0266 50.2256 35.1282 50.2451C35.2297 50.2607 35.3 50.2783 35.3391 50.2979ZM43.7886 54.5166C43.7886 54.3174 43.7573 54.1416 43.6948 53.9893C43.6362 53.833 43.5307 53.6924 43.3784 53.5674C43.23 53.4424 43.0229 53.3232 42.7573 53.21C42.4956 53.0967 42.1636 52.9814 41.7612 52.8643C41.3393 52.7393 40.9585 52.6006 40.6186 52.4482C40.2788 52.292 39.9878 52.1143 39.7456 51.915C39.5034 51.7158 39.3179 51.4873 39.1889 51.2295C39.06 50.9717 38.9956 50.6768 38.9956 50.3447C38.9956 50.0127 39.0639 49.7061 39.2007 49.4248C39.3374 49.1436 39.5327 48.8994 39.7866 48.6924C40.0444 48.4814 40.3511 48.3174 40.7065 48.2002C41.062 48.083 41.4585 48.0244 41.896 48.0244C42.5366 48.0244 43.0796 48.1475 43.5249 48.3936C43.9741 48.6357 44.3159 48.9541 44.5503 49.3486C44.7846 49.7393 44.9018 50.1572 44.9018 50.6025H43.7768C43.7768 50.2822 43.7085 49.999 43.5718 49.7529C43.435 49.5029 43.228 49.3076 42.9507 49.167C42.6733 49.0225 42.3218 48.9502 41.896 48.9502C41.4936 48.9502 41.1616 49.0107 40.8999 49.1318C40.6382 49.2529 40.4429 49.417 40.3139 49.624C40.1889 49.8311 40.1264 50.0674 40.1264 50.333C40.1264 50.5127 40.1636 50.6768 40.2378 50.8252C40.3159 50.9697 40.435 51.1045 40.5952 51.2295C40.7593 51.3545 40.9663 51.4697 41.2163 51.5752C41.4702 51.6807 41.7729 51.7822 42.1245 51.8799C42.6089 52.0166 43.0268 52.1689 43.3784 52.3369C43.73 52.5049 44.019 52.6943 44.2456 52.9053C44.4761 53.1123 44.646 53.3486 44.7554 53.6143C44.8686 53.876 44.9253 54.1729 44.9253 54.5049C44.9253 54.8525 44.855 55.167 44.7143 55.4482C44.5737 55.7295 44.3725 55.9697 44.1108 56.1689C43.8491 56.3682 43.5346 56.5225 43.1675 56.6318C42.8042 56.7373 42.3979 56.79 41.9487 56.79C41.5542 56.79 41.1655 56.7354 40.7827 56.626C40.4038 56.5166 40.0581 56.3525 39.7456 56.1338C39.437 55.915 39.1889 55.6455 39.0014 55.3252C38.8179 55.001 38.7261 54.626 38.7261 54.2002H39.8511C39.8511 54.4932 39.9077 54.7451 40.021 54.9561C40.1343 55.1631 40.2886 55.335 40.4839 55.4717C40.6831 55.6084 40.9077 55.71 41.1577 55.7764C41.4116 55.8389 41.6753 55.8701 41.9487 55.8701C42.3432 55.8701 42.6772 55.8154 42.9507 55.7061C43.2241 55.5967 43.4311 55.4404 43.5718 55.2373C43.7163 55.0342 43.7886 54.7939 43.7886 54.5166ZM47.1666 47.6729V56.6729H46.0826V47.6729H47.1666ZM46.9088 53.2627L46.4576 53.2451C46.4615 52.8115 46.526 52.4111 46.651 52.0439C46.776 51.6729 46.9518 51.3506 47.1783 51.0771C47.4049 50.8037 47.6744 50.5928 47.9869 50.4443C48.3033 50.292 48.6529 50.2158 49.0357 50.2158C49.3482 50.2158 49.6295 50.2588 49.8795 50.3447C50.1295 50.4268 50.3424 50.5596 50.5182 50.7432C50.6979 50.9268 50.8346 51.165 50.9283 51.458C51.0221 51.7471 51.0689 52.1006 51.0689 52.5186V56.6729H49.9791V52.5068C49.9791 52.1748 49.9303 51.9092 49.8326 51.71C49.735 51.5068 49.5924 51.3604 49.4049 51.2705C49.2174 51.1768 48.9869 51.1299 48.7135 51.1299C48.4439 51.1299 48.1979 51.1865 47.9752 51.2998C47.7564 51.4131 47.567 51.5693 47.4068 51.7686C47.2506 51.9678 47.1275 52.1963 47.0377 52.4541C46.9518 52.708 46.9088 52.9775 46.9088 53.2627ZM52.2849 53.5732V53.4385C52.2849 52.9814 52.3513 52.5576 52.4841 52.167C52.6169 51.7725 52.8083 51.4307 53.0583 51.1416C53.3083 50.8486 53.6111 50.6221 53.9665 50.4619C54.322 50.2979 54.7204 50.2158 55.1618 50.2158C55.6071 50.2158 56.0075 50.2979 56.363 50.4619C56.7224 50.6221 57.0271 50.8486 57.2771 51.1416C57.531 51.4307 57.7243 51.7725 57.8571 52.167C57.99 52.5576 58.0564 52.9814 58.0564 53.4385V53.5732C58.0564 54.0303 57.99 54.4541 57.8571 54.8447C57.7243 55.2354 57.531 55.5771 57.2771 55.8701C57.0271 56.1592 56.7243 56.3857 56.3689 56.5498C56.0173 56.71 55.6189 56.79 55.1736 56.79C54.7282 56.79 54.3279 56.71 53.9724 56.5498C53.6169 56.3857 53.3122 56.1592 53.0583 55.8701C52.8083 55.5771 52.6169 55.2354 52.4841 54.8447C52.3513 54.4541 52.2849 54.0303 52.2849 53.5732ZM53.3689 53.4385V53.5732C53.3689 53.8896 53.406 54.1885 53.4802 54.4697C53.5544 54.7471 53.6657 54.9932 53.8142 55.208C53.9665 55.4229 54.156 55.5928 54.3825 55.7178C54.6091 55.8389 54.8728 55.8994 55.1736 55.8994C55.4704 55.8994 55.7302 55.8389 55.9529 55.7178C56.1794 55.5928 56.3669 55.4229 56.5154 55.208C56.6638 54.9932 56.7751 54.7471 56.8493 54.4697C56.9275 54.1885 56.9665 53.8896 56.9665 53.5732V53.4385C56.9665 53.126 56.9275 52.8311 56.8493 52.5537C56.7751 52.2725 56.6618 52.0244 56.5095 51.8096C56.3611 51.5908 56.1736 51.4189 55.947 51.2939C55.7243 51.1689 55.4626 51.1064 55.1618 51.1064C54.865 51.1064 54.6032 51.1689 54.3767 51.2939C54.154 51.4189 53.9665 51.5908 53.8142 51.8096C53.6657 52.0244 53.5544 52.2725 53.4802 52.5537C53.406 52.8311 53.3689 53.126 53.3689 53.4385ZM60.3797 51.3291V56.6729H59.2957V50.333H60.3504L60.3797 51.3291ZM62.3602 50.2979L62.3543 51.3057C62.2645 51.2861 62.1786 51.2744 62.0965 51.2705C62.0184 51.2627 61.9286 51.2588 61.827 51.2588C61.577 51.2588 61.3563 51.2979 61.1649 51.376C60.9735 51.4541 60.8114 51.5635 60.6786 51.7041C60.5457 51.8447 60.4403 52.0127 60.3621 52.208C60.2879 52.3994 60.2391 52.6104 60.2157 52.8408L59.911 53.0166C59.911 52.6338 59.9481 52.2744 60.0223 51.9385C60.1004 51.6025 60.2196 51.3057 60.3797 51.0479C60.5399 50.7861 60.743 50.583 60.9891 50.4385C61.2391 50.29 61.536 50.2158 61.8797 50.2158C61.9579 50.2158 62.0477 50.2256 62.1493 50.2451C62.2508 50.2607 62.3211 50.2783 62.3602 50.2979ZM66.1894 50.333V51.165H62.7617V50.333H66.1894ZM63.9218 48.792H65.0058V55.1025C65.0058 55.3174 65.039 55.4795 65.1054 55.5889C65.1718 55.6982 65.2578 55.7705 65.3632 55.8057C65.4687 55.8408 65.582 55.8584 65.7031 55.8584C65.7929 55.8584 65.8867 55.8506 65.9843 55.835C66.0859 55.8154 66.1621 55.7998 66.2129 55.7881L66.2187 56.6729C66.1328 56.7002 66.0195 56.7256 65.8789 56.749C65.7421 56.7764 65.5761 56.79 65.3808 56.79C65.1152 56.79 64.8711 56.7373 64.6484 56.6318C64.4257 56.5264 64.248 56.3506 64.1152 56.1045C63.9863 55.8545 63.9218 55.5186 63.9218 55.0967V48.792ZM71.4924 48.1416V56.6729H70.3615V48.1416H71.4924ZM75.0666 51.9795V52.9053H71.2463V51.9795H75.0666ZM75.6467 48.1416V49.0674H71.2463V48.1416H75.6467ZM76.306 53.5732V53.4385C76.306 52.9814 76.3724 52.5576 76.5052 52.167C76.638 51.7725 76.8294 51.4307 77.0794 51.1416C77.3294 50.8486 77.6321 50.6221 77.9876 50.4619C78.3431 50.2979 78.7415 50.2158 79.1829 50.2158C79.6282 50.2158 80.0286 50.2979 80.3841 50.4619C80.7435 50.6221 81.0482 50.8486 81.2982 51.1416C81.5521 51.4307 81.7454 51.7725 81.8782 52.167C82.0111 52.5576 82.0775 52.9814 82.0775 53.4385V53.5732C82.0775 54.0303 82.0111 54.4541 81.8782 54.8447C81.7454 55.2354 81.5521 55.5771 81.2982 55.8701C81.0482 56.1592 80.7454 56.3857 80.39 56.5498C80.0384 56.71 79.64 56.79 79.1946 56.79C78.7493 56.79 78.3489 56.71 77.9935 56.5498C77.638 56.3857 77.3333 56.1592 77.0794 55.8701C76.8294 55.5771 76.638 55.2354 76.5052 54.8447C76.3724 54.4541 76.306 54.0303 76.306 53.5732ZM77.39 53.4385V53.5732C77.39 53.8896 77.4271 54.1885 77.5013 54.4697C77.5755 54.7471 77.6868 54.9932 77.8353 55.208C77.9876 55.4229 78.1771 55.5928 78.4036 55.7178C78.6302 55.8389 78.8939 55.8994 79.1946 55.8994C79.4915 55.8994 79.7513 55.8389 79.9739 55.7178C80.2005 55.5928 80.388 55.4229 80.5364 55.208C80.6849 54.9932 80.7962 54.7471 80.8704 54.4697C80.9486 54.1885 80.9876 53.8896 80.9876 53.5732V53.4385C80.9876 53.126 80.9486 52.8311 80.8704 52.5537C80.7962 52.2725 80.6829 52.0244 80.5306 51.8096C80.3821 51.5908 80.1946 51.4189 79.9681 51.2939C79.7454 51.1689 79.4837 51.1064 79.1829 51.1064C78.8861 51.1064 78.6243 51.1689 78.3978 51.2939C78.1751 51.4189 77.9876 51.5908 77.8353 51.8096C77.6868 52.0244 77.5755 52.2725 77.5013 52.5537C77.4271 52.8311 77.39 53.126 77.39 53.4385ZM84.4008 51.3291V56.6729H83.3168V50.333H84.3715L84.4008 51.3291ZM86.3813 50.2979L86.3754 51.3057C86.2856 51.2861 86.1996 51.2744 86.1176 51.2705C86.0395 51.2627 85.9496 51.2588 85.8481 51.2588C85.5981 51.2588 85.3774 51.2979 85.186 51.376C84.9946 51.4541 84.8325 51.5635 84.6996 51.7041C84.5668 51.8447 84.4614 52.0127 84.3832 52.208C84.309 52.3994 84.2602 52.6104 84.2368 52.8408L83.9321 53.0166C83.9321 52.6338 83.9692 52.2744 84.0434 51.9385C84.1215 51.6025 84.2407 51.3057 84.4008 51.0479C84.561 50.7861 84.7641 50.583 85.0102 50.4385C85.2602 50.29 85.5571 50.2158 85.9008 50.2158C85.9789 50.2158 86.0688 50.2256 86.1704 50.2451C86.2719 50.2607 86.3422 50.2783 86.3813 50.2979ZM88.3414 51.5928V56.6729H87.2515V50.333H88.2828L88.3414 51.5928ZM88.1187 53.2627L87.6148 53.2451C87.6187 52.8115 87.6754 52.4111 87.7847 52.0439C87.8941 51.6729 88.0562 51.3506 88.2711 51.0771C88.4859 50.8037 88.7535 50.5928 89.0738 50.4443C89.3941 50.292 89.7652 50.2158 90.1871 50.2158C90.4839 50.2158 90.7574 50.2588 91.0074 50.3447C91.2574 50.4268 91.4742 50.5576 91.6578 50.7373C91.8414 50.917 91.9839 51.1475 92.0855 51.4287C92.1871 51.71 92.2379 52.0498 92.2379 52.4482V56.6729H91.1539V52.501C91.1539 52.1689 91.0972 51.9033 90.9839 51.7041C90.8746 51.5049 90.7183 51.3604 90.5152 51.2705C90.3121 51.1768 90.0738 51.1299 89.8004 51.1299C89.48 51.1299 89.2125 51.1865 88.9976 51.2998C88.7828 51.4131 88.6109 51.5693 88.482 51.7686C88.3531 51.9678 88.2593 52.1963 88.2007 52.4541C88.1461 52.708 88.1187 52.9775 88.1187 53.2627ZM92.2261 52.665L91.4996 52.8877C91.5035 52.54 91.5601 52.2061 91.6695 51.8857C91.7828 51.5654 91.9449 51.2803 92.1558 51.0303C92.3707 50.7803 92.6343 50.583 92.9468 50.4385C93.2593 50.29 93.6168 50.2158 94.0191 50.2158C94.3589 50.2158 94.6597 50.2607 94.9214 50.3506C95.1871 50.4404 95.4097 50.5791 95.5894 50.7666C95.773 50.9502 95.9117 51.1865 96.0054 51.4756C96.0992 51.7646 96.1461 52.1084 96.1461 52.5068V56.6729H95.0562V52.4951C95.0562 52.1396 94.9996 51.8643 94.8863 51.6689C94.7769 51.4697 94.6207 51.3311 94.4175 51.2529C94.2183 51.1709 93.98 51.1299 93.7027 51.1299C93.4644 51.1299 93.2535 51.1709 93.0699 51.2529C92.8863 51.335 92.732 51.4482 92.607 51.5928C92.482 51.7334 92.3863 51.8955 92.3199 52.0791C92.2574 52.2627 92.2261 52.458 92.2261 52.665ZM103.441 55.3779L105.955 48.1416H107.179L104.021 56.6729H103.148L103.441 55.3779ZM101.092 48.1416L103.582 55.3779L103.892 56.6729H103.019L99.867 48.1416H101.092ZM110.417 56.79C109.976 56.79 109.575 56.7158 109.216 56.5674C108.86 56.415 108.554 56.2021 108.296 55.9287C108.042 55.6553 107.847 55.3311 107.71 54.9561C107.573 54.5811 107.505 54.1709 107.505 53.7256V53.4795C107.505 52.9639 107.581 52.5049 107.733 52.1025C107.886 51.6963 108.093 51.3525 108.354 51.0713C108.616 50.79 108.913 50.5771 109.245 50.4326C109.577 50.2881 109.921 50.2158 110.276 50.2158C110.729 50.2158 111.12 50.2939 111.448 50.4502C111.78 50.6064 112.052 50.8252 112.263 51.1064C112.474 51.3838 112.63 51.7119 112.731 52.0908C112.833 52.4658 112.884 52.876 112.884 53.3213V53.8076H108.149V52.9229H111.8V52.8408C111.784 52.5596 111.726 52.2861 111.624 52.0205C111.526 51.7549 111.37 51.5361 111.155 51.3643C110.94 51.1924 110.647 51.1064 110.276 51.1064C110.03 51.1064 109.804 51.1592 109.597 51.2646C109.39 51.3662 109.212 51.5186 109.063 51.7217C108.915 51.9248 108.8 52.1729 108.718 52.4658C108.636 52.7588 108.595 53.0967 108.595 53.4795V53.7256C108.595 54.0264 108.636 54.3096 108.718 54.5752C108.804 54.8369 108.927 55.0674 109.087 55.2666C109.251 55.4658 109.448 55.6221 109.679 55.7354C109.913 55.8486 110.179 55.9053 110.476 55.9053C110.858 55.9053 111.183 55.8271 111.448 55.6709C111.714 55.5146 111.946 55.3057 112.145 55.0439L112.802 55.5654C112.665 55.7725 112.491 55.9697 112.28 56.1572C112.069 56.3447 111.809 56.4971 111.501 56.6143C111.196 56.7314 110.835 56.79 110.417 56.79ZM115.113 51.3291V56.6729H114.029V50.333H115.084L115.113 51.3291ZM117.094 50.2979L117.088 51.3057C116.998 51.2861 116.912 51.2744 116.83 51.2705C116.752 51.2627 116.662 51.2588 116.561 51.2588C116.311 51.2588 116.09 51.2979 115.898 51.376C115.707 51.4541 115.545 51.5635 115.412 51.7041C115.279 51.8447 115.174 52.0127 115.096 52.208C115.022 52.3994 114.973 52.6104 114.949 52.8408L114.645 53.0166C114.645 52.6338 114.682 52.2744 114.756 51.9385C114.834 51.6025 114.953 51.3057 115.113 51.0479C115.273 50.7861 115.477 50.583 115.723 50.4385C115.973 50.29 116.27 50.2158 116.613 50.2158C116.691 50.2158 116.781 50.2256 116.883 50.2451C116.984 50.2607 117.055 50.2783 117.094 50.2979ZM120.923 50.333V51.165H117.495V50.333H120.923ZM118.655 48.792H119.739V55.1025C119.739 55.3174 119.773 55.4795 119.839 55.5889C119.905 55.6982 119.991 55.7705 120.097 55.8057C120.202 55.8408 120.316 55.8584 120.437 55.8584C120.527 55.8584 120.62 55.8506 120.718 55.835C120.819 55.8154 120.896 55.7998 120.946 55.7881L120.952 56.6729C120.866 56.7002 120.753 56.7256 120.612 56.749C120.476 56.7764 120.31 56.79 120.114 56.79C119.849 56.79 119.605 56.7373 119.382 56.6318C119.159 56.5264 118.982 56.3506 118.849 56.1045C118.72 55.8545 118.655 55.5186 118.655 55.0967V48.792ZM123.252 50.333V56.6729H122.162V50.333H123.252ZM122.08 48.6514C122.08 48.4756 122.133 48.3271 122.239 48.2061C122.348 48.085 122.508 48.0244 122.719 48.0244C122.926 48.0244 123.084 48.085 123.194 48.2061C123.307 48.3271 123.364 48.4756 123.364 48.6514C123.364 48.8193 123.307 48.9639 123.194 49.085C123.084 49.2021 122.926 49.2607 122.719 49.2607C122.508 49.2607 122.348 49.2021 122.239 49.085C122.133 48.9639 122.08 48.8193 122.08 48.6514ZM127.41 55.8994C127.667 55.8994 127.906 55.8467 128.124 55.7412C128.343 55.6357 128.523 55.4912 128.663 55.3076C128.804 55.1201 128.884 54.9072 128.904 54.6689H129.935C129.915 55.0439 129.788 55.3936 129.554 55.7178C129.324 56.0381 129.021 56.2979 128.646 56.4971C128.271 56.6924 127.859 56.79 127.41 56.79C126.933 56.79 126.517 56.7061 126.162 56.5381C125.81 56.3701 125.517 56.1396 125.283 55.8467C125.052 55.5537 124.878 55.2178 124.761 54.8389C124.648 54.4561 124.591 54.0518 124.591 53.626V53.3799C124.591 52.9541 124.648 52.5518 124.761 52.1729C124.878 51.79 125.052 51.4521 125.283 51.1592C125.517 50.8662 125.81 50.6357 126.162 50.4678C126.517 50.2998 126.933 50.2158 127.41 50.2158C127.906 50.2158 128.339 50.3174 128.71 50.5205C129.081 50.7197 129.372 50.9932 129.583 51.3408C129.798 51.6846 129.915 52.0752 129.935 52.5127H128.904C128.884 52.251 128.81 52.0146 128.681 51.8037C128.556 51.5928 128.384 51.4248 128.165 51.2998C127.951 51.1709 127.699 51.1064 127.41 51.1064C127.078 51.1064 126.798 51.1729 126.572 51.3057C126.349 51.4346 126.171 51.6104 126.038 51.833C125.91 52.0518 125.816 52.2959 125.757 52.5654C125.703 52.8311 125.675 53.1025 125.675 53.3799V53.626C125.675 53.9033 125.703 54.1768 125.757 54.4463C125.812 54.7158 125.904 54.96 126.033 55.1787C126.165 55.3975 126.343 55.5732 126.566 55.7061C126.792 55.835 127.074 55.8994 127.41 55.8994ZM134.772 55.5889V52.3252C134.772 52.0752 134.721 51.8584 134.62 51.6748C134.522 51.4873 134.374 51.3428 134.174 51.2412C133.975 51.1396 133.729 51.0889 133.436 51.0889C133.163 51.0889 132.922 51.1357 132.715 51.2295C132.512 51.3232 132.352 51.4463 132.235 51.5986C132.122 51.751 132.065 51.915 132.065 52.0908H130.981C130.981 51.8643 131.04 51.6396 131.157 51.417C131.274 51.1943 131.442 50.9932 131.661 50.8135C131.883 50.6299 132.149 50.4854 132.458 50.3799C132.77 50.2705 133.118 50.2158 133.501 50.2158C133.961 50.2158 134.368 50.2939 134.719 50.4502C135.075 50.6064 135.352 50.8428 135.551 51.1592C135.754 51.4717 135.856 51.8643 135.856 52.3369V55.29C135.856 55.501 135.874 55.7256 135.909 55.9639C135.948 56.2021 136.004 56.4072 136.079 56.5791V56.6729H134.948C134.893 56.5479 134.85 56.3818 134.819 56.1748C134.788 55.9639 134.772 55.7686 134.772 55.5889ZM134.959 52.8291L134.971 53.5908H133.876C133.567 53.5908 133.292 53.6162 133.049 53.667C132.807 53.7139 132.604 53.7861 132.44 53.8838C132.276 53.9814 132.151 54.1045 132.065 54.2529C131.979 54.3975 131.936 54.5674 131.936 54.7627C131.936 54.9619 131.981 55.1436 132.071 55.3076C132.161 55.4717 132.295 55.6025 132.475 55.7002C132.659 55.7939 132.883 55.8408 133.149 55.8408C133.481 55.8408 133.774 55.7705 134.028 55.6299C134.282 55.4893 134.483 55.3174 134.631 55.1143C134.784 54.9111 134.866 54.7139 134.877 54.5225L135.34 55.0439C135.313 55.208 135.239 55.3896 135.118 55.5889C134.997 55.7881 134.834 55.9795 134.631 56.1631C134.432 56.3428 134.194 56.4932 133.917 56.6143C133.643 56.7314 133.334 56.79 132.991 56.79C132.561 56.79 132.184 56.7061 131.86 56.5381C131.54 56.3701 131.29 56.1455 131.11 55.8643C130.934 55.5791 130.846 55.2607 130.846 54.9092C130.846 54.5693 130.913 54.2705 131.045 54.0127C131.178 53.751 131.37 53.5342 131.62 53.3623C131.87 53.1865 132.17 53.0537 132.522 52.9639C132.874 52.874 133.266 52.8291 133.7 52.8291H134.959ZM138.619 47.6729V56.6729H137.529V47.6729H138.619ZM146.014 55.3779L148.527 48.1416H149.752L146.594 56.6729H145.721L146.014 55.3779ZM143.664 48.1416L146.154 55.3779L146.465 56.6729H145.592L142.439 48.1416H143.664ZM151.794 50.333V56.6729H150.704V50.333H151.794ZM150.622 48.6514C150.622 48.4756 150.675 48.3271 150.78 48.2061C150.89 48.085 151.05 48.0244 151.261 48.0244C151.468 48.0244 151.626 48.085 151.735 48.2061C151.849 48.3271 151.905 48.4756 151.905 48.6514C151.905 48.8193 151.849 48.9639 151.735 49.085C151.626 49.2021 151.468 49.2607 151.261 49.2607C151.05 49.2607 150.89 49.2021 150.78 49.085C150.675 48.9639 150.622 48.8193 150.622 48.6514ZM157.41 55.4424V47.6729H158.5V56.6729H157.504L157.41 55.4424ZM153.145 53.5732V53.4502C153.145 52.9658 153.203 52.5264 153.32 52.1318C153.442 51.7334 153.611 51.3916 153.83 51.1064C154.053 50.8213 154.317 50.6025 154.621 50.4502C154.93 50.2939 155.274 50.2158 155.652 50.2158C156.051 50.2158 156.399 50.2861 156.695 50.4268C156.996 50.5635 157.25 50.7646 157.457 51.0303C157.668 51.292 157.834 51.6084 157.955 51.9795C158.076 52.3506 158.16 52.7705 158.207 53.2393V53.7783C158.164 54.2432 158.08 54.6611 157.955 55.0322C157.834 55.4033 157.668 55.7197 157.457 55.9814C157.25 56.2432 156.996 56.4443 156.695 56.585C156.395 56.7217 156.043 56.79 155.641 56.79C155.27 56.79 154.93 56.71 154.621 56.5498C154.317 56.3896 154.053 56.165 153.83 55.876C153.611 55.5869 153.442 55.2471 153.32 54.8564C153.203 54.4619 153.145 54.0342 153.145 53.5732ZM154.234 53.4502V53.5732C154.234 53.8896 154.266 54.1865 154.328 54.4639C154.395 54.7412 154.496 54.9854 154.633 55.1963C154.77 55.4072 154.943 55.5732 155.154 55.6943C155.365 55.8115 155.617 55.8701 155.91 55.8701C156.27 55.8701 156.565 55.7939 156.795 55.6416C157.029 55.4893 157.217 55.2881 157.358 55.0381C157.498 54.7881 157.608 54.5166 157.686 54.2236V52.8115C157.639 52.5967 157.57 52.3896 157.481 52.1904C157.395 51.9873 157.281 51.8076 157.141 51.6514C157.004 51.4912 156.834 51.3643 156.631 51.2705C156.432 51.1768 156.195 51.1299 155.922 51.1299C155.625 51.1299 155.369 51.1924 155.154 51.3174C154.943 51.4385 154.77 51.6064 154.633 51.8213C154.496 52.0322 154.395 52.2783 154.328 52.5596C154.266 52.8369 154.234 53.1338 154.234 53.4502ZM162.698 56.79C162.257 56.79 161.857 56.7158 161.497 56.5674C161.142 56.415 160.835 56.2021 160.577 55.9287C160.323 55.6553 160.128 55.3311 159.991 54.9561C159.855 54.5811 159.786 54.1709 159.786 53.7256V53.4795C159.786 52.9639 159.863 52.5049 160.015 52.1025C160.167 51.6963 160.374 51.3525 160.636 51.0713C160.898 50.79 161.195 50.5771 161.527 50.4326C161.859 50.2881 162.202 50.2158 162.558 50.2158C163.011 50.2158 163.402 50.2939 163.73 50.4502C164.062 50.6064 164.333 50.8252 164.544 51.1064C164.755 51.3838 164.911 51.7119 165.013 52.0908C165.114 52.4658 165.165 52.876 165.165 53.3213V53.8076H160.431V52.9229H164.081V52.8408C164.066 52.5596 164.007 52.2861 163.906 52.0205C163.808 51.7549 163.652 51.5361 163.437 51.3643C163.222 51.1924 162.929 51.1064 162.558 51.1064C162.312 51.1064 162.085 51.1592 161.878 51.2646C161.671 51.3662 161.493 51.5186 161.345 51.7217C161.197 51.9248 161.081 52.1729 160.999 52.4658C160.917 52.7588 160.876 53.0967 160.876 53.4795V53.7256C160.876 54.0264 160.917 54.3096 160.999 54.5752C161.085 54.8369 161.208 55.0674 161.368 55.2666C161.532 55.4658 161.73 55.6221 161.96 55.7354C162.195 55.8486 162.46 55.9053 162.757 55.9053C163.14 55.9053 163.464 55.8271 163.73 55.6709C163.995 55.5146 164.228 55.3057 164.427 55.0439L165.083 55.5654C164.947 55.7725 164.773 55.9697 164.562 56.1572C164.351 56.3447 164.091 56.4971 163.782 56.6143C163.478 56.7314 163.116 56.79 162.698 56.79ZM166.024 53.5732V53.4385C166.024 52.9814 166.09 52.5576 166.223 52.167C166.356 51.7725 166.547 51.4307 166.797 51.1416C167.047 50.8486 167.35 50.6221 167.705 50.4619C168.061 50.2979 168.459 50.2158 168.901 50.2158C169.346 50.2158 169.746 50.2979 170.102 50.4619C170.461 50.6221 170.766 50.8486 171.016 51.1416C171.27 51.4307 171.463 51.7725 171.596 52.167C171.729 52.5576 171.795 52.9814 171.795 53.4385V53.5732C171.795 54.0303 171.729 54.4541 171.596 54.8447C171.463 55.2354 171.27 55.5771 171.016 55.8701C170.766 56.1592 170.463 56.3857 170.108 56.5498C169.756 56.71 169.358 56.79 168.912 56.79C168.467 56.79 168.067 56.71 167.711 56.5498C167.356 56.3857 167.051 56.1592 166.797 55.8701C166.547 55.5771 166.356 55.2354 166.223 54.8447C166.09 54.4541 166.024 54.0303 166.024 53.5732ZM167.108 53.4385V53.5732C167.108 53.8896 167.145 54.1885 167.219 54.4697C167.293 54.7471 167.405 54.9932 167.553 55.208C167.705 55.4229 167.895 55.5928 168.121 55.7178C168.348 55.8389 168.612 55.8994 168.912 55.8994C169.209 55.8994 169.469 55.8389 169.692 55.7178C169.918 55.5928 170.106 55.4229 170.254 55.208C170.403 54.9932 170.514 54.7471 170.588 54.4697C170.666 54.1885 170.705 53.8896 170.705 53.5732V53.4385C170.705 53.126 170.666 52.8311 170.588 52.5537C170.514 52.2725 170.401 52.0244 170.248 51.8096C170.1 51.5908 169.912 51.4189 169.686 51.2939C169.463 51.1689 169.202 51.1064 168.901 51.1064C168.604 51.1064 168.342 51.1689 168.116 51.2939C167.893 51.4189 167.705 51.5908 167.553 51.8096C167.405 52.0244 167.293 52.2725 167.219 52.5537C167.145 52.8311 167.108 53.126 167.108 53.4385Z" fill="black"/>
<rect x="20.6729" y="94.9287" width="21.5716" height="70.1077" fill="#A36CEB"/>
<path d="M31.2586 83.4163V84.392H25.9228L25.8821 83.6551L29.0734 78.6547H30.0542L28.9921 80.474L27.1576 83.4163H31.2586ZM30.3337 78.6547V86.0537H29.109V78.6547H30.3337ZM36.8867 78.6547V79.3255L33.9291 86.0537H32.6384L35.5908 79.6304H31.7592V78.6547H36.8867Z" fill="black"/>
<rect x="64.1494" y="118.298" width="21.5716" height="46.7385" fill="#7B76FF"/>
<path d="M70.6195 106.068H71.3512C71.6358 106.068 71.8713 106.019 72.0576 105.921C72.2473 105.822 72.3879 105.687 72.4794 105.514C72.5708 105.341 72.6166 105.143 72.6166 104.919C72.6166 104.686 72.5742 104.486 72.4895 104.32C72.4082 104.15 72.2829 104.02 72.1135 103.928C71.9475 103.837 71.7357 103.791 71.4783 103.791C71.2615 103.791 71.065 103.835 70.8888 103.923C70.716 104.008 70.5788 104.13 70.4772 104.289C70.3755 104.445 70.3247 104.631 70.3247 104.848H69.0949C69.0949 104.455 69.1983 104.106 69.4049 103.801C69.6116 103.497 69.8928 103.258 70.2485 103.085C70.6076 102.909 71.0108 102.821 71.4579 102.821C71.9356 102.821 72.3523 102.9 72.708 103.06C73.0672 103.215 73.3467 103.449 73.5465 103.761C73.7464 104.072 73.8464 104.459 73.8464 104.919C73.8464 105.129 73.7972 105.343 73.699 105.56C73.6007 105.777 73.4551 105.975 73.262 106.154C73.0689 106.33 72.8283 106.474 72.5404 106.586C72.2524 106.695 71.9187 106.749 71.5393 106.749H70.6195V106.068ZM70.6195 107.023V106.352H71.5393C71.9729 106.352 72.3422 106.403 72.6471 106.505C72.9554 106.607 73.2061 106.747 73.3992 106.927C73.5923 107.103 73.7329 107.304 73.8209 107.531C73.9124 107.758 73.9582 107.999 73.9582 108.253C73.9582 108.599 73.8955 108.907 73.7701 109.178C73.6482 109.446 73.4737 109.673 73.2467 109.859C73.0197 110.045 72.7538 110.186 72.4489 110.281C72.1474 110.375 71.8187 110.423 71.463 110.423C71.1446 110.423 70.8397 110.379 70.5483 110.291C70.257 110.203 69.9961 110.072 69.7657 109.9C69.5354 109.723 69.3524 109.505 69.2169 109.244C69.0848 108.98 69.0187 108.675 69.0187 108.329H70.2434C70.2434 108.549 70.2942 108.744 70.3959 108.914C70.5009 109.08 70.6466 109.21 70.8329 109.305C71.0226 109.4 71.2394 109.447 71.4834 109.447C71.7408 109.447 71.9627 109.401 72.1491 109.31C72.3354 109.219 72.4777 109.083 72.5759 108.903C72.6776 108.724 72.7284 108.507 72.7284 108.253C72.7284 107.965 72.6725 107.731 72.5607 107.552C72.4489 107.372 72.2897 107.24 72.083 107.155C71.8763 107.067 71.6324 107.023 71.3512 107.023H70.6195ZM78.6919 102.877H78.8443V103.878H78.7579C78.3209 103.878 77.9432 103.945 77.6247 104.081C77.3096 104.216 77.0505 104.403 76.8472 104.64C76.6439 104.877 76.4915 105.155 76.3899 105.473C76.2916 105.788 76.2425 106.124 76.2425 106.48V107.643C76.2425 107.938 76.2747 108.199 76.339 108.426C76.4034 108.649 76.4932 108.837 76.6084 108.99C76.7269 109.139 76.8625 109.252 77.0149 109.33C77.1674 109.408 77.3317 109.447 77.5078 109.447C77.6908 109.447 77.8568 109.41 78.0058 109.335C78.1549 109.258 78.2819 109.151 78.387 109.015C78.492 108.88 78.5716 108.719 78.6258 108.533C78.68 108.346 78.7071 108.143 78.7071 107.923C78.7071 107.713 78.68 107.516 78.6258 107.333C78.575 107.147 78.4988 106.984 78.3971 106.845C78.2955 106.703 78.1685 106.593 78.016 106.515C77.8669 106.434 77.6942 106.393 77.4977 106.393C77.2537 106.393 77.0318 106.451 76.832 106.566C76.6355 106.681 76.4762 106.832 76.3543 107.018C76.2357 107.201 76.1713 107.396 76.1612 107.603L75.6937 107.45C75.7208 107.135 75.7902 106.852 75.902 106.601C76.0172 106.351 76.168 106.137 76.3543 105.961C76.5406 105.785 76.7557 105.651 76.9997 105.56C77.247 105.465 77.518 105.417 77.8127 105.417C78.1718 105.417 78.4835 105.485 78.7478 105.621C79.012 105.756 79.2305 105.941 79.4033 106.175C79.5795 106.405 79.7099 106.669 79.7946 106.967C79.8827 107.262 79.9267 107.57 79.9267 107.892C79.9267 108.248 79.8725 108.58 79.7641 108.888C79.6557 109.193 79.4965 109.461 79.2864 109.691C79.0798 109.922 78.8274 110.101 78.5293 110.23C78.2345 110.359 77.8991 110.423 77.5231 110.423C77.1267 110.423 76.7727 110.347 76.461 110.194C76.1527 110.042 75.8902 109.832 75.6733 109.564C75.4599 109.296 75.2973 108.988 75.1855 108.639C75.0737 108.29 75.0178 107.921 75.0178 107.531V107.023C75.0178 106.461 75.0889 105.931 75.2312 105.433C75.3735 104.931 75.592 104.489 75.8868 104.106C76.1849 103.724 76.566 103.424 77.0302 103.207C77.4943 102.987 78.0482 102.877 78.6919 102.877Z" fill="black"/>
<rect x="107.625" y="142.566" width="21.5716" height="22.4704" fill="#54A2E4"/>
<path d="M118.066 130.917V131.893H113.106V131.054L115.515 128.427C115.779 128.129 115.987 127.871 116.14 127.654C116.292 127.438 116.399 127.243 116.46 127.07C116.524 126.894 116.556 126.723 116.556 126.557C116.556 126.323 116.512 126.118 116.424 125.942C116.34 125.762 116.214 125.622 116.048 125.52C115.882 125.415 115.681 125.363 115.444 125.363C115.169 125.363 114.939 125.422 114.752 125.54C114.566 125.659 114.426 125.823 114.331 126.033C114.236 126.24 114.188 126.477 114.188 126.745H112.964C112.964 126.315 113.062 125.922 113.258 125.566C113.455 125.207 113.739 124.922 114.112 124.712C114.485 124.499 114.934 124.392 115.459 124.392C115.953 124.392 116.373 124.475 116.719 124.641C117.065 124.807 117.327 125.042 117.507 125.347C117.69 125.652 117.781 126.013 117.781 126.43C117.781 126.66 117.744 126.889 117.669 127.116C117.595 127.343 117.488 127.57 117.349 127.797C117.214 128.02 117.053 128.246 116.866 128.473C116.68 128.696 116.475 128.923 116.252 129.154L114.651 130.917H118.066ZM120.203 128.452L119.227 128.213L119.628 124.494H123.618V125.53H120.645L120.442 127.344C120.557 127.277 120.716 127.211 120.919 127.146C121.122 127.078 121.355 127.045 121.615 127.045C121.964 127.045 122.276 127.102 122.55 127.217C122.828 127.329 123.064 127.494 123.257 127.71C123.45 127.924 123.597 128.185 123.699 128.493C123.801 128.798 123.851 129.142 123.851 129.524C123.851 129.867 123.801 130.187 123.699 130.485C123.601 130.783 123.452 131.046 123.252 131.273C123.052 131.5 122.799 131.677 122.495 131.806C122.193 131.932 121.836 131.994 121.422 131.994C121.114 131.994 120.818 131.95 120.533 131.862C120.252 131.771 119.999 131.637 119.776 131.461C119.552 131.281 119.373 131.061 119.237 130.8C119.102 130.536 119.024 130.233 119.003 129.89H120.203C120.233 130.131 120.299 130.336 120.401 130.505C120.506 130.671 120.645 130.798 120.818 130.886C120.99 130.974 121.19 131.019 121.417 131.019C121.624 131.019 121.802 130.983 121.951 130.912C122.1 130.837 122.224 130.732 122.322 130.597C122.423 130.458 122.498 130.295 122.545 130.109C122.596 129.923 122.622 129.716 122.622 129.489C122.622 129.272 122.593 129.074 122.535 128.894C122.481 128.715 122.398 128.559 122.286 128.427C122.178 128.295 122.041 128.193 121.875 128.122C121.709 128.047 121.517 128.01 121.3 128.01C121.009 128.01 120.785 128.052 120.63 128.137C120.477 128.222 120.335 128.327 120.203 128.452Z" fill="black"/>
<rect x="151.102" y="154.251" width="21.5716" height="10.7858" fill="#24C6A0"/>
<path d="M164.134 141.84V142.816H158.798L158.758 142.079L161.949 137.079H162.93L161.868 138.898L160.033 141.84H164.134ZM163.209 137.079V144.478H161.985V137.079H163.209Z" fill="black"/>
</g>
<defs>
<filter id="filter0_d_1998_11887" x="0.000272214" y="0.000272214" width="193.345" height="185.709" filterUnits="userSpaceOnUse" color-interpolation-filters="sRGB">
<feFlood flood-opacity="0" result="BackgroundImageFix"/>
<feColorMatrix in="SourceAlpha" type="matrix" values="0 0 0 0 0 0 0 0 0 0 0 0 0 0 0 0 0 0 127 0" result="hardAlpha"/>
<feMorphology radius="0.898817" operator="dilate" in="SourceAlpha" result="effect1_dropShadow_1998_11887"/>
<feOffset/>
<feGaussianBlur stdDeviation="2.69645"/>
<feColorMatrix type="matrix" values="0 0 0 0 0 0 0 0 0 0 0 0 0 0 0 0 0 0 0.25 0"/>
<feBlend mode="normal" in2="BackgroundImageFix" result="effect1_dropShadow_1998_11887"/>
<feBlend mode="normal" in="SourceGraphic" in2="effect1_dropShadow_1998_11887" result="shape"/>
</filter>
</defs>
</svg>
