<svg width="872" height="327" viewBox="0 0 872 327" fill="none" xmlns="http://www.w3.org/2000/svg">
<path d="M934.148 331.911V129.428C934.148 129.428 903.88 35.6982 843.815 48.4784C803.651 57.0243 805.173 148.187 766.013 159.598C705.39 177.264 675.181 56.6824 611.454 62.6279C575.989 65.9368 561.204 85.713 525.82 89.6005C437.101 99.3477 431.117 24.8191 332.952 41.1796C234.786 57.54 221.929 228.426 128.9 221.225C74.1779 216.99 41.225 137.204 -17.7465 151.816V331.911H934.148Z" fill="url(#paint0_linear_2_7984)" fill-opacity="0.8" stroke="#788B14" stroke-width="2.08749"/>
<circle cx="8.87183" cy="8.87183" r="8.87183" transform="matrix(-1 0 0 1 807.859 105.892)" fill="#788B14"/>
<circle cx="9.3937" cy="9.3937" r="9.3937" transform="matrix(-1 0 0 1 43.8359 152.86)" fill="#788B14"/>
<circle cx="8.87183" cy="8.87183" r="8.87183" transform="matrix(-1 0 0 1 192.047 191.479)" fill="#788B14"/>
<circle cx="8.87183" cy="8.87183" r="8.87183" transform="matrix(-1 0 0 1 344.438 29.6982)" fill="#788B14"/>
<circle cx="8.87183" cy="8.87183" r="8.87183" transform="matrix(-1 0 0 1 539.617 79.3245)" fill="#788B14"/>
<circle cx="8.87183" cy="8.87183" r="8.87183" transform="matrix(-1 0 0 1 673.211 78.2808)" fill="#788B14"/>
<defs>
<linearGradient id="paint0_linear_2_7984" x1="458.201" y1="8.67151e-05" x2="458.201" y2="331.911" gradientUnits="userSpaceOnUse">
<stop stop-color="#788B14" stop-opacity="0.7"/>
<stop offset="1" stop-color="#788B14"/>
</linearGradient>
</defs>
</svg>
