<?xml version="1.0" encoding="utf-8"?>
<!-- Generator: Adobe Illustrator 28.2.0, SVG Export Plug-In . SVG Version: 6.00 Build 0)  -->
<svg version="1.1" id="Layer_1" xmlns="http://www.w3.org/2000/svg" xmlns:xlink="http://www.w3.org/1999/xlink" x="0px" y="0px"
	 viewBox="0 0 400 61.3" style="enable-background:new 0 0 400 61.3;" xml:space="preserve">
<style type="text/css">
	.st0{fill:#1428A0;}
</style>
<path class="st0" d="M15.2,16.6c-0.3-1.2-0.2-2.4-0.1-3c0.4-1.8,1.6-3.9,5.2-3.9c3.3,0,5.3,2.1,5.3,5.2c0,1.1,0,3.5,0,3.5H40v-4
	C40,2,28.7,0,20.7,0C10.5,0,2.2,3.4,0.7,12.7c-0.4,2.6-0.5,4.8,0.1,7.7c2.5,11.7,22.8,15.1,25.8,22.5c0.6,1.4,0.4,3.1,0.1,4.2
	C26.2,49,24.9,51,21.1,51c-3.6,0-5.7-2.1-5.7-5.2l0-5.5H0v4.4c0,12.8,10,16.6,20.8,16.6c10.3,0,18.8-3.5,20.2-13.1
	c0.7-4.9,0.2-8.1-0.1-9.4C38.5,26.8,16.8,23.3,15.2,16.6z M201.2,16.7c-0.3-1.1-0.2-2.3,0-3c0.4-1.8,1.6-3.8,5.2-3.8
	c3.3,0,5.2,2.1,5.2,5.1c0,1,0,3.5,0,3.5h14.1v-4c0-12.3-11-14.3-19-14.3c-10.1,0-18.3,3.3-19.8,12.6c-0.4,2.5-0.5,4.8,0.1,7.6
	c2.4,11.6,22.6,14.9,25.5,22.2c0.5,1.4,0.4,3.2,0.1,4.2c-0.4,1.9-1.7,3.8-5.5,3.8c-3.6,0-5.7-2-5.7-5.1l0-5.5h-15.2v4.4
	c0,12.6,9.9,16.5,20.6,16.5c10.2,0,18.6-3.5,20-13c0.6-4.9,0.2-8.1-0.1-9.3C224.2,26.9,202.8,23.3,201.2,16.7z M331,47.9l-13.5-46
	h-21.2v56.6h14l-0.8-47.5L324,58.4h20.4V1.8h-14.1L331,47.9z M61.2,1.8L50.6,59h15.4l8-52.9L81.8,59h15.3L86.6,1.8H61.2z M147.6,1.8
	l-7.2,44.7l-7.2-44.7h-23.3L108.6,59h14.3l0.4-52.9l9.8,52.9h14.5l9.8-52.9l0.4,52.9h14.3l-1.3-57.2H147.6z M280.5,1.8H266v42.3
	c0,0.7,0,1.6-0.1,2.2c-0.3,1.4-1.5,4.2-5.5,4.2c-3.9,0-5.2-2.7-5.5-4.2c-0.1-0.6-0.2-1.4-0.1-2.2V1.8h-14.5v41
	c0,1.1,0.1,3.2,0.1,3.8c1,10.7,9.4,14.1,19.9,14.1c10.5,0,18.9-3.5,20-14.1c0.1-0.6,0.2-2.7,0.1-3.8V1.8z M379.8,26.9v8.3h5.9v8.3
	c0,0.7,0,1.5-0.1,2.2c-0.2,1.5-1.7,4.2-5.9,4.2c-4.1,0-5.6-2.6-5.8-4.2c-0.1-0.6-0.1-1.4-0.1-2.2V17.4c0-0.9,0.1-1.9,0.3-2.7
	c0.3-1.4,1.5-4.1,5.7-4.1c4.4,0,5.5,2.9,5.7,4.1c0.2,0.8,0.2,2.2,0.2,2.2v3.2h14.4v-1.9c0,0,0.1-2-0.1-3.8
	c-1.1-10.7-9.9-14.1-20.1-14.1c-10.2,0-18.8,3.4-20.1,14.1c-0.1,1-0.3,2.7-0.3,3.8v24c0,1,0,1.9,0.2,3.8c0.9,10.4,10,14.1,20.1,14.1
	c10.2,0,19.2-3.7,20.1-14.1c0.2-1.9,0.2-2.7,0.2-3.8V26.9H379.8z"/>
</svg>
