<svg width="222" height="42" viewBox="0 0 222 42" fill="none" xmlns="http://www.w3.org/2000/svg">
<g filter="url(#filter0_d_4522_63821)">
<rect x="5.39062" y="5.39307" width="210.976" height="30.9763" rx="7.19054" fill="white" shape-rendering="crispEdges"/>
<path d="M15.2839 16.2407H16.9738L21.1473 22.9746H21.1729V16.2407H22.6963V25.3813H21.0064L16.8458 18.6603H16.8074V25.3813H15.2839V16.2407ZM24.5869 16.2407H31.1672V17.6233H26.1872V20.0173H30.7959V21.3231H26.1872V23.9987H31.2568V25.3813H24.5869V16.2407ZM31.7545 16.2407H33.3804L35.0319 23.2306H35.0575L36.901 16.2407H38.5396L40.3319 23.2306H40.3575L42.0602 16.2407H43.686L41.164 25.3813H39.5382L37.7075 18.3914H37.6819L35.8128 25.3813H34.1613L31.7545 16.2407ZM48.2136 23.6531H49.993V25.3813H48.2136V23.6531ZM48.2136 18.9035H49.993V20.6318H48.2136V18.9035ZM61.5999 19.1468C61.5316 18.8822 61.4377 18.6389 61.3182 18.417C61.1987 18.1951 61.0451 18.0031 60.8573 17.841C60.6696 17.6788 60.4477 17.555 60.1916 17.4697C59.9441 17.3758 59.654 17.3289 59.3211 17.3289C58.8346 17.3289 58.4122 17.427 58.0537 17.6233C57.7038 17.8196 57.4179 18.0842 57.196 18.417C56.9741 18.7414 56.8076 19.1126 56.6967 19.5308C56.5943 19.949 56.5431 20.3758 56.5431 20.811C56.5431 21.2463 56.5943 21.673 56.6967 22.0912C56.8076 22.5094 56.9741 22.885 57.196 23.2178C57.4179 23.5421 57.7038 23.8024 58.0537 23.9987C58.4122 24.195 58.8346 24.2932 59.3211 24.2932C59.6796 24.2932 59.9953 24.2334 60.2685 24.1139C60.5416 23.9859 60.7763 23.8152 60.9726 23.6019C61.1689 23.38 61.3225 23.1239 61.4334 22.8337C61.5444 22.5436 61.6169 22.232 61.6511 21.8992H63.2129C63.1788 22.4454 63.0593 22.9447 62.8545 23.397C62.6582 23.8494 62.3893 24.242 62.0479 24.5748C61.7066 24.8991 61.3054 25.1509 60.8445 25.3301C60.3837 25.5094 59.8759 25.599 59.3211 25.599C58.6383 25.599 58.0238 25.4752 57.4776 25.2277C56.9399 24.9717 56.4833 24.626 56.1078 24.1908C55.7323 23.7555 55.4421 23.2477 55.2373 22.6673C55.041 22.087 54.9428 21.4682 54.9428 20.811C54.9428 20.1624 55.041 19.5479 55.2373 18.9675C55.4421 18.3872 55.7323 17.8794 56.1078 17.4441C56.4833 17.0088 56.9399 16.6632 57.4776 16.4071C58.0238 16.1511 58.6383 16.0231 59.3211 16.0231C59.8332 16.0231 60.3154 16.0956 60.7677 16.2407C61.2201 16.3773 61.6169 16.5821 61.9583 16.8552C62.3082 17.1198 62.5899 17.4441 62.8033 17.8282C63.0166 18.2122 63.1489 18.6517 63.2001 19.1468H61.5999ZM64.6683 16.2407H71.2485V17.6233H66.2685V20.0173H70.8772V21.3231H66.2685V23.9987H71.3381V25.3813H64.6683V16.2407ZM72.668 16.2407H74.3579L78.5313 22.9746H78.557V16.2407H80.0804V25.3813H78.3905L74.2299 18.6603H74.1915V25.3813H72.668V16.2407ZM83.0208 22.3345C83.0208 22.6844 83.0805 22.9831 83.2 23.2306C83.3195 23.4781 83.4859 23.6829 83.6993 23.8451C83.9126 23.9987 84.1559 24.1139 84.429 24.1908C84.7106 24.259 85.0136 24.2932 85.3379 24.2932C85.6878 24.2932 85.9866 24.2548 86.2341 24.178C86.4816 24.0926 86.6821 23.9859 86.8358 23.8579C86.9894 23.7299 87.1003 23.5848 87.1686 23.4226C87.2369 23.2519 87.271 23.0813 87.271 22.9106C87.271 22.5606 87.19 22.3046 87.0278 22.1424C86.8742 21.9717 86.7035 21.8523 86.5157 21.784C86.1914 21.6645 85.8116 21.5535 85.3763 21.4511C84.9496 21.3402 84.4204 21.1994 83.7889 21.0287C83.3963 20.9262 83.0677 20.794 82.8031 20.6318C82.5471 20.4611 82.3423 20.2733 82.1886 20.0685C82.035 19.8637 81.9241 19.646 81.8558 19.4156C81.796 19.1852 81.7662 18.9505 81.7662 18.7115C81.7662 18.2506 81.86 17.8538 82.0478 17.5209C82.2441 17.1795 82.5001 16.8979 82.8159 16.676C83.1317 16.4541 83.4902 16.2919 83.8913 16.1895C84.2924 16.0785 84.6978 16.0231 85.1075 16.0231C85.5854 16.0231 86.0335 16.0871 86.4517 16.2151C86.8784 16.3346 87.2497 16.5181 87.5655 16.7656C87.8898 17.0131 88.1458 17.3203 88.3336 17.6873C88.5214 18.0458 88.6152 18.464 88.6152 18.9419H87.015C86.9723 18.353 86.7718 17.9391 86.4133 17.7001C86.0548 17.4526 85.5982 17.3289 85.0435 17.3289C84.8557 17.3289 84.6637 17.3502 84.4674 17.3929C84.2711 17.427 84.0919 17.491 83.9297 17.5849C83.7675 17.6703 83.631 17.7897 83.52 17.9434C83.4176 18.097 83.3664 18.289 83.3664 18.5195C83.3664 18.8438 83.4646 19.0998 83.6609 19.2876C83.8657 19.4668 84.1303 19.6034 84.4546 19.6972C84.4887 19.7058 84.621 19.7442 84.8514 19.8125C85.0904 19.8722 85.355 19.9405 85.6452 20.0173C85.9354 20.0941 86.217 20.1709 86.4901 20.2477C86.7718 20.316 86.9723 20.3672 87.0918 20.4014C87.3905 20.4952 87.6508 20.6233 87.8727 20.7854C88.0946 20.9476 88.2781 21.1353 88.4232 21.3487C88.5768 21.5535 88.6878 21.7754 88.7561 22.0144C88.8329 22.2534 88.8713 22.4924 88.8713 22.7313C88.8713 23.2434 88.7646 23.6829 88.5512 24.0499C88.3464 24.4084 88.0733 24.7028 87.7319 24.9333C87.3905 25.1637 87.0022 25.3301 86.5669 25.4326C86.1317 25.5435 85.6878 25.599 85.2355 25.599C84.7149 25.599 84.2241 25.535 83.7633 25.407C83.3024 25.2789 82.9013 25.0826 82.5599 24.8181C82.2185 24.5535 81.9454 24.2164 81.7406 23.8067C81.5357 23.3885 81.429 22.8978 81.4205 22.3345H83.0208ZM90.1699 16.2407H91.7701V21.5663C91.7701 21.8736 91.7829 22.1851 91.8085 22.5009C91.8427 22.8167 91.928 23.1026 92.0646 23.3586C92.2097 23.6061 92.423 23.811 92.7047 23.9731C92.9949 24.1353 93.4003 24.2164 93.9209 24.2164C94.4415 24.2164 94.8426 24.1353 95.1243 23.9731C95.4144 23.811 95.6278 23.6061 95.7644 23.3586C95.9095 23.1026 95.9948 22.8167 96.0204 22.5009C96.0545 22.1851 96.0716 21.8736 96.0716 21.5663V16.2407H97.6719V22.0912C97.6719 22.6801 97.5823 23.1922 97.403 23.6275C97.2238 24.0627 96.9678 24.4297 96.6349 24.7284C96.3106 25.0186 95.918 25.2363 95.4571 25.3813C94.9962 25.5264 94.4842 25.599 93.9209 25.599C93.3576 25.599 92.8455 25.5264 92.3846 25.3813C91.9238 25.2363 91.5269 25.0186 91.194 24.7284C90.8697 24.4297 90.618 24.0627 90.4387 23.6275C90.2595 23.1922 90.1699 22.6801 90.1699 22.0912V16.2407ZM100.561 22.3345C100.561 22.6844 100.621 22.9831 100.74 23.2306C100.86 23.4781 101.026 23.6829 101.24 23.8451C101.453 23.9987 101.696 24.1139 101.969 24.1908C102.251 24.259 102.554 24.2932 102.878 24.2932C103.228 24.2932 103.527 24.2548 103.774 24.178C104.022 24.0926 104.222 23.9859 104.376 23.8579C104.53 23.7299 104.641 23.5848 104.709 23.4226C104.777 23.2519 104.811 23.0813 104.811 22.9106C104.811 22.5606 104.73 22.3046 104.568 22.1424C104.414 21.9717 104.244 21.8523 104.056 21.784C103.732 21.6645 103.352 21.5535 102.917 21.4511C102.49 21.3402 101.961 21.1994 101.329 21.0287C100.937 20.9262 100.608 20.794 100.343 20.6318C100.087 20.4611 99.8825 20.2733 99.7289 20.0685C99.5753 19.8637 99.4643 19.646 99.3961 19.4156C99.3363 19.1852 99.3064 18.9505 99.3064 18.7115C99.3064 18.2506 99.4003 17.8538 99.5881 17.5209C99.7844 17.1795 100.04 16.8979 100.356 16.676C100.672 16.4541 101.03 16.2919 101.432 16.1895C101.833 16.0785 102.238 16.0231 102.648 16.0231C103.126 16.0231 103.574 16.0871 103.992 16.2151C104.419 16.3346 104.79 16.5181 105.106 16.7656C105.43 17.0131 105.686 17.3203 105.874 17.6873C106.062 18.0458 106.156 18.464 106.156 18.9419H104.555C104.513 18.353 104.312 17.9391 103.954 17.7001C103.595 17.4526 103.139 17.3289 102.584 17.3289C102.396 17.3289 102.204 17.3502 102.008 17.3929C101.811 17.427 101.632 17.491 101.47 17.5849C101.308 17.6703 101.171 17.7897 101.06 17.9434C100.958 18.097 100.907 18.289 100.907 18.5195C100.907 18.8438 101.005 19.0998 101.201 19.2876C101.406 19.4668 101.671 19.6034 101.995 19.6972C102.029 19.7058 102.161 19.7442 102.392 19.8125C102.631 19.8722 102.895 19.9405 103.185 20.0173C103.476 20.0941 103.757 20.1709 104.03 20.2477C104.312 20.316 104.513 20.3672 104.632 20.4014C104.931 20.4952 105.191 20.6233 105.413 20.7854C105.635 20.9476 105.818 21.1353 105.963 21.3487C106.117 21.5535 106.228 21.7754 106.296 22.0144C106.373 22.2534 106.412 22.4924 106.412 22.7313C106.412 23.2434 106.305 23.6829 106.092 24.0499C105.887 24.4084 105.614 24.7028 105.272 24.9333C104.931 25.1637 104.542 25.3301 104.107 25.4326C103.672 25.5435 103.228 25.599 102.776 25.599C102.255 25.599 101.764 25.535 101.304 25.407C100.843 25.2789 100.442 25.0826 100.1 24.8181C99.7588 24.5535 99.4857 24.2164 99.2808 23.8067C99.076 23.3885 98.9693 22.8978 98.9608 22.3345H100.561ZM110.505 16.2407H117.905V17.6233H114.999V25.3813H113.398V17.6233H110.505V16.2407ZM122.856 17.3289C122.37 17.3289 121.947 17.427 121.589 17.6233C121.239 17.8196 120.953 18.0842 120.731 18.417C120.509 18.7414 120.343 19.1126 120.232 19.5308C120.129 19.949 120.078 20.3758 120.078 20.811C120.078 21.2463 120.129 21.673 120.232 22.0912C120.343 22.5094 120.509 22.885 120.731 23.2178C120.953 23.5421 121.239 23.8024 121.589 23.9987C121.947 24.195 122.37 24.2932 122.856 24.2932C123.343 24.2932 123.761 24.195 124.111 23.9987C124.469 23.8024 124.759 23.5421 124.981 23.2178C125.203 22.885 125.365 22.5094 125.468 22.0912C125.579 21.673 125.634 21.2463 125.634 20.811C125.634 20.3758 125.579 19.949 125.468 19.5308C125.365 19.1126 125.203 18.7414 124.981 18.417C124.759 18.0842 124.469 17.8196 124.111 17.6233C123.761 17.427 123.343 17.3289 122.856 17.3289ZM122.856 16.0231C123.539 16.0231 124.149 16.1511 124.687 16.4071C125.233 16.6632 125.694 17.0088 126.069 17.4441C126.445 17.8794 126.731 18.3872 126.927 18.9675C127.132 19.5479 127.234 20.1624 127.234 20.811C127.234 21.4682 127.132 22.087 126.927 22.6673C126.731 23.2477 126.445 23.7555 126.069 24.1908C125.694 24.626 125.233 24.9717 124.687 25.2277C124.149 25.4752 123.539 25.599 122.856 25.599C122.173 25.599 121.559 25.4752 121.013 25.2277C120.475 24.9717 120.018 24.626 119.643 24.1908C119.267 23.7555 118.977 23.2477 118.772 22.6673C118.576 22.087 118.478 21.4682 118.478 20.811C118.478 20.1624 118.576 19.5479 118.772 18.9675C118.977 18.3872 119.267 17.8794 119.643 17.4441C120.018 17.0088 120.475 16.6632 121.013 16.4071C121.559 16.1511 122.173 16.0231 122.856 16.0231ZM132.583 17.3289C132.096 17.3289 131.674 17.427 131.315 17.6233C130.965 17.8196 130.679 18.0842 130.458 18.417C130.236 18.7414 130.069 19.1126 129.958 19.5308C129.856 19.949 129.805 20.3758 129.805 20.811C129.805 21.2463 129.856 21.673 129.958 22.0912C130.069 22.5094 130.236 22.885 130.458 23.2178C130.679 23.5421 130.965 23.8024 131.315 23.9987C131.674 24.195 132.096 24.2932 132.583 24.2932C133.069 24.2932 133.487 24.195 133.837 23.9987C134.196 23.8024 134.486 23.5421 134.708 23.2178C134.93 22.885 135.092 22.5094 135.194 22.0912C135.305 21.673 135.361 21.2463 135.361 20.811C135.361 20.3758 135.305 19.949 135.194 19.5308C135.092 19.1126 134.93 18.7414 134.708 18.417C134.486 18.0842 134.196 17.8196 133.837 17.6233C133.487 17.427 133.069 17.3289 132.583 17.3289ZM132.583 16.0231C133.265 16.0231 133.876 16.1511 134.413 16.4071C134.96 16.6632 135.42 17.0088 135.796 17.4441C136.172 17.8794 136.457 18.3872 136.654 18.9675C136.859 19.5479 136.961 20.1624 136.961 20.811C136.961 21.4682 136.859 22.087 136.654 22.6673C136.457 23.2477 136.172 23.7555 135.796 24.1908C135.42 24.626 134.96 24.9717 134.413 25.2277C133.876 25.4752 133.265 25.599 132.583 25.599C131.9 25.599 131.285 25.4752 130.739 25.2277C130.202 24.9717 129.745 24.626 129.369 24.1908C128.994 23.7555 128.704 23.2477 128.499 22.6673C128.303 22.087 128.204 21.4682 128.204 20.811C128.204 20.1624 128.303 19.5479 128.499 18.9675C128.704 18.3872 128.994 17.8794 129.369 17.4441C129.745 17.0088 130.202 16.6632 130.739 16.4071C131.285 16.1511 131.9 16.0231 132.583 16.0231ZM138.417 16.2407H140.018V23.9987H144.665V25.3813H138.417V16.2407ZM146.818 22.3345C146.818 22.6844 146.878 22.9831 146.998 23.2306C147.117 23.4781 147.283 23.6829 147.497 23.8451C147.71 23.9987 147.953 24.1139 148.227 24.1908C148.508 24.259 148.811 24.2932 149.136 24.2932C149.485 24.2932 149.784 24.2548 150.032 24.178C150.279 24.0926 150.48 23.9859 150.633 23.8579C150.787 23.7299 150.898 23.5848 150.966 23.4226C151.034 23.2519 151.069 23.0813 151.069 22.9106C151.069 22.5606 150.988 22.3046 150.825 22.1424C150.672 21.9717 150.501 21.8523 150.313 21.784C149.989 21.6645 149.609 21.5535 149.174 21.4511C148.747 21.3402 148.218 21.1994 147.586 21.0287C147.194 20.9262 146.865 20.794 146.601 20.6318C146.345 20.4611 146.14 20.2733 145.986 20.0685C145.833 19.8637 145.722 19.646 145.653 19.4156C145.594 19.1852 145.564 18.9505 145.564 18.7115C145.564 18.2506 145.658 17.8538 145.845 17.5209C146.042 17.1795 146.298 16.8979 146.614 16.676C146.929 16.4541 147.288 16.2919 147.689 16.1895C148.09 16.0785 148.495 16.0231 148.905 16.0231C149.383 16.0231 149.831 16.0871 150.249 16.2151C150.676 16.3346 151.047 16.5181 151.363 16.7656C151.687 17.0131 151.943 17.3203 152.131 17.6873C152.319 18.0458 152.413 18.464 152.413 18.9419H150.813C150.77 18.353 150.569 17.9391 150.211 17.7001C149.852 17.4526 149.396 17.3289 148.841 17.3289C148.653 17.3289 148.461 17.3502 148.265 17.3929C148.069 17.427 147.889 17.491 147.727 17.5849C147.565 17.6703 147.429 17.7897 147.318 17.9434C147.215 18.097 147.164 18.289 147.164 18.5195C147.164 18.8438 147.262 19.0998 147.458 19.2876C147.663 19.4668 147.928 19.6034 148.252 19.6972C148.286 19.7058 148.419 19.7442 148.649 19.8125C148.888 19.8722 149.153 19.9405 149.443 20.0173C149.733 20.0941 150.015 20.1709 150.288 20.2477C150.569 20.316 150.77 20.3672 150.889 20.4014C151.188 20.4952 151.448 20.6233 151.67 20.7854C151.892 20.9476 152.076 21.1353 152.221 21.3487C152.374 21.5535 152.485 21.7754 152.554 22.0144C152.63 22.2534 152.669 22.4924 152.669 22.7313C152.669 23.2434 152.562 23.6829 152.349 24.0499C152.144 24.4084 151.871 24.7028 151.529 24.9333C151.188 25.1637 150.8 25.3301 150.365 25.4326C149.929 25.5435 149.485 25.599 149.033 25.599C148.512 25.599 148.022 25.535 147.561 25.407C147.1 25.2789 146.699 25.0826 146.357 24.8181C146.016 24.5535 145.743 24.2164 145.538 23.8067C145.333 23.3885 145.227 22.8978 145.218 22.3345H146.818ZM157.531 16.2407H159.131V21.5663C159.131 21.8736 159.144 22.1851 159.169 22.5009C159.203 22.8167 159.289 23.1026 159.425 23.3586C159.57 23.6061 159.784 23.811 160.065 23.9731C160.356 24.1353 160.761 24.2164 161.282 24.2164C161.802 24.2164 162.203 24.1353 162.485 23.9731C162.775 23.811 162.988 23.6061 163.125 23.3586C163.27 23.1026 163.355 22.8167 163.381 22.5009C163.415 22.1851 163.432 21.8736 163.432 21.5663V16.2407H165.033V22.0912C165.033 22.6801 164.943 23.1922 164.764 23.6275C164.584 24.0627 164.328 24.4297 163.996 24.7284C163.671 25.0186 163.279 25.2363 162.818 25.3813C162.357 25.5264 161.845 25.599 161.282 25.599C160.718 25.599 160.206 25.5264 159.745 25.3813C159.284 25.2363 158.888 25.0186 158.555 24.7284C158.23 24.4297 157.979 24.0627 157.799 23.6275C157.62 23.1922 157.531 22.6801 157.531 22.0912V16.2407ZM166.872 16.2407H170.905C171.553 16.2407 172.082 16.3346 172.492 16.5223C172.902 16.7101 173.217 16.9448 173.439 17.2265C173.661 17.5081 173.811 17.8154 173.887 18.1482C173.973 18.4811 174.015 18.7883 174.015 19.0699C174.015 19.3516 173.973 19.6588 173.887 19.9917C173.811 20.316 173.661 20.619 173.439 20.9006C173.217 21.1823 172.902 21.417 172.492 21.6048C172.082 21.784 171.553 21.8736 170.905 21.8736H168.472V25.3813H166.872V16.2407ZM168.472 20.5678H170.815C170.994 20.5678 171.178 20.5422 171.365 20.491C171.553 20.4398 171.724 20.3587 171.878 20.2477C172.04 20.1282 172.168 19.9746 172.262 19.7869C172.364 19.5906 172.415 19.3473 172.415 19.0571C172.415 18.7584 172.373 18.5109 172.287 18.3146C172.202 18.1183 172.087 17.9647 171.942 17.8538C171.796 17.7343 171.63 17.6532 171.442 17.6105C171.254 17.5678 171.054 17.5465 170.841 17.5465H168.472V20.5678ZM175.411 16.2407H179.2C179.9 16.2407 180.506 16.3602 181.018 16.5992C181.53 16.8381 181.948 17.1667 182.273 17.5849C182.597 17.9946 182.836 18.4768 182.99 19.0315C183.152 19.5863 183.233 20.1795 183.233 20.811C183.233 21.4426 183.152 22.0358 182.99 22.5905C182.836 23.1453 182.597 23.6317 182.273 24.0499C181.948 24.4596 181.53 24.7839 181.018 25.0229C180.506 25.2619 179.9 25.3813 179.2 25.3813H175.411V16.2407ZM177.011 24.0755H178.586C179.209 24.0755 179.717 23.9945 180.109 23.8323C180.51 23.6616 180.822 23.4312 181.044 23.141C181.274 22.8423 181.428 22.4966 181.505 22.104C181.59 21.7029 181.633 21.2719 181.633 20.811C181.633 20.3502 181.59 19.9234 181.505 19.5308C181.428 19.1297 181.274 18.784 181.044 18.4939C180.822 18.1951 180.51 17.9647 180.109 17.8025C179.717 17.6319 179.209 17.5465 178.586 17.5465H177.011V24.0755ZM187.095 16.2407H188.798L192.318 25.3813H190.603L189.745 22.9618H186.096L185.239 25.3813H183.587L187.095 16.2407ZM186.532 21.7456H189.322L187.953 17.8154H187.914L186.532 21.7456ZM191.143 16.2407H198.542V17.6233H195.636V25.3813H194.036V17.6233H191.143V16.2407ZM199.602 16.2407H206.182V17.6233H201.202V20.0173H205.811V21.3231H201.202V23.9987H206.272V25.3813H199.602V16.2407Z" fill="#7B76FF"/>
</g>
<defs>
<filter id="filter0_d_4522_63821" x="-0.00227785" y="0.000163555" width="221.762" height="41.7624" filterUnits="userSpaceOnUse" color-interpolation-filters="sRGB">
<feFlood flood-opacity="0" result="BackgroundImageFix"/>
<feColorMatrix in="SourceAlpha" type="matrix" values="0 0 0 0 0 0 0 0 0 0 0 0 0 0 0 0 0 0 127 0" result="hardAlpha"/>
<feOffset/>
<feGaussianBlur stdDeviation="2.69645"/>
<feComposite in2="hardAlpha" operator="out"/>
<feColorMatrix type="matrix" values="0 0 0 0 0 0 0 0 0 0 0 0 0 0 0 0 0 0 0.25 0"/>
<feBlend mode="normal" in2="BackgroundImageFix" result="effect1_dropShadow_4522_63821"/>
<feBlend mode="normal" in="SourceGraphic" in2="effect1_dropShadow_4522_63821" result="shape"/>
</filter>
</defs>
</svg>
