<svg width="172" height="183" viewBox="0 0 172 183" fill="none" xmlns="http://www.w3.org/2000/svg">
<g filter="url(#filter0_d_4522_63810)">
<rect x="6.28906" y="6.2915" width="158.762" height="170.126" rx="7.19054" fill="white"/>
<path d="M23.1886 32.129H27.395C28.2459 32.129 28.935 31.9133 29.4623 31.4818C29.9896 31.0504 30.2533 30.3913 30.2533 29.5044C30.2533 28.6176 29.9896 27.9585 29.4623 27.527C28.935 27.0956 28.2459 26.8799 27.395 26.8799H23.1886V32.129ZM21.9662 25.8373H27.6647C28.2399 25.8373 28.7612 25.9211 29.2286 26.0889C29.696 26.2447 30.0975 26.4844 30.433 26.808C30.7686 27.1196 31.0262 27.5031 31.206 27.9585C31.3858 28.4139 31.4757 28.9292 31.4757 29.5044C31.4757 30.0797 31.3858 30.595 31.206 31.0504C31.0262 31.5058 30.7686 31.8953 30.433 32.2189C30.0975 32.5304 29.696 32.7701 29.2286 32.9379C28.7612 33.0937 28.2399 33.1716 27.6647 33.1716H23.1886V38.6724H21.9662V25.8373ZM32.9117 25.8373H34.0442V38.6724H32.9117V25.8373ZM35.924 32.2368C35.9599 31.6975 36.0738 31.2302 36.2655 30.8347C36.4573 30.4392 36.7149 30.1156 37.0385 29.864C37.374 29.6123 37.7635 29.4265 38.207 29.3067C38.6504 29.1868 39.1417 29.1269 39.681 29.1269C40.0885 29.1269 40.4959 29.1689 40.9034 29.2528C41.3109 29.3247 41.6764 29.4685 42 29.6842C42.3235 29.8999 42.5872 30.2055 42.7909 30.601C42.9947 30.9845 43.0965 31.4878 43.0965 32.111V37.0365C43.0965 37.4919 43.3182 37.7196 43.7616 37.7196C43.8935 37.7196 44.0133 37.6956 44.1212 37.6477V38.6005C43.9893 38.6244 43.8695 38.6424 43.7616 38.6544C43.6658 38.6664 43.5399 38.6724 43.3841 38.6724C43.0965 38.6724 42.8628 38.6364 42.6831 38.5645C42.5153 38.4806 42.3835 38.3668 42.2876 38.223C42.1917 38.0791 42.1258 37.9114 42.0898 37.7196C42.0659 37.5159 42.0539 37.2942 42.0539 37.0545H42.0179C41.8142 37.3541 41.6045 37.6237 41.3888 37.8634C41.185 38.0911 40.9513 38.2829 40.6877 38.4387C40.436 38.5945 40.1424 38.7143 39.8068 38.7982C39.4833 38.8821 39.0938 38.924 38.6384 38.924C38.207 38.924 37.7995 38.8701 37.416 38.7622C37.0445 38.6664 36.7149 38.5106 36.4273 38.2949C36.1517 38.0672 35.93 37.7855 35.7622 37.45C35.6064 37.1024 35.5285 36.695 35.5285 36.2276C35.5285 35.5804 35.6723 35.0771 35.9599 34.7176C36.2475 34.3461 36.625 34.0644 37.0924 33.8727C37.5718 33.6809 38.1051 33.5491 38.6923 33.4772C39.2915 33.3933 39.8967 33.3154 40.5079 33.2435C40.7476 33.2195 40.9573 33.1896 41.1371 33.1536C41.3169 33.1177 41.4667 33.0578 41.5865 32.9739C41.7063 32.878 41.7962 32.7522 41.8562 32.5964C41.9281 32.4406 41.964 32.2368 41.964 31.9852C41.964 31.6017 41.8981 31.2901 41.7663 31.0504C41.6464 30.7987 41.4727 30.601 41.245 30.4572C41.0292 30.3134 40.7716 30.2175 40.472 30.1696C40.1844 30.1096 39.8728 30.0797 39.5372 30.0797C38.8181 30.0797 38.2309 30.2534 37.7755 30.601C37.3201 30.9365 37.0804 31.4818 37.0565 32.2368H35.924ZM41.964 33.603H41.9281C41.8562 33.7349 41.7183 33.8307 41.5146 33.8907C41.3109 33.9506 41.1311 33.9925 40.9753 34.0165C40.4959 34.1004 39.9986 34.1783 39.4833 34.2502C38.9799 34.3101 38.5185 34.406 38.0991 34.5378C37.6796 34.6696 37.3321 34.8614 37.0565 35.113C36.7928 35.3527 36.661 35.7003 36.661 36.1557C36.661 36.4433 36.7149 36.701 36.8228 36.9287C36.9426 37.1444 37.0984 37.3361 37.2902 37.5039C37.4819 37.6597 37.7036 37.7795 37.9553 37.8634C38.207 37.9473 38.4646 37.9893 38.7283 37.9893C39.1597 37.9893 39.5732 37.9233 39.9686 37.7915C40.3641 37.6597 40.7057 37.4679 40.9933 37.2163C41.2929 36.9646 41.5266 36.659 41.6944 36.2995C41.8741 35.94 41.964 35.5325 41.964 35.0771V33.603ZM46.9714 29.3966H48.8589V30.3493H46.9714V36.6051C46.9714 36.9766 47.0193 37.2702 47.1152 37.4859C47.2231 37.6897 47.4807 37.8035 47.8882 37.8275C48.2118 37.8275 48.5353 37.8095 48.8589 37.7735V38.7263C48.6911 38.7263 48.5234 38.7323 48.3556 38.7443C48.1878 38.7563 48.02 38.7622 47.8522 38.7622C47.0972 38.7622 46.5699 38.6184 46.2703 38.3308C45.9707 38.0312 45.8269 37.4859 45.8389 36.695V30.3493H44.221V29.3966H45.8389V26.6102H46.9714V29.3966ZM53.8905 30.3493H52.0569V38.6724H50.9244V30.3493H49.3425V29.3966H50.9244V28.5517C50.9244 28.1562 50.9543 27.7907 51.0143 27.4551C51.0742 27.1196 51.188 26.8319 51.3558 26.5923C51.5236 26.3526 51.7513 26.1668 52.0389 26.035C52.3385 25.9032 52.716 25.8373 53.1714 25.8373C53.3392 25.8373 53.495 25.8432 53.6388 25.8552C53.7826 25.8672 53.9444 25.8852 54.1242 25.9092V26.8799C53.9684 26.8559 53.8246 26.8379 53.6927 26.826C53.5609 26.802 53.4291 26.79 53.2972 26.79C52.9857 26.79 52.746 26.8379 52.5782 26.9338C52.4104 27.0297 52.2846 27.1615 52.2007 27.3293C52.1288 27.4851 52.0868 27.6708 52.0749 27.8866C52.0629 28.1023 52.0569 28.336 52.0569 28.5876V29.3966H53.8905V30.3493ZM58.7043 30.0797C58.165 30.0797 57.6917 30.1935 57.2842 30.4212C56.8767 30.6489 56.5352 30.9485 56.2596 31.32C55.9959 31.6916 55.7922 32.117 55.6484 32.5964C55.5165 33.0637 55.4506 33.5431 55.4506 34.0345C55.4506 34.5258 55.5165 35.0112 55.6484 35.4906C55.7922 35.9579 55.9959 36.3774 56.2596 36.7489C56.5352 37.1204 56.8767 37.42 57.2842 37.6477C57.6917 37.8754 58.165 37.9893 58.7043 37.9893C59.2436 37.9893 59.717 37.8754 60.1245 37.6477C60.5319 37.42 60.8675 37.1204 61.1311 36.7489C61.4068 36.3774 61.6105 35.9579 61.7423 35.4906C61.8861 35.0112 61.9581 34.5258 61.9581 34.0345C61.9581 33.5431 61.8861 33.0637 61.7423 32.5964C61.6105 32.117 61.4068 31.6916 61.1311 31.32C60.8675 30.9485 60.5319 30.6489 60.1245 30.4212C59.717 30.1935 59.2436 30.0797 58.7043 30.0797ZM58.7043 29.1269C59.4114 29.1269 60.0346 29.2588 60.5739 29.5224C61.1252 29.7861 61.5865 30.1396 61.9581 30.583C62.3296 31.0264 62.6112 31.5477 62.8029 32.147C62.9947 32.7342 63.0906 33.3634 63.0906 34.0345C63.0906 34.7056 62.9947 35.3407 62.8029 35.94C62.6112 36.5272 62.3296 37.0425 61.9581 37.4859C61.5865 37.9293 61.1252 38.2829 60.5739 38.5465C60.0346 38.7982 59.4114 38.924 58.7043 38.924C57.9973 38.924 57.3681 38.7982 56.8168 38.5465C56.2775 38.2829 55.8221 37.9293 55.4506 37.4859C55.0791 37.0425 54.7975 36.5272 54.6057 35.94C54.414 35.3407 54.3181 34.7056 54.3181 34.0345C54.3181 33.3634 54.414 32.7342 54.6057 32.147C54.7975 31.5477 55.0791 31.0264 55.4506 30.583C55.8221 30.1396 56.2775 29.7861 56.8168 29.5224C57.3681 29.2588 57.9973 29.1269 58.7043 29.1269ZM64.5945 29.3966H65.6372V31.5717H65.6731C65.9607 30.8167 66.4042 30.2355 67.0034 29.828C67.6146 29.4205 68.3396 29.2348 69.1785 29.2707V30.4032C68.6632 30.3793 68.1958 30.4512 67.7764 30.619C67.3569 30.7748 66.9914 31.0025 66.6798 31.3021C66.3802 31.6017 66.1465 31.9612 65.9787 32.3806C65.8109 32.7881 65.727 33.2375 65.727 33.7289V38.6724H64.5945V29.3966ZM70.085 29.3966H71.1277V30.9605H71.1816C71.4812 30.3853 71.8707 29.9359 72.3501 29.6123C72.8414 29.2887 73.4646 29.1269 74.2196 29.1269C74.8308 29.1269 75.3821 29.2767 75.8734 29.5763C76.3768 29.8759 76.7123 30.3313 76.8801 30.9425C77.1557 30.3313 77.5632 29.8759 78.1025 29.5763C78.6418 29.2767 79.217 29.1269 79.8282 29.1269C81.8775 29.1269 82.9022 30.2115 82.9022 32.3806V38.6724H81.7697V32.4346C81.7697 31.6676 81.6079 31.0863 81.2843 30.6909C80.9607 30.2834 80.3915 30.0797 79.5766 30.0797C79.0852 30.0797 78.6777 30.1755 78.3542 30.3673C78.0306 30.5471 77.7729 30.7927 77.5812 31.1043C77.3894 31.4159 77.2516 31.7754 77.1677 32.1829C77.0958 32.5784 77.0599 32.9918 77.0599 33.4233V38.6724H75.9274V32.3806C75.9274 32.0691 75.8914 31.7754 75.8195 31.4998C75.7596 31.2122 75.6517 30.9665 75.4959 30.7628C75.3521 30.5471 75.1544 30.3793 74.9027 30.2594C74.651 30.1396 74.3454 30.0797 73.9859 30.0797C73.5065 30.0797 73.0871 30.1696 72.7276 30.3493C72.38 30.5171 72.0924 30.7568 71.8647 31.0684C71.649 31.368 71.4872 31.7275 71.3793 32.147C71.2715 32.5544 71.2176 33.0038 71.2176 33.4952V38.6724H70.085V29.3966ZM89.793 25.8373H91.0154V33.7828C91.0154 34.5258 91.0993 35.161 91.2671 35.6883C91.4349 36.2036 91.6805 36.6291 92.0041 36.9646C92.3277 37.2882 92.7232 37.5279 93.1905 37.6837C93.6579 37.8275 94.1852 37.8994 94.7725 37.8994C95.3717 37.8994 95.905 37.8275 96.3724 37.6837C96.8397 37.5279 97.2352 37.2882 97.5588 36.9646C97.8824 36.6291 98.128 36.2036 98.2958 35.6883C98.4636 35.161 98.5475 34.5258 98.5475 33.7828V25.8373H99.7699V34.0524C99.7699 34.7116 99.674 35.3407 99.4823 35.94C99.3025 36.5272 99.0089 37.0425 98.6014 37.4859C98.2059 37.9293 97.6906 38.2829 97.0555 38.5465C96.4323 38.7982 95.6713 38.924 94.7725 38.924C93.8856 38.924 93.1246 38.7982 92.4895 38.5465C91.8663 38.2829 91.351 37.9293 90.9435 37.4859C90.548 37.0425 90.2544 36.5272 90.0627 35.94C89.8829 35.3407 89.793 34.7116 89.793 34.0524V25.8373ZM107.384 32.111C107.372 31.7635 107.3 31.4639 107.168 31.2122C107.037 30.9485 106.857 30.7328 106.629 30.565C106.413 30.3973 106.162 30.2774 105.874 30.2055C105.586 30.1216 105.281 30.0797 104.957 30.0797C104.706 30.0797 104.448 30.1096 104.184 30.1696C103.933 30.2175 103.699 30.3074 103.483 30.4392C103.268 30.559 103.094 30.7208 102.962 30.9246C102.83 31.1283 102.764 31.38 102.764 31.6796C102.764 31.9312 102.824 32.147 102.944 32.3267C103.076 32.4945 103.238 32.6383 103.429 32.7581C103.621 32.878 103.831 32.9799 104.059 33.0637C104.286 33.1356 104.496 33.1956 104.688 33.2435L106.198 33.5851C106.521 33.633 106.839 33.7229 107.15 33.8547C107.474 33.9745 107.756 34.1363 107.995 34.3401C108.247 34.5438 108.451 34.7955 108.607 35.0951C108.762 35.3947 108.84 35.7482 108.84 36.1557C108.84 36.659 108.726 37.0904 108.499 37.45C108.271 37.7975 107.977 38.0851 107.618 38.3128C107.27 38.5286 106.875 38.6843 106.431 38.7802C105.988 38.8761 105.551 38.924 105.119 38.924C104.029 38.924 103.142 38.6664 102.459 38.151C101.787 37.6357 101.404 36.8088 101.308 35.6703H102.441C102.489 36.4373 102.764 37.0185 103.268 37.414C103.783 37.7975 104.418 37.9893 105.173 37.9893C105.449 37.9893 105.73 37.9593 106.018 37.8994C106.318 37.8395 106.593 37.7376 106.845 37.5938C107.097 37.45 107.3 37.2702 107.456 37.0545C107.624 36.8268 107.708 36.5512 107.708 36.2276C107.708 35.9519 107.648 35.7242 107.528 35.5445C107.42 35.3527 107.27 35.1969 107.079 35.0771C106.887 34.9453 106.665 34.8374 106.413 34.7535C106.174 34.6696 105.928 34.5977 105.676 34.5378L104.22 34.2142C103.849 34.1184 103.507 34.0105 103.196 33.8907C102.884 33.7588 102.608 33.603 102.369 33.4233C102.141 33.2315 101.961 33.0038 101.829 32.7402C101.698 32.4645 101.632 32.129 101.632 31.7335C101.632 31.2661 101.734 30.8646 101.937 30.5291C102.153 30.1935 102.429 29.9239 102.764 29.7201C103.1 29.5164 103.471 29.3666 103.879 29.2707C104.298 29.1749 104.712 29.1269 105.119 29.1269C105.586 29.1269 106.018 29.1868 106.413 29.3067C106.821 29.4265 107.174 29.6123 107.474 29.864C107.786 30.1156 108.031 30.4272 108.211 30.7987C108.391 31.1702 108.493 31.6077 108.517 32.111H107.384ZM116.974 33.3873C116.962 32.9559 116.884 32.5424 116.74 32.147C116.608 31.7515 116.416 31.4039 116.165 31.1043C115.913 30.7927 115.607 30.5471 115.248 30.3673C114.888 30.1755 114.481 30.0797 114.025 30.0797C113.558 30.0797 113.145 30.1755 112.785 30.3673C112.426 30.5471 112.12 30.7927 111.868 31.1043C111.617 31.4039 111.413 31.7575 111.257 32.1649C111.113 32.5604 111.017 32.9679 110.969 33.3873H116.974ZM110.969 34.3401C110.969 34.7475 111.023 35.173 111.131 35.6164C111.251 36.0478 111.437 36.4373 111.688 36.7848C111.94 37.1324 112.258 37.42 112.641 37.6477C113.025 37.8754 113.486 37.9893 114.025 37.9893C114.852 37.9893 115.499 37.7735 115.967 37.3421C116.434 36.9107 116.758 36.3354 116.938 35.6164H118.07C117.83 36.671 117.387 37.4859 116.74 38.0612C116.105 38.6364 115.2 38.924 114.025 38.924C113.294 38.924 112.659 38.7982 112.12 38.5465C111.593 38.2829 111.161 37.9293 110.826 37.4859C110.49 37.0305 110.238 36.5092 110.071 35.922C109.915 35.3228 109.837 34.6936 109.837 34.0345C109.837 33.4233 109.915 32.8241 110.071 32.2368C110.238 31.6496 110.49 31.1283 110.826 30.6729C111.161 30.2055 111.593 29.834 112.12 29.5584C112.659 29.2707 113.294 29.1269 114.025 29.1269C114.768 29.1269 115.404 29.2767 115.931 29.5763C116.458 29.8759 116.884 30.2714 117.207 30.7628C117.543 31.2421 117.782 31.7994 117.926 32.4346C118.07 33.0578 118.13 33.6929 118.106 34.3401H110.969ZM127.608 38.6724H126.565V36.9107H126.529C126.409 37.2103 126.229 37.4859 125.99 37.7376C125.762 37.9893 125.498 38.205 125.199 38.3847C124.899 38.5525 124.576 38.6843 124.228 38.7802C123.892 38.8761 123.557 38.924 123.221 38.924C122.514 38.924 121.897 38.7982 121.37 38.5465C120.854 38.2829 120.423 37.9293 120.075 37.4859C119.728 37.0305 119.47 36.5092 119.302 35.922C119.135 35.3228 119.051 34.6936 119.051 34.0345C119.051 33.3753 119.135 32.7522 119.302 32.1649C119.47 31.5657 119.728 31.0444 120.075 30.601C120.423 30.1456 120.854 29.7861 121.37 29.5224C121.897 29.2588 122.514 29.1269 123.221 29.1269C123.569 29.1269 123.904 29.1689 124.228 29.2528C124.564 29.3366 124.875 29.4685 125.163 29.6482C125.45 29.816 125.702 30.0257 125.918 30.2774C126.145 30.5291 126.319 30.8227 126.439 31.1583H126.475V25.8373H127.608V38.6724ZM120.183 34.0345C120.183 34.5138 120.237 34.9932 120.345 35.4726C120.465 35.94 120.645 36.3594 120.884 36.7309C121.136 37.1024 121.454 37.408 121.837 37.6477C122.221 37.8754 122.682 37.9893 123.221 37.9893C123.82 37.9893 124.324 37.8754 124.731 37.6477C125.151 37.408 125.486 37.1024 125.738 36.7309C126.002 36.3594 126.187 35.94 126.295 35.4726C126.415 34.9932 126.475 34.5138 126.475 34.0345C126.475 33.5551 126.415 33.0817 126.295 32.6143C126.187 32.135 126.002 31.7095 125.738 31.338C125.486 30.9665 125.151 30.6669 124.731 30.4392C124.324 30.1995 123.82 30.0797 123.221 30.0797C122.682 30.0797 122.221 30.1995 121.837 30.4392C121.454 30.6669 121.136 30.9665 120.884 31.338C120.645 31.7095 120.465 32.135 120.345 32.6143C120.237 33.0817 120.183 33.5551 120.183 34.0345ZM23.4654 49.6785H22.3652V54.6724H21.6857V49.6785H20.7366V49.1069H21.6857V48.6C21.6857 48.3627 21.7037 48.1434 21.7397 47.942C21.7756 47.7407 21.8439 47.5681 21.9446 47.4243C22.0453 47.2805 22.1819 47.169 22.3545 47.0899C22.5342 47.0108 22.7607 46.9713 23.034 46.9713C23.1346 46.9713 23.2281 46.9749 23.3144 46.9821C23.4007 46.9893 23.4978 47.0001 23.6056 47.0144V47.5969C23.5121 47.5825 23.4259 47.5717 23.3468 47.5645C23.2677 47.5501 23.1886 47.5429 23.1095 47.5429C22.9225 47.5429 22.7787 47.5717 22.678 47.6292C22.5774 47.6868 22.5019 47.7659 22.4515 47.8665C22.4084 47.96 22.3832 48.0714 22.376 48.2009C22.3688 48.3303 22.3652 48.4705 22.3652 48.6215V49.1069H23.4654V49.6785ZM26.3537 49.5167C26.0301 49.5167 25.7461 49.5851 25.5016 49.7217C25.2572 49.8583 25.0522 50.0381 24.8869 50.261C24.7287 50.4839 24.6064 50.7391 24.5201 51.0268C24.441 51.3072 24.4015 51.5948 24.4015 51.8896C24.4015 52.1844 24.441 52.4757 24.5201 52.7633C24.6064 53.0437 24.7287 53.2954 24.8869 53.5183C25.0522 53.7412 25.2572 53.921 25.5016 54.0576C25.7461 54.1942 26.0301 54.2625 26.3537 54.2625C26.6773 54.2625 26.9613 54.1942 27.2058 54.0576C27.4503 53.921 27.6516 53.7412 27.8098 53.5183C27.9752 53.2954 28.0974 53.0437 28.1765 52.7633C28.2628 52.4757 28.306 52.1844 28.306 51.8896C28.306 51.5948 28.2628 51.3072 28.1765 51.0268C28.0974 50.7391 27.9752 50.4839 27.8098 50.261C27.6516 50.0381 27.4503 49.8583 27.2058 49.7217C26.9613 49.5851 26.6773 49.5167 26.3537 49.5167ZM26.3537 48.9451C26.778 48.9451 27.1519 49.0242 27.4754 49.1824C27.8062 49.3406 28.083 49.5527 28.306 49.8188C28.5289 50.0848 28.6978 50.3976 28.8129 50.7571C28.9279 51.1095 28.9855 51.487 28.9855 51.8896C28.9855 52.2923 28.9279 52.6734 28.8129 53.0329C28.6978 53.3853 28.5289 53.6945 28.306 53.9605C28.083 54.2265 27.8062 54.4387 27.4754 54.5969C27.1519 54.7479 26.778 54.8234 26.3537 54.8234C25.9295 54.8234 25.552 54.7479 25.2212 54.5969C24.8976 54.4387 24.6244 54.2265 24.4015 53.9605C24.1786 53.6945 24.0096 53.3853 23.8946 53.0329C23.7795 52.6734 23.722 52.2923 23.722 51.8896C23.722 51.487 23.7795 51.1095 23.8946 50.7571C24.0096 50.3976 24.1786 50.0848 24.4015 49.8188C24.6244 49.5527 24.8976 49.3406 25.2212 49.1824C25.552 49.0242 25.9295 48.9451 26.3537 48.9451ZM29.8878 49.1069H30.5134V50.412H30.535C30.7076 49.959 30.9736 49.6102 31.3331 49.3657C31.6999 49.1213 32.1349 49.0098 32.6382 49.0314V49.7109C32.329 49.6965 32.0486 49.7397 31.7969 49.8403C31.5453 49.9338 31.3259 50.0704 31.139 50.2502C30.9592 50.4299 30.819 50.6457 30.7183 50.8973C30.6177 51.1418 30.5673 51.4115 30.5673 51.7063V54.6724H29.8878V49.1069ZM36.5508 52.1377C36.5436 52.5332 36.6047 52.8639 36.7341 53.13C36.8636 53.396 37.0397 53.6082 37.2626 53.7664C37.4927 53.9245 37.7624 54.0396 38.0716 54.1115C38.3808 54.1762 38.7115 54.2086 39.0639 54.2086C39.2652 54.2086 39.4845 54.1798 39.7218 54.1223C39.9591 54.0648 40.1784 53.9749 40.3797 53.8526C40.5883 53.7232 40.7608 53.5614 40.8975 53.3673C41.0341 53.1659 41.1024 52.9251 41.1024 52.6446C41.1024 52.4289 41.052 52.242 40.9514 52.0838C40.8579 51.9256 40.7321 51.7926 40.5739 51.6847C40.4229 51.5768 40.2539 51.4906 40.0669 51.4258C39.88 51.3539 39.6966 51.2964 39.5169 51.2533L37.8019 50.8326C37.579 50.7751 37.3597 50.7032 37.144 50.6169C36.9355 50.5306 36.7521 50.4156 36.5939 50.2718C36.4357 50.1279 36.3063 49.9518 36.2056 49.7432C36.1121 49.5347 36.0654 49.2795 36.0654 48.9775C36.0654 48.7905 36.1014 48.5712 36.1733 48.3195C36.2452 48.0679 36.3782 47.8306 36.5723 47.6077C36.7737 47.3848 37.0469 47.1978 37.3921 47.0468C37.7372 46.8886 38.1794 46.8095 38.7187 46.8095C39.0998 46.8095 39.4629 46.8598 39.8081 46.9605C40.1532 47.0612 40.4552 47.2122 40.7141 47.4135C40.973 47.6149 41.1779 47.8665 41.3289 48.1685C41.4871 48.4633 41.5662 48.8085 41.5662 49.204H40.8327C40.8184 48.9091 40.75 48.6539 40.6278 48.4382C40.5128 48.2153 40.3582 48.0319 40.164 47.8881C39.9771 47.7371 39.7578 47.6256 39.5061 47.5537C39.2616 47.4746 39.0027 47.4351 38.7295 47.4351C38.4778 47.4351 38.2334 47.4638 37.9961 47.5214C37.766 47.5717 37.561 47.658 37.3813 47.7802C37.2087 47.8953 37.0685 48.0499 36.9606 48.244C36.8528 48.4382 36.7988 48.6791 36.7988 48.9667C36.7988 49.1464 36.8276 49.3046 36.8851 49.4412C36.9498 49.5707 37.0361 49.6821 37.144 49.7756C37.2518 49.8691 37.3741 49.9446 37.5107 50.0021C37.6545 50.0596 37.8055 50.1064 37.9637 50.1423L39.8404 50.6061C40.1137 50.678 40.3689 50.7679 40.6062 50.8758C40.8507 50.9764 41.0628 51.1059 41.2426 51.264C41.4296 51.415 41.5734 51.602 41.674 51.8249C41.7819 52.0478 41.8358 52.3175 41.8358 52.6338C41.8358 52.7201 41.825 52.8352 41.8035 52.979C41.7891 53.1228 41.7459 53.2774 41.674 53.4428C41.6093 53.601 41.5122 53.7628 41.3828 53.9281C41.2606 54.0935 41.088 54.2445 40.8651 54.3811C40.6494 54.5106 40.3797 54.6148 40.0562 54.6939C39.7326 54.7802 39.3443 54.8234 38.8913 54.8234C38.4383 54.8234 38.0176 54.773 37.6294 54.6724C37.2411 54.5645 36.9103 54.4027 36.6371 54.187C36.3638 53.9713 36.1517 53.6945 36.0007 53.3565C35.8569 53.0185 35.7958 52.6123 35.8173 52.1377H36.5508ZM42.7513 46.9713H43.4309V50.0668H43.4524C43.5819 49.7289 43.812 49.4592 44.1427 49.2579C44.4735 49.0494 44.8366 48.9451 45.2321 48.9451C45.6204 48.9451 45.9439 48.9954 46.2028 49.0961C46.4689 49.1968 46.681 49.3406 46.8392 49.5275C46.9974 49.7073 47.1088 49.9302 47.1735 50.1963C47.2382 50.4623 47.2706 50.7607 47.2706 51.0915V54.6724H46.5911V51.1993C46.5911 50.962 46.5695 50.7427 46.5264 50.5414C46.4832 50.3329 46.4077 50.1531 46.2999 50.0021C46.192 49.8511 46.0446 49.7325 45.8577 49.6462C45.6779 49.5599 45.4514 49.5167 45.1782 49.5167C44.9049 49.5167 44.6604 49.5671 44.4447 49.6677C44.2362 49.7612 44.0564 49.8943 43.9054 50.0668C43.7616 50.2322 43.6466 50.4335 43.5603 50.6708C43.4812 50.9009 43.438 51.1526 43.4309 51.4258V54.6724H42.7513V46.9713ZM50.7987 49.5167C50.4752 49.5167 50.1911 49.5851 49.9467 49.7217C49.7022 49.8583 49.4973 50.0381 49.3319 50.261C49.1737 50.4839 49.0514 50.7391 48.9652 51.0268C48.8861 51.3072 48.8465 51.5948 48.8465 51.8896C48.8465 52.1844 48.8861 52.4757 48.9652 52.7633C49.0514 53.0437 49.1737 53.2954 49.3319 53.5183C49.4973 53.7412 49.7022 53.921 49.9467 54.0576C50.1911 54.1942 50.4752 54.2625 50.7987 54.2625C51.1223 54.2625 51.4063 54.1942 51.6508 54.0576C51.8953 53.921 52.0966 53.7412 52.2548 53.5183C52.4202 53.2954 52.5424 53.0437 52.6215 52.7633C52.7078 52.4757 52.751 52.1844 52.751 51.8896C52.751 51.5948 52.7078 51.3072 52.6215 51.0268C52.5424 50.7391 52.4202 50.4839 52.2548 50.261C52.0966 50.0381 51.8953 49.8583 51.6508 49.7217C51.4063 49.5851 51.1223 49.5167 50.7987 49.5167ZM50.7987 48.9451C51.223 48.9451 51.5969 49.0242 51.9205 49.1824C52.2512 49.3406 52.5281 49.5527 52.751 49.8188C52.9739 50.0848 53.1429 50.3976 53.2579 50.7571C53.3729 51.1095 53.4305 51.487 53.4305 51.8896C53.4305 52.2923 53.3729 52.6734 53.2579 53.0329C53.1429 53.3853 52.9739 53.6945 52.751 53.9605C52.5281 54.2265 52.2512 54.4387 51.9205 54.5969C51.5969 54.7479 51.223 54.8234 50.7987 54.8234C50.3745 54.8234 49.997 54.7479 49.6662 54.5969C49.3427 54.4387 49.0694 54.2265 48.8465 53.9605C48.6236 53.6945 48.4546 53.3853 48.3396 53.0329C48.2245 52.6734 48.167 52.2923 48.167 51.8896C48.167 51.487 48.2245 51.1095 48.3396 50.7571C48.4546 50.3976 48.6236 50.0848 48.8465 49.8188C49.0694 49.5527 49.3427 49.3406 49.6662 49.1824C49.997 49.0242 50.3745 48.9451 50.7987 48.9451ZM54.3329 49.1069H54.9584V50.412H54.98C55.1526 49.959 55.4186 49.6102 55.7782 49.3657C56.1449 49.1213 56.5799 49.0098 57.0832 49.0314V49.7109C56.774 49.6965 56.4936 49.7397 56.2419 49.8403C55.9903 49.9338 55.771 50.0704 55.584 50.2502C55.4042 50.4299 55.264 50.6457 55.1634 50.8973C55.0627 51.1418 55.0124 51.4115 55.0124 51.7063V54.6724H54.3329V49.1069ZM58.7057 49.1069H59.8383V49.6785H58.7057V53.432C58.7057 53.6549 58.7345 53.8311 58.792 53.9605C58.8567 54.0827 59.0113 54.151 59.2558 54.1654C59.45 54.1654 59.6441 54.1546 59.8383 54.1331V54.7047C59.7376 54.7047 59.6369 54.7083 59.5363 54.7155C59.4356 54.7227 59.3349 54.7263 59.2342 54.7263C58.7812 54.7263 58.4649 54.64 58.2851 54.4674C58.1053 54.2877 58.019 53.9605 58.0262 53.4859V49.6785H57.0555V49.1069H58.0262V47.4351H58.7057V49.1069ZM63.7343 46.9713H68.6203V47.5969H64.4677V50.3796H68.1565V51.0052H64.4677V54.6724H63.7343V46.9713ZM71.6415 49.5167C71.3179 49.5167 71.0339 49.5851 70.7894 49.7217C70.5449 49.8583 70.34 50.0381 70.1746 50.261C70.0164 50.4839 69.8942 50.7391 69.8079 51.0268C69.7288 51.3072 69.6892 51.5948 69.6892 51.8896C69.6892 52.1844 69.7288 52.4757 69.8079 52.7633C69.8942 53.0437 70.0164 53.2954 70.1746 53.5183C70.34 53.7412 70.5449 53.921 70.7894 54.0576C71.0339 54.1942 71.3179 54.2625 71.6415 54.2625C71.965 54.2625 72.2491 54.1942 72.4935 54.0576C72.738 53.921 72.9394 53.7412 73.0975 53.5183C73.2629 53.2954 73.3852 53.0437 73.4643 52.7633C73.5506 52.4757 73.5937 52.1844 73.5937 51.8896C73.5937 51.5948 73.5506 51.3072 73.4643 51.0268C73.3852 50.7391 73.2629 50.4839 73.0975 50.261C72.9394 50.0381 72.738 49.8583 72.4935 49.7217C72.2491 49.5851 71.965 49.5167 71.6415 49.5167ZM71.6415 48.9451C72.0657 48.9451 72.4396 49.0242 72.7632 49.1824C73.094 49.3406 73.3708 49.5527 73.5937 49.8188C73.8166 50.0848 73.9856 50.3976 74.1006 50.7571C74.2157 51.1095 74.2732 51.487 74.2732 51.8896C74.2732 52.2923 74.2157 52.6734 74.1006 53.0329C73.9856 53.3853 73.8166 53.6945 73.5937 53.9605C73.3708 54.2265 73.094 54.4387 72.7632 54.5969C72.4396 54.7479 72.0657 54.8234 71.6415 54.8234C71.2172 54.8234 70.8397 54.7479 70.509 54.5969C70.1854 54.4387 69.9121 54.2265 69.6892 53.9605C69.4663 53.6945 69.2973 53.3853 69.1823 53.0329C69.0673 52.6734 69.0097 52.2923 69.0097 51.8896C69.0097 51.487 69.0673 51.1095 69.1823 50.7571C69.2973 50.3976 69.4663 50.0848 69.6892 49.8188C69.9121 49.5527 70.1854 49.3406 70.509 49.1824C70.8397 49.0242 71.2172 48.9451 71.6415 48.9451ZM75.1756 49.1069H75.8012V50.412H75.8227C75.9953 49.959 76.2614 49.6102 76.6209 49.3657C76.9876 49.1213 77.4226 49.0098 77.926 49.0314V49.7109C77.6168 49.6965 77.3363 49.7397 77.0847 49.8403C76.833 49.9338 76.6137 50.0704 76.4267 50.2502C76.247 50.4299 76.1068 50.6457 76.0061 50.8973C75.9054 51.1418 75.8551 51.4115 75.8551 51.7063V54.6724H75.1756V49.1069ZM78.4699 49.1069H79.0955V50.0453H79.1278C79.3076 49.7001 79.5413 49.4305 79.8289 49.2363C80.1237 49.0422 80.4976 48.9451 80.9506 48.9451C81.3173 48.9451 81.6481 49.035 81.9429 49.2147C82.2449 49.3945 82.4463 49.6677 82.5469 50.0345C82.7123 49.6677 82.9568 49.3945 83.2804 49.2147C83.6039 49.035 83.9491 48.9451 84.3158 48.9451C85.5454 48.9451 86.1602 49.5958 86.1602 50.8973V54.6724H85.4807V50.9297C85.4807 50.4695 85.3836 50.1208 85.1894 49.8835C84.9953 49.639 84.6538 49.5167 84.1648 49.5167C83.87 49.5167 83.6255 49.5743 83.4314 49.6893C83.2372 49.7972 83.0826 49.9446 82.9676 50.1315C82.8525 50.3185 82.7698 50.5342 82.7195 50.7787C82.6764 51.016 82.6548 51.264 82.6548 51.5229V54.6724H81.9753V50.8973C81.9753 50.7104 81.9537 50.5342 81.9106 50.3688C81.8746 50.1963 81.8099 50.0488 81.7164 49.9266C81.6301 49.7972 81.5115 49.6965 81.3605 49.6246C81.2095 49.5527 81.0261 49.5167 80.8104 49.5167C80.5228 49.5167 80.2711 49.5707 80.0554 49.6785C79.8469 49.7792 79.6743 49.923 79.5377 50.11C79.4083 50.2897 79.3112 50.5054 79.2465 50.7571C79.1818 51.0016 79.1494 51.2712 79.1494 51.5661V54.6724H78.4699V49.1069ZM89.5289 46.9713H90.3055L92.8078 53.8634H92.8293L95.3101 46.9713H96.0867L93.2284 54.6724H92.3763L89.5289 46.9713ZM99.9381 51.5013C99.9309 51.2425 99.8842 50.9944 99.7979 50.7571C99.7188 50.5198 99.6038 50.3113 99.4527 50.1315C99.3017 49.9446 99.1184 49.7972 98.9027 49.6893C98.687 49.5743 98.4425 49.5167 98.1692 49.5167C97.8888 49.5167 97.6407 49.5743 97.425 49.6893C97.2093 49.7972 97.0259 49.9446 96.8749 50.1315C96.7239 50.3113 96.6017 50.5234 96.5082 50.7679C96.4219 51.0052 96.3644 51.2497 96.3357 51.5013H99.9381ZM96.3357 52.073C96.3357 52.3175 96.368 52.5727 96.4327 52.8388C96.5046 53.0976 96.6161 53.3313 96.7671 53.5399C96.9181 53.7484 97.1086 53.921 97.3387 54.0576C97.5688 54.1942 97.8457 54.2625 98.1692 54.2625C98.6654 54.2625 99.0537 54.1331 99.3341 53.8742C99.6145 53.6154 99.8087 53.2702 99.9165 52.8388H100.596C100.452 53.4715 100.186 53.9605 99.7979 54.3056C99.4168 54.6508 98.8739 54.8234 98.1692 54.8234C97.7306 54.8234 97.3495 54.7479 97.0259 54.5969C96.7096 54.4387 96.4507 54.2265 96.2494 53.9605C96.048 53.6873 95.897 53.3745 95.7964 53.0221C95.7029 52.6626 95.6561 52.2851 95.6561 51.8896C95.6561 51.5229 95.7029 51.1634 95.7964 50.811C95.897 50.4587 96.048 50.1459 96.2494 49.8727C96.4507 49.5922 96.7096 49.3693 97.0259 49.204C97.3495 49.0314 97.7306 48.9451 98.1692 48.9451C98.6151 48.9451 98.9962 49.035 99.3125 49.2147C99.6289 49.3945 99.8842 49.6318 100.078 49.9266C100.28 50.2142 100.423 50.5486 100.51 50.9297C100.596 51.3036 100.632 51.6847 100.618 52.073H96.3357ZM101.422 49.1069H102.047V50.412H102.069C102.241 49.959 102.508 49.6102 102.867 49.3657C103.234 49.1213 103.669 49.0098 104.172 49.0314V49.7109C103.863 49.6965 103.583 49.7397 103.331 49.8403C103.079 49.9338 102.86 50.0704 102.673 50.2502C102.493 50.4299 102.353 50.6457 102.252 50.8973C102.152 51.1418 102.101 51.4115 102.101 51.7063V54.6724H101.422V49.1069ZM105.795 49.1069H106.927V49.6785H105.795V53.432C105.795 53.6549 105.823 53.8311 105.881 53.9605C105.946 54.0827 106.1 54.151 106.345 54.1654C106.539 54.1654 106.733 54.1546 106.927 54.1331V54.7047C106.826 54.7047 106.726 54.7083 106.625 54.7155C106.524 54.7227 106.424 54.7263 106.323 54.7263C105.87 54.7263 105.554 54.64 105.374 54.4674C105.194 54.2877 105.108 53.9605 105.115 53.4859V49.6785H104.144V49.1069H105.115V47.4351H105.795V49.1069ZM107.81 46.9713H108.49V48.0607H107.81V46.9713ZM107.81 49.1069H108.49V54.6724H107.81V49.1069ZM113.609 50.8542C113.515 50.4371 113.343 50.11 113.091 49.8727C112.839 49.6354 112.487 49.5167 112.034 49.5167C111.71 49.5167 111.426 49.5851 111.182 49.7217C110.937 49.8583 110.732 50.0381 110.567 50.261C110.409 50.4839 110.287 50.7391 110.2 51.0268C110.121 51.3072 110.082 51.5948 110.082 51.8896C110.082 52.1844 110.121 52.4757 110.2 52.7633C110.287 53.0437 110.409 53.2954 110.567 53.5183C110.732 53.7412 110.937 53.921 111.182 54.0576C111.426 54.1942 111.71 54.2625 112.034 54.2625C112.242 54.2625 112.44 54.223 112.627 54.1439C112.814 54.0648 112.979 53.9569 113.123 53.8203C113.267 53.6765 113.386 53.5075 113.479 53.3134C113.573 53.1192 113.63 52.9071 113.652 52.677H114.331C114.238 53.3529 113.99 53.8814 113.587 54.2625C113.184 54.6364 112.667 54.8234 112.034 54.8234C111.61 54.8234 111.232 54.7479 110.901 54.5969C110.578 54.4387 110.305 54.2265 110.082 53.9605C109.859 53.6945 109.69 53.3853 109.575 53.0329C109.46 52.6734 109.402 52.2923 109.402 51.8896C109.402 51.487 109.46 51.1095 109.575 50.7571C109.69 50.3976 109.859 50.0848 110.082 49.8188C110.305 49.5527 110.578 49.3406 110.901 49.1824C111.232 49.0242 111.61 48.9451 112.034 48.9451C112.631 48.9451 113.134 49.1033 113.544 49.4197C113.961 49.7361 114.209 50.2142 114.288 50.8542H113.609ZM115.103 50.811C115.125 50.4875 115.193 50.207 115.308 49.9698C115.423 49.7325 115.578 49.5383 115.772 49.3873C115.973 49.2363 116.207 49.1249 116.473 49.053C116.739 48.9811 117.034 48.9451 117.357 48.9451C117.602 48.9451 117.846 48.9703 118.091 49.0206C118.335 49.0637 118.554 49.15 118.749 49.2795C118.943 49.4089 119.101 49.5922 119.223 49.8295C119.345 50.0596 119.407 50.3616 119.407 50.7355V53.6909C119.407 53.9641 119.54 54.1007 119.806 54.1007C119.885 54.1007 119.957 54.0863 120.021 54.0576V54.6292C119.942 54.6436 119.87 54.6544 119.806 54.6616C119.748 54.6688 119.673 54.6724 119.579 54.6724C119.407 54.6724 119.266 54.6508 119.158 54.6076C119.058 54.5573 118.979 54.489 118.921 54.4027C118.864 54.3164 118.824 54.2158 118.803 54.1007C118.788 53.9785 118.781 53.8455 118.781 53.7016H118.759C118.637 53.8814 118.511 54.0432 118.382 54.187C118.26 54.3236 118.119 54.4387 117.961 54.5321C117.81 54.6256 117.634 54.6975 117.433 54.7479C117.239 54.7982 117.005 54.8234 116.732 54.8234C116.473 54.8234 116.228 54.791 115.998 54.7263C115.775 54.6688 115.578 54.5753 115.405 54.4459C115.24 54.3092 115.107 54.1403 115.006 53.9389C114.912 53.7304 114.866 53.4859 114.866 53.2055C114.866 52.8172 114.952 52.5152 115.125 52.2995C115.297 52.0766 115.524 51.9076 115.804 51.7926C116.092 51.6775 116.412 51.5984 116.764 51.5553C117.124 51.5049 117.487 51.4582 117.853 51.415C117.997 51.4007 118.123 51.3827 118.231 51.3611C118.339 51.3395 118.429 51.3036 118.501 51.2533C118.572 51.1957 118.626 51.1202 118.662 51.0268C118.705 50.9333 118.727 50.811 118.727 50.66C118.727 50.4299 118.688 50.243 118.608 50.0992C118.537 49.9482 118.432 49.8295 118.296 49.7432C118.166 49.657 118.012 49.5994 117.832 49.5707C117.659 49.5347 117.472 49.5167 117.271 49.5167C116.84 49.5167 116.487 49.621 116.214 49.8295C115.941 50.0309 115.797 50.358 115.783 50.811H115.103ZM118.727 51.6308H118.705C118.662 51.7099 118.58 51.7674 118.457 51.8033C118.335 51.8393 118.227 51.8645 118.134 51.8788C117.846 51.9292 117.548 51.9759 117.239 52.0191C116.937 52.055 116.66 52.1125 116.408 52.1916C116.156 52.2707 115.948 52.3858 115.783 52.5368C115.624 52.6806 115.545 52.8891 115.545 53.1624C115.545 53.3349 115.578 53.4895 115.642 53.6261C115.714 53.7556 115.808 53.8706 115.923 53.9713C116.038 54.0648 116.171 54.1367 116.322 54.187C116.473 54.2373 116.627 54.2625 116.786 54.2625C117.044 54.2625 117.293 54.223 117.53 54.1439C117.767 54.0648 117.972 53.9497 118.145 53.7987C118.324 53.6477 118.465 53.4644 118.565 53.2486C118.673 53.0329 118.727 52.7884 118.727 52.5152V51.6308ZM120.664 46.9713H121.343V54.6724H120.664V46.9713ZM124.718 46.9713H125.495L127.997 53.8634H128.018L130.499 46.9713H131.276L128.418 54.6724H127.565L124.718 46.9713ZM131.79 46.9713H132.469V48.0607H131.79V46.9713ZM131.79 49.1069H132.469V54.6724H131.79V49.1069ZM138.558 54.6724H137.933V53.6154H137.911C137.839 53.7951 137.731 53.9605 137.588 54.1115C137.451 54.2625 137.293 54.3919 137.113 54.4998C136.933 54.6005 136.739 54.6796 136.531 54.7371C136.329 54.7946 136.128 54.8234 135.927 54.8234C135.502 54.8234 135.132 54.7479 134.816 54.5969C134.507 54.4387 134.248 54.2265 134.039 53.9605C133.831 53.6873 133.676 53.3745 133.575 53.0221C133.475 52.6626 133.424 52.2851 133.424 51.8896C133.424 51.4941 133.475 51.1202 133.575 50.7679C133.676 50.4084 133.831 50.0956 134.039 49.8295C134.248 49.5563 134.507 49.3406 134.816 49.1824C135.132 49.0242 135.502 48.9451 135.927 48.9451C136.135 48.9451 136.336 48.9703 136.531 49.0206C136.732 49.0709 136.919 49.15 137.092 49.2579C137.264 49.3586 137.415 49.4844 137.545 49.6354C137.681 49.7864 137.785 49.9626 137.857 50.1639H137.879V46.9713H138.558V54.6724ZM134.104 51.8896C134.104 52.1772 134.136 52.4649 134.201 52.7525C134.273 53.0329 134.381 53.2846 134.524 53.5075C134.675 53.7304 134.866 53.9138 135.096 54.0576C135.326 54.1942 135.603 54.2625 135.927 54.2625C136.286 54.2625 136.588 54.1942 136.833 54.0576C137.084 53.9138 137.286 53.7304 137.437 53.5075C137.595 53.2846 137.706 53.0329 137.771 52.7525C137.843 52.4649 137.879 52.1772 137.879 51.8896C137.879 51.602 137.843 51.318 137.771 51.0375C137.706 50.7499 137.595 50.4947 137.437 50.2718C137.286 50.0488 137.084 49.8691 136.833 49.7325C136.588 49.5887 136.286 49.5167 135.927 49.5167C135.603 49.5167 135.326 49.5887 135.096 49.7325C134.866 49.8691 134.675 50.0488 134.524 50.2718C134.381 50.4947 134.273 50.7499 134.201 51.0375C134.136 51.318 134.104 51.602 134.104 51.8896ZM143.749 51.5013C143.742 51.2425 143.695 50.9944 143.608 50.7571C143.529 50.5198 143.414 50.3113 143.263 50.1315C143.112 49.9446 142.929 49.7972 142.713 49.6893C142.498 49.5743 142.253 49.5167 141.98 49.5167C141.699 49.5167 141.451 49.5743 141.236 49.6893C141.02 49.7972 140.837 49.9446 140.686 50.1315C140.535 50.3113 140.412 50.5234 140.319 50.7679C140.233 51.0052 140.175 51.2497 140.146 51.5013H143.749ZM140.146 52.073C140.146 52.3175 140.179 52.5727 140.243 52.8388C140.315 53.0976 140.427 53.3313 140.578 53.5399C140.729 53.7484 140.919 53.921 141.149 54.0576C141.379 54.1942 141.656 54.2625 141.98 54.2625C142.476 54.2625 142.864 54.1331 143.145 53.8742C143.425 53.6154 143.619 53.2702 143.727 52.8388H144.407C144.263 53.4715 143.997 53.9605 143.608 54.3056C143.227 54.6508 142.685 54.8234 141.98 54.8234C141.541 54.8234 141.16 54.7479 140.837 54.5969C140.52 54.4387 140.261 54.2265 140.06 53.9605C139.859 53.6873 139.708 53.3745 139.607 53.0221C139.513 52.6626 139.467 52.2851 139.467 51.8896C139.467 51.5229 139.513 51.1634 139.607 50.811C139.708 50.4587 139.859 50.1459 140.06 49.8727C140.261 49.5922 140.52 49.3693 140.837 49.204C141.16 49.0314 141.541 48.9451 141.98 48.9451C142.426 48.9451 142.807 49.035 143.123 49.2147C143.44 49.3945 143.695 49.6318 143.889 49.9266C144.09 50.2142 144.234 50.5486 144.32 50.9297C144.407 51.3036 144.443 51.6847 144.428 52.073H140.146ZM147.584 49.5167C147.26 49.5167 146.976 49.5851 146.732 49.7217C146.487 49.8583 146.282 50.0381 146.117 50.261C145.959 50.4839 145.836 50.7391 145.75 51.0268C145.671 51.3072 145.631 51.5948 145.631 51.8896C145.631 52.1844 145.671 52.4757 145.75 52.7633C145.836 53.0437 145.959 53.2954 146.117 53.5183C146.282 53.7412 146.487 53.921 146.732 54.0576C146.976 54.1942 147.26 54.2625 147.584 54.2625C147.907 54.2625 148.191 54.1942 148.436 54.0576C148.68 53.921 148.882 53.7412 149.04 53.5183C149.205 53.2954 149.327 53.0437 149.406 52.7633C149.493 52.4757 149.536 52.1844 149.536 51.8896C149.536 51.5948 149.493 51.3072 149.406 51.0268C149.327 50.7391 149.205 50.4839 149.04 50.261C148.882 50.0381 148.68 49.8583 148.436 49.7217C148.191 49.5851 147.907 49.5167 147.584 49.5167ZM147.584 48.9451C148.008 48.9451 148.382 49.0242 148.705 49.1824C149.036 49.3406 149.313 49.5527 149.536 49.8188C149.759 50.0848 149.928 50.3976 150.043 50.7571C150.158 51.1095 150.215 51.487 150.215 51.8896C150.215 52.2923 150.158 52.6734 150.043 53.0329C149.928 53.3853 149.759 53.6945 149.536 53.9605C149.313 54.2265 149.036 54.4387 148.705 54.5969C148.382 54.7479 148.008 54.8234 147.584 54.8234C147.159 54.8234 146.782 54.7479 146.451 54.5969C146.128 54.4387 145.854 54.2265 145.631 53.9605C145.409 53.6945 145.24 53.3853 145.124 53.0329C145.009 52.6734 144.952 52.2923 144.952 51.8896C144.952 51.487 145.009 51.1095 145.124 50.7571C145.24 50.3976 145.409 50.0848 145.631 49.8188C145.854 49.5527 146.128 49.3406 146.451 49.1824C146.782 49.0242 147.159 48.9451 147.584 48.9451Z" fill="black"/>
<rect x="20.6719" y="91.9292" width="21.5716" height="70.1077" fill="#A36CEB"/>
<rect x="58.4219" y="115.299" width="21.5716" height="46.7385" fill="#7B76FF"/>
<rect x="96.1719" y="139.567" width="21.5716" height="22.4704" fill="#54A2E4"/>
<rect x="133.93" y="151.251" width="21.5716" height="10.7858" fill="#24C6A0"/>
<path d="M31.3287 80.6653V81.1836H26.0895V80.833L29.5095 75.6547H30.0177L29.2961 76.9099L26.8314 80.6653H31.3287ZM30.1752 75.6547V83.0537H29.5705V75.6547H30.1752ZM36.6672 75.6547V76.0054L33.5064 83.0537H32.8762L36.0167 76.1781H31.804V75.6547H36.6672Z" fill="black"/>
<path d="M65.0901 103.289H65.7101C66.0895 103.289 66.4063 103.224 66.6604 103.096C66.9178 102.964 67.1109 102.789 67.2397 102.572C67.3718 102.356 67.4379 102.115 67.4379 101.851C67.4379 101.553 67.382 101.292 67.2702 101.068C67.1584 100.841 66.9873 100.665 66.7569 100.54C66.5299 100.411 66.2386 100.347 65.8829 100.347C65.5712 100.347 65.2934 100.408 65.0495 100.529C64.8055 100.651 64.6124 100.826 64.4701 101.053C64.3279 101.28 64.2567 101.551 64.2567 101.866H63.652C63.652 101.463 63.7485 101.109 63.9416 100.804C64.1347 100.496 64.4007 100.255 64.7395 100.082C65.0783 99.9095 65.4594 99.8231 65.8829 99.8231C66.3199 99.8231 66.6993 99.9027 67.0212 100.062C67.3464 100.221 67.5971 100.453 67.7733 100.758C67.9528 101.063 68.0426 101.434 68.0426 101.871C68.0426 102.095 67.9935 102.315 67.8952 102.532C67.8004 102.748 67.6581 102.945 67.4684 103.121C67.2786 103.294 67.0432 103.433 66.762 103.538C66.4808 103.643 66.1539 103.695 65.7812 103.695H65.0901V103.289ZM65.0901 103.812V103.411H65.7812C66.2047 103.411 66.5672 103.46 66.8687 103.558C67.1702 103.653 67.4175 103.789 67.6106 103.965C67.8071 104.137 67.9511 104.339 68.0426 104.569C68.1341 104.8 68.1798 105.047 68.1798 105.311C68.1798 105.65 68.1239 105.95 68.0121 106.211C67.9003 106.472 67.7411 106.694 67.5344 106.877C67.3311 107.056 67.0906 107.193 66.8128 107.288C66.5384 107.38 66.2369 107.425 65.9083 107.425C65.6101 107.425 65.3188 107.381 65.0342 107.293C64.753 107.205 64.4989 107.075 64.272 106.902C64.0484 106.726 63.8705 106.506 63.7384 106.241C63.6063 105.974 63.5402 105.665 63.5402 105.316H64.1449C64.1449 105.628 64.2194 105.904 64.3685 106.145C64.5176 106.382 64.7242 106.568 64.9885 106.704C65.2561 106.836 65.5627 106.902 65.9083 106.902C66.2572 106.902 66.5553 106.843 66.8027 106.724C67.0533 106.602 67.2448 106.424 67.3769 106.191C67.509 105.957 67.5751 105.67 67.5751 105.332C67.5751 104.976 67.4955 104.686 67.3362 104.463C67.1804 104.239 66.9619 104.075 66.6807 103.97C66.4029 103.865 66.0794 103.812 65.7101 103.812H65.0901ZM72.9034 99.8689H72.9897V100.402H72.9034C72.4358 100.402 72.0191 100.479 71.6532 100.631C71.2908 100.784 70.9842 101.004 70.7335 101.292C70.4861 101.576 70.2981 101.922 70.1694 102.328C70.0407 102.735 69.9763 103.191 69.9763 103.695V104.717C69.9763 105.059 70.022 105.366 70.1135 105.637C70.205 105.904 70.332 106.133 70.4946 106.323C70.6572 106.512 70.847 106.656 71.0638 106.755C71.2806 106.853 71.5143 106.902 71.765 106.902C72.0124 106.902 72.2343 106.851 72.4308 106.749C72.6272 106.648 72.7932 106.506 72.9288 106.323C73.0677 106.14 73.1727 105.93 73.2438 105.692C73.3184 105.452 73.3556 105.194 73.3556 104.92C73.3556 104.659 73.3217 104.414 73.254 104.183C73.1896 103.949 73.0897 103.743 72.9542 103.563C72.8187 103.384 72.6493 103.243 72.446 103.141C72.2427 103.04 72.0039 102.989 71.7295 102.989C71.4178 102.989 71.1264 103.06 70.8554 103.202C70.5844 103.345 70.3625 103.534 70.1897 103.772C70.0203 104.009 69.9305 104.268 69.9204 104.549L69.5697 104.544C69.5935 104.226 69.6663 103.939 69.7883 103.685C69.9102 103.428 70.0711 103.209 70.271 103.03C70.4743 102.847 70.7064 102.708 70.9672 102.613C71.2315 102.515 71.516 102.466 71.8209 102.466C72.1767 102.466 72.4867 102.53 72.7509 102.659C73.0185 102.787 73.2404 102.965 73.4166 103.192C73.5962 103.416 73.73 103.675 73.8181 103.97C73.9095 104.261 73.9553 104.569 73.9553 104.895C73.9553 105.25 73.9045 105.582 73.8028 105.891C73.7046 106.196 73.5589 106.463 73.3658 106.694C73.1761 106.924 72.9457 107.104 72.6747 107.232C72.407 107.361 72.1038 107.425 71.765 107.425C71.3924 107.425 71.0587 107.354 70.7639 107.212C70.4692 107.07 70.2168 106.873 70.0068 106.622C69.8001 106.372 69.6409 106.084 69.5291 105.759C69.4207 105.43 69.3665 105.079 69.3665 104.707V104.056C69.3665 103.426 69.4393 102.855 69.585 102.344C69.7307 101.829 69.9492 101.387 70.2405 101.017C70.5353 100.648 70.9028 100.365 71.3433 100.169C71.7871 99.9688 72.3071 99.8689 72.9034 99.8689Z" fill="black"/>
<path d="M106.567 128.371V128.894H101.937V128.421L104.361 125.672C104.663 125.33 104.903 125.03 105.083 124.773C105.263 124.512 105.391 124.275 105.469 124.061C105.551 123.845 105.591 123.634 105.591 123.431C105.591 123.133 105.532 122.871 105.413 122.644C105.298 122.417 105.125 122.239 104.895 122.11C104.665 121.981 104.38 121.917 104.041 121.917C103.702 121.917 103.408 121.99 103.157 122.135C102.906 122.281 102.713 122.484 102.578 122.745C102.446 123.003 102.38 123.296 102.38 123.624H101.775C101.775 123.218 101.865 122.845 102.044 122.506C102.227 122.168 102.488 121.898 102.827 121.698C103.165 121.495 103.57 121.393 104.041 121.393C104.488 121.393 104.873 121.473 105.195 121.632C105.517 121.788 105.764 122.013 105.937 122.308C106.113 122.603 106.201 122.959 106.201 123.375C106.201 123.599 106.16 123.824 106.079 124.051C106.001 124.278 105.893 124.505 105.754 124.732C105.618 124.956 105.462 125.178 105.286 125.398C105.113 125.618 104.932 125.835 104.743 126.048L102.679 128.371H106.567ZM108.495 125.235L108.018 125.098L108.379 121.495H112.078V122.064H108.897L108.638 124.554C108.766 124.463 108.953 124.373 109.197 124.285C109.444 124.193 109.722 124.148 110.03 124.148C110.359 124.148 110.657 124.204 110.925 124.315C111.196 124.424 111.428 124.583 111.621 124.793C111.814 125 111.963 125.25 112.068 125.545C112.173 125.837 112.225 126.167 112.225 126.536C112.225 126.892 112.181 127.219 112.093 127.517C112.005 127.815 111.871 128.076 111.692 128.299C111.512 128.52 111.284 128.691 111.006 128.813C110.728 128.935 110.398 128.996 110.015 128.996C109.72 128.996 109.442 128.955 109.181 128.874C108.924 128.789 108.694 128.662 108.49 128.493C108.287 128.323 108.121 128.11 107.992 127.852C107.867 127.595 107.789 127.293 107.759 126.948H108.343C108.384 127.28 108.473 127.559 108.612 127.786C108.751 128.013 108.938 128.184 109.171 128.299C109.408 128.415 109.69 128.472 110.015 128.472C110.279 128.472 110.51 128.43 110.706 128.345C110.906 128.261 111.072 128.137 111.204 127.974C111.34 127.808 111.441 127.607 111.509 127.37C111.58 127.129 111.616 126.855 111.616 126.546C111.616 126.282 111.578 126.04 111.504 125.82C111.429 125.596 111.319 125.401 111.174 125.235C111.031 125.066 110.855 124.935 110.645 124.844C110.435 124.752 110.194 124.707 109.923 124.707C109.571 124.707 109.29 124.754 109.08 124.849C108.873 124.944 108.678 125.073 108.495 125.235Z" fill="black"/>
<path d="M146.962 139.09V139.608H141.723V139.257L145.143 134.079H145.651L144.93 135.334L142.465 139.09H146.962ZM145.809 134.079V141.478H145.204V134.079H145.809Z" fill="black"/>
</g>
<defs>
<filter id="filter0_d_4522_63810" x="-0.00265747" y="-0.000216067" width="171.349" height="182.709" filterUnits="userSpaceOnUse" color-interpolation-filters="sRGB">
<feFlood flood-opacity="0" result="BackgroundImageFix"/>
<feColorMatrix in="SourceAlpha" type="matrix" values="0 0 0 0 0 0 0 0 0 0 0 0 0 0 0 0 0 0 127 0" result="hardAlpha"/>
<feMorphology radius="0.898817" operator="dilate" in="SourceAlpha" result="effect1_dropShadow_4522_63810"/>
<feOffset/>
<feGaussianBlur stdDeviation="2.69645"/>
<feColorMatrix type="matrix" values="0 0 0 0 0 0 0 0 0 0 0 0 0 0 0 0 0 0 0.25 0"/>
<feBlend mode="normal" in2="BackgroundImageFix" result="effect1_dropShadow_4522_63810"/>
<feBlend mode="normal" in="SourceGraphic" in2="effect1_dropShadow_4522_63810" result="shape"/>
</filter>
</defs>
</svg>
