<svg width="15" height="22" viewBox="0 0 15 22" fill="none" xmlns="http://www.w3.org/2000/svg">
<g clip-path="url(#clip0_2_7543)">
<path d="M3.86782 5.53252C4.79584 5.53252 5.54815 4.78021 5.54815 3.8522C5.54815 2.92418 4.79584 2.17188 3.86782 2.17188C2.93981 2.17188 2.1875 2.92418 2.1875 3.8522C2.1875 4.78021 2.93981 5.53252 3.86782 5.53252Z" fill="#026BC4"/>
<path d="M7.64712 9.31231C8.57514 9.31231 9.32744 8.56 9.32744 7.63198C9.32744 6.70397 8.57514 5.95166 7.64712 5.95166C6.7191 5.95166 5.9668 6.70397 5.9668 7.63198C5.9668 8.56 6.7191 9.31231 7.64712 9.31231Z" fill="#026BC4"/>
<path d="M3.86782 20.6502C4.79584 20.6502 5.54815 19.8979 5.54815 18.9699C5.54815 18.0419 4.79584 17.2896 3.86782 17.2896C2.93981 17.2896 2.1875 18.0419 2.1875 18.9699C2.1875 19.8979 2.93981 20.6502 3.86782 20.6502Z" fill="#026BC4"/>
<path d="M7.64712 16.8714C8.57514 16.8714 9.32744 16.1191 9.32744 15.1911C9.32744 14.263 8.57514 13.5107 7.64712 13.5107C6.7191 13.5107 5.9668 14.263 5.9668 15.1911C5.9668 16.1191 6.7191 16.8714 7.64712 16.8714Z" fill="#026BC4"/>
<path d="M11.4284 13.0921C12.3564 13.0921 13.1087 12.3398 13.1087 11.4118C13.1087 10.4838 12.3564 9.73145 11.4284 9.73145C10.5004 9.73145 9.74805 10.4838 9.74805 11.4118C9.74805 12.3398 10.5004 13.0921 11.4284 13.0921Z" fill="#026BC4"/>
</g>
<defs>
<clipPath id="clip0_2_7543">
<rect width="14.2353" height="22" fill="white"/>
</clipPath>
</defs>
</svg>
