<svg width="149" height="130" viewBox="0 0 149 130" fill="none" xmlns="http://www.w3.org/2000/svg">
<g filter="url(#filter0_d_4522_63790)">
<rect x="3.59375" y="3.59521" width="141.114" height="122.239" rx="7.19054" fill="white" shape-rendering="crispEdges"/>
<path d="M37.211 37.3639C37.3428 37.3903 37.4614 37.4035 37.5669 37.4035C37.6987 37.4035 37.8305 37.4035 37.9624 37.4035H38.6742C39.3861 37.4035 40.0584 37.3112 40.6912 37.1267C41.3503 36.9157 41.9172 36.6257 42.3917 36.2566C42.8927 35.8611 43.2882 35.3734 43.5782 34.7933C43.8682 34.2133 44.0132 33.5542 44.0132 32.8159C44.0132 31.3131 43.5386 30.1926 42.5895 29.4543C41.6403 28.6898 40.4539 28.3075 39.0302 28.3075C38.1337 28.3075 37.3428 28.4788 36.6573 28.8216C35.9982 29.138 35.4445 29.573 34.9963 30.1267C34.5744 30.6803 34.258 31.3263 34.0471 32.0645C33.8362 32.8027 33.7307 33.5805 33.7307 34.3978H30.3692C30.4219 33.0532 30.6328 31.8272 31.0019 30.7199C31.3974 29.6125 31.9511 28.6634 32.6629 27.8724C33.3748 27.0815 34.258 26.4619 35.3127 26.0137C36.3936 25.5655 37.6328 25.3414 39.0302 25.3414C40.243 25.3414 41.3635 25.4996 42.3917 25.8159C43.4464 26.106 44.356 26.5542 45.1206 27.1606C45.8851 27.767 46.4784 28.5447 46.9002 29.4939C47.3484 30.443 47.5725 31.5636 47.5725 32.8555C47.5725 34.121 47.2034 35.2415 46.4652 36.217C45.727 37.1926 44.8042 37.9308 43.6968 38.4317V38.5108C45.4106 38.8799 46.6761 39.6841 47.4934 40.9233C48.3371 42.1624 48.759 43.6257 48.759 45.3131C48.759 46.7104 48.4953 47.9496 47.968 49.0306C47.4671 50.0852 46.7816 50.9684 45.9115 51.6803C45.0415 52.3922 44.0132 52.9326 42.8268 53.3018C41.6667 53.6445 40.4275 53.8159 39.1093 53.8159C37.6855 53.8159 36.3936 53.6181 35.2336 53.2227C34.0735 52.8272 33.0848 52.2472 32.2675 51.4826C31.4501 50.6916 30.8174 49.7293 30.3692 48.5956C29.9473 47.4618 29.7496 46.1699 29.7759 44.7199H33.1375C33.1903 46.5391 33.7176 48.0287 34.7194 49.1888C35.7213 50.3225 37.1846 50.8893 39.1093 50.8893C39.9266 50.8893 40.7044 50.7707 41.4426 50.5334C42.1808 50.2698 42.8268 49.9138 43.3804 49.4656C43.9341 48.991 44.3691 48.4242 44.6855 47.7651C45.0283 47.0796 45.1996 46.315 45.1996 45.4713C45.1996 44.6012 45.0415 43.8366 44.7251 43.1775C44.4087 42.492 43.9868 41.9251 43.4595 41.4769C42.9322 41.0024 42.2995 40.6596 41.5612 40.4487C40.8494 40.2114 40.0716 40.0927 39.2279 40.0927C38.516 40.0927 37.8437 40.1323 37.211 40.2114V37.3639ZM55.3897 39.5786C55.3897 40.6332 55.4161 41.8197 55.4688 43.1379C55.5479 44.4298 55.7588 45.6558 56.1016 46.8159C56.4707 47.9496 57.0507 48.9119 57.8417 49.7029C58.6327 50.4939 59.74 50.8893 61.1637 50.8893C62.5875 50.8893 63.6948 50.4939 64.4858 49.7029C65.2767 48.9119 65.8436 47.9496 66.1863 46.8159C66.5554 45.6558 66.7664 44.4298 66.8191 43.1379C66.8982 41.8197 66.9377 40.6332 66.9377 39.5786C66.9377 38.8931 66.9246 38.1417 66.8982 37.3244C66.8982 36.4807 66.8323 35.6502 66.7004 34.8329C66.595 33.9892 66.4236 33.1719 66.1863 32.3809C65.9754 31.5899 65.6458 30.9044 65.1976 30.3244C64.7758 29.718 64.2353 29.2302 63.5762 28.8611C62.917 28.492 62.1129 28.3075 61.1637 28.3075C60.2146 28.3075 59.4104 28.492 58.7513 28.8611C58.0922 29.2302 57.5385 29.718 57.0903 30.3244C56.6685 30.9044 56.3389 31.5899 56.1016 32.3809C55.8907 33.1719 55.7193 33.9892 55.5875 34.8329C55.482 35.6502 55.4161 36.4807 55.3897 37.3244C55.3897 38.1417 55.3897 38.8931 55.3897 39.5786ZM51.8304 39.6182C51.8304 38.5899 51.8568 37.5221 51.9095 36.4148C51.9622 35.3074 52.0941 34.2265 52.305 33.1719C52.5159 32.1172 52.8191 31.1154 53.2146 30.1662C53.6101 29.2171 54.1506 28.3866 54.8361 27.6747C55.5216 26.9628 56.3784 26.396 57.4067 25.9741C58.4613 25.5523 59.7136 25.3414 61.1637 25.3414C62.6138 25.3414 63.853 25.5523 64.8812 25.9741C65.9359 26.396 66.8059 26.9628 67.4914 27.6747C68.1769 28.3866 68.7174 29.2171 69.1129 30.1662C69.5084 31.1154 69.8116 32.1172 70.0225 33.1719C70.2334 34.2265 70.3652 35.3074 70.418 36.4148C70.4707 37.5221 70.497 38.5899 70.497 39.6182C70.497 40.6464 70.4707 41.7142 70.418 42.8216C70.3652 43.9289 70.2334 45.0099 70.0225 46.0645C69.8116 47.1191 69.5084 48.121 69.1129 49.0701C68.7174 49.9929 68.1769 50.8102 67.4914 51.5221C66.8059 52.234 65.949 52.8008 64.9208 53.2227C63.8925 53.6181 62.6402 53.8159 61.1637 53.8159C59.7136 53.8159 58.4613 53.6181 57.4067 53.2227C56.3784 52.8008 55.5216 52.234 54.8361 51.5221C54.1506 50.8102 53.6101 49.9929 53.2146 49.0701C52.8191 48.121 52.5159 47.1191 52.305 46.0645C52.0941 45.0099 51.9622 43.9289 51.9095 42.8216C51.8568 41.7142 51.8304 40.6464 51.8304 39.6182ZM76.9696 39.5786C76.9696 40.6332 76.996 41.8197 77.0487 43.1379C77.1278 44.4298 77.3387 45.6558 77.6815 46.8159C78.0506 47.9496 78.6306 48.9119 79.4216 49.7029C80.2126 50.4939 81.3199 50.8893 82.7436 50.8893C84.1674 50.8893 85.2747 50.4939 86.0657 49.7029C86.8566 48.9119 87.4235 47.9496 87.7662 46.8159C88.1353 45.6558 88.3463 44.4298 88.399 43.1379C88.4781 41.8197 88.5176 40.6332 88.5176 39.5786C88.5176 38.8931 88.5044 38.1417 88.4781 37.3244C88.4781 36.4807 88.4122 35.6502 88.2803 34.8329C88.1749 33.9892 88.0035 33.1719 87.7662 32.3809C87.5553 31.5899 87.2257 30.9044 86.7775 30.3244C86.3557 29.718 85.8152 29.2302 85.1561 28.8611C84.4969 28.492 83.6928 28.3075 82.7436 28.3075C81.7945 28.3075 80.9903 28.492 80.3312 28.8611C79.6721 29.2302 79.1184 29.718 78.6702 30.3244C78.2483 30.9044 77.9188 31.5899 77.6815 32.3809C77.4706 33.1719 77.2992 33.9892 77.1674 34.8329C77.0619 35.6502 76.996 36.4807 76.9696 37.3244C76.9696 38.1417 76.9696 38.8931 76.9696 39.5786ZM73.4103 39.6182C73.4103 38.5899 73.4367 37.5221 73.4894 36.4148C73.5421 35.3074 73.674 34.2265 73.8849 33.1719C74.0958 32.1172 74.399 31.1154 74.7945 30.1662C75.19 29.2171 75.7305 28.3866 76.416 27.6747C77.1015 26.9628 77.9583 26.396 78.9866 25.9741C80.0412 25.5523 81.2935 25.3414 82.7436 25.3414C84.1937 25.3414 85.4329 25.5523 86.4611 25.9741C87.5157 26.396 88.3858 26.9628 89.0713 27.6747C89.7568 28.3866 90.2973 29.2171 90.6928 30.1662C91.0882 31.1154 91.3914 32.1172 91.6024 33.1719C91.8133 34.2265 91.9451 35.3074 91.9978 36.4148C92.0506 37.5221 92.0769 38.5899 92.0769 39.6182C92.0769 40.6464 92.0506 41.7142 91.9978 42.8216C91.9451 43.9289 91.8133 45.0099 91.6024 46.0645C91.3914 47.1191 91.0882 48.121 90.6928 49.0701C90.2973 49.9929 89.7568 50.8102 89.0713 51.5221C88.3858 52.234 87.5289 52.8008 86.5007 53.2227C85.4724 53.6181 84.2201 53.8159 82.7436 53.8159C81.2935 53.8159 80.0412 53.6181 78.9866 53.2227C77.9583 52.8008 77.1015 52.234 76.416 51.5221C75.7305 50.8102 75.19 49.9929 74.7945 49.0701C74.399 48.121 74.0958 47.1191 73.8849 46.0645C73.674 45.0099 73.5421 43.9289 73.4894 42.8216C73.4367 41.7142 73.4103 40.6464 73.4103 39.6182ZM96.4139 25.1436H100.171V39.2227L114.487 25.1436H119.352L107.448 36.5334L119.826 53.3809H115.081L104.877 39.104L100.171 43.4939V53.3809H96.4139V25.1436Z" fill="#A36CEB"/>
<path d="M39.3003 73.4107C39.1086 72.4999 38.6831 71.8168 38.024 71.3614C37.3768 70.906 36.6039 70.6783 35.705 70.6783C34.9381 70.6783 34.2789 70.8221 33.7277 71.1097C33.1884 71.3973 32.739 71.7868 32.3794 72.2782C32.0319 72.7575 31.7742 73.3088 31.6064 73.932C31.4387 74.5552 31.3548 75.2023 31.3548 75.8734C31.3548 76.6045 31.4387 77.2995 31.6064 77.9587C31.7742 78.6058 32.0319 79.1751 32.3794 79.6664C32.739 80.1458 33.1944 80.5293 33.7456 80.8169C34.2969 81.1045 34.956 81.2483 35.723 81.2483C36.2863 81.2483 36.7836 81.1585 37.2151 80.9787C37.6585 80.787 38.036 80.5293 38.3476 80.2057C38.6711 79.8702 38.9228 79.4747 39.1026 79.0193C39.2823 78.5639 39.3902 78.0725 39.4262 77.5452H41.1339C40.9661 79.1631 40.4089 80.4214 39.4621 81.3203C38.5154 82.2191 37.2211 82.6685 35.5792 82.6685C34.5845 82.6685 33.7157 82.5007 32.9726 82.1651C32.2296 81.8176 31.6124 81.3442 31.1211 80.745C30.6297 80.1458 30.2582 79.4387 30.0065 78.6238C29.7669 77.8089 29.647 76.934 29.647 75.9993C29.647 75.0645 29.7788 74.1896 30.0425 73.3747C30.3062 72.5478 30.6896 71.8287 31.193 71.2176C31.7083 70.6064 32.3435 70.127 33.0985 69.7794C33.8655 69.4199 34.7403 69.2402 35.723 69.2402C36.3941 69.2402 37.0293 69.33 37.6285 69.5098C38.2277 69.6896 38.761 69.9532 39.2284 70.3008C39.6958 70.6483 40.0853 71.0857 40.3969 71.613C40.7085 72.1284 40.9122 72.7276 41.0081 73.4107H39.3003ZM51.2308 82.3449C50.9672 82.5007 50.6017 82.5786 50.1343 82.5786C49.7388 82.5786 49.4212 82.4707 49.1815 82.255C48.9538 82.0273 48.84 81.6618 48.84 81.1585C48.4205 81.6618 47.9292 82.0273 47.3659 82.255C46.8147 82.4707 46.2155 82.5786 45.5683 82.5786C45.1489 82.5786 44.7474 82.5307 44.3639 82.4348C43.9924 82.3389 43.6688 82.1891 43.3932 81.9854C43.1175 81.7816 42.8958 81.518 42.728 81.1944C42.5722 80.8589 42.4943 80.4574 42.4943 79.99C42.4943 79.4627 42.5842 79.0313 42.764 78.6957C42.9438 78.3602 43.1774 78.0905 43.4651 77.8868C43.7647 77.6711 44.1002 77.5093 44.4717 77.4014C44.8552 77.2936 45.2447 77.2037 45.6402 77.1318C46.0597 77.0479 46.4551 76.988 46.8266 76.952C47.2101 76.9041 47.5457 76.8441 47.8333 76.7722C48.1209 76.6884 48.3486 76.5745 48.5164 76.4307C48.6842 76.2749 48.7681 76.0532 48.7681 75.7656C48.7681 75.43 48.7022 75.1604 48.5704 74.9566C48.4505 74.7529 48.2887 74.5971 48.085 74.4892C47.8932 74.3814 47.6715 74.3095 47.4199 74.2735C47.1802 74.2376 46.9405 74.2196 46.7008 74.2196C46.0537 74.2196 45.5144 74.3454 45.0829 74.5971C44.6515 74.8368 44.4178 75.2982 44.3819 75.9813H42.8539C42.8778 75.406 42.9977 74.9207 43.2134 74.5252C43.4291 74.1297 43.7167 73.8121 44.0763 73.5725C44.4358 73.3208 44.8433 73.141 45.2987 73.0332C45.766 72.9253 46.2634 72.8714 46.7907 72.8714C47.2101 72.8714 47.6236 72.9013 48.0311 72.9613C48.4505 73.0212 48.828 73.147 49.1636 73.3388C49.4991 73.5185 49.7688 73.7762 49.9725 74.1117C50.1762 74.4473 50.2781 74.8847 50.2781 75.424V80.2057C50.2781 80.5652 50.2961 80.8289 50.332 80.9967C50.38 81.1645 50.5238 81.2483 50.7635 81.2483C50.8953 81.2483 51.0511 81.2184 51.2308 81.1585V82.3449ZM48.7501 77.5812C48.5584 77.725 48.3067 77.8328 47.9951 77.9048C47.6835 77.9647 47.354 78.0186 47.0064 78.0665C46.6709 78.1025 46.3293 78.1504 45.9818 78.2103C45.6342 78.2583 45.3226 78.3422 45.047 78.462C44.7714 78.5819 44.5437 78.7556 44.3639 78.9833C44.1961 79.199 44.1122 79.4987 44.1122 79.8821C44.1122 80.1338 44.1602 80.3495 44.256 80.5293C44.3639 80.6971 44.4957 80.8349 44.6515 80.9428C44.8193 81.0506 45.011 81.1285 45.2268 81.1764C45.4425 81.2244 45.6702 81.2483 45.9099 81.2483C46.4132 81.2483 46.8446 81.1824 47.2041 81.0506C47.5637 80.9068 47.8573 80.733 48.085 80.5293C48.3127 80.3136 48.4805 80.0859 48.5883 79.8462C48.6962 79.5945 48.7501 79.3608 48.7501 79.1451V77.5812ZM52.6529 73.0871H54.0911V74.5612H54.127C54.7622 73.4346 55.7688 72.8714 57.147 72.8714C57.7582 72.8714 58.2676 72.9553 58.675 73.123C59.0825 73.2908 59.4121 73.5245 59.6637 73.8241C59.9154 74.1237 60.0892 74.4833 60.185 74.9027C60.2929 75.3102 60.3468 75.7656 60.3468 76.2689V82.3809H58.8188V76.0891C58.8188 75.5139 58.6511 75.0585 58.3155 74.7229C57.9799 74.3874 57.5185 74.2196 56.9313 74.2196C56.4639 74.2196 56.0565 74.2915 55.7089 74.4353C55.3734 74.5791 55.0917 74.7829 54.864 75.0465C54.6363 75.3102 54.4626 75.6218 54.3427 75.9813C54.2349 76.3288 54.1809 76.7123 54.1809 77.1318V82.3809H52.6529V73.0871ZM70.8749 82.3449C70.6113 82.5007 70.2457 82.5786 69.7784 82.5786C69.3829 82.5786 69.0653 82.4707 68.8256 82.255C68.5979 82.0273 68.4841 81.6618 68.4841 81.1585C68.0646 81.6618 67.5733 82.0273 67.01 82.255C66.4587 82.4707 65.8595 82.5786 65.2124 82.5786C64.7929 82.5786 64.3915 82.5307 64.008 82.4348C63.6364 82.3389 63.3129 82.1891 63.0372 81.9854C62.7616 81.7816 62.5399 81.518 62.3721 81.1944C62.2163 80.8589 62.1384 80.4574 62.1384 79.99C62.1384 79.4627 62.2283 79.0313 62.4081 78.6957C62.5878 78.3602 62.8215 78.0905 63.1091 77.8868C63.4087 77.6711 63.7443 77.5093 64.1158 77.4014C64.4993 77.2936 64.8888 77.2037 65.2843 77.1318C65.7037 77.0479 66.0992 76.988 66.4707 76.952C66.8542 76.9041 67.1898 76.8441 67.4774 76.7722C67.765 76.6884 67.9927 76.5745 68.1605 76.4307C68.3283 76.2749 68.4122 76.0532 68.4122 75.7656C68.4122 75.43 68.3462 75.1604 68.2144 74.9566C68.0946 74.7529 67.9328 74.5971 67.7291 74.4892C67.5373 74.3814 67.3156 74.3095 67.0639 74.2735C66.8242 74.2376 66.5846 74.2196 66.3449 74.2196C65.6977 74.2196 65.1584 74.3454 64.727 74.5971C64.2956 74.8368 64.0619 75.2982 64.0259 75.9813H62.4979C62.5219 75.406 62.6418 74.9207 62.8575 74.5252C63.0732 74.1297 63.3608 73.8121 63.7203 73.5725C64.0799 73.3208 64.4873 73.141 64.9427 73.0332C65.4101 72.9253 65.9075 72.8714 66.4348 72.8714C66.8542 72.8714 67.2677 72.9013 67.6751 72.9613C68.0946 73.0212 68.4721 73.147 68.8076 73.3388C69.1432 73.5185 69.4128 73.7762 69.6166 74.1117C69.8203 74.4473 69.9222 74.8847 69.9222 75.424V80.2057C69.9222 80.5652 69.9401 80.8289 69.9761 80.9967C70.024 81.1645 70.1678 81.2483 70.4075 81.2483C70.5394 81.2483 70.6952 81.2184 70.8749 81.1585V82.3449ZM68.3942 77.5812C68.2024 77.725 67.9508 77.8328 67.6392 77.9048C67.3276 77.9647 66.998 78.0186 66.6505 78.0665C66.3149 78.1025 65.9734 78.1504 65.6258 78.2103C65.2783 78.2583 64.9667 78.3422 64.6911 78.462C64.4154 78.5819 64.1877 78.7556 64.008 78.9833C63.8402 79.199 63.7563 79.4987 63.7563 79.8821C63.7563 80.1338 63.8042 80.3495 63.9001 80.5293C64.008 80.6971 64.1398 80.8349 64.2956 80.9428C64.4634 81.0506 64.6551 81.1285 64.8708 81.1764C65.0865 81.2244 65.3142 81.2483 65.5539 81.2483C66.0573 81.2483 66.4887 81.1824 66.8482 81.0506C67.2077 80.9068 67.5014 80.733 67.7291 80.5293C67.9568 80.3136 68.1245 80.0859 68.2324 79.8462C68.3403 79.5945 68.3942 79.3608 68.3942 79.1451V77.5812ZM73.4115 77.8149C73.4115 78.2463 73.4655 78.6717 73.5733 79.0912C73.6932 79.4987 73.8669 79.8642 74.0947 80.1877C74.3343 80.5113 74.6339 80.769 74.9935 80.9607C75.365 81.1525 75.7964 81.2483 76.2878 81.2483C76.8031 81.2483 77.2405 81.1465 77.6 80.9428C77.9596 80.739 78.2532 80.4754 78.4809 80.1518C78.7086 79.8162 78.8704 79.4387 78.9662 79.0193C79.0741 78.5998 79.128 78.1744 79.128 77.743C79.128 77.2876 79.0741 76.8501 78.9662 76.4307C78.8584 75.9993 78.6846 75.6218 78.4449 75.2982C78.2172 74.9746 77.9176 74.7169 77.5461 74.5252C77.1746 74.3215 76.7252 74.2196 76.1979 74.2196C75.6826 74.2196 75.2451 74.3215 74.8856 74.5252C74.5261 74.7289 74.2385 74.9986 74.0227 75.3341C73.807 75.6697 73.6512 76.0532 73.5554 76.4846C73.4595 76.9161 73.4115 77.3595 73.4115 77.8149ZM80.6021 82.3809H79.0741V81.1225H79.0381C78.7865 81.6378 78.391 82.0093 77.8517 82.237C77.3124 82.4647 76.7192 82.5786 76.072 82.5786C75.353 82.5786 74.7238 82.4468 74.1845 82.1831C73.6572 81.9195 73.2138 81.5659 72.8543 81.1225C72.5067 80.6791 72.2431 80.1638 72.0633 79.5766C71.8836 78.9893 71.7937 78.3661 71.7937 77.707C71.7937 77.0479 71.8776 76.4247 72.0453 75.8375C72.2251 75.2502 72.4888 74.7409 72.8363 74.3095C73.1958 73.8661 73.6392 73.5185 74.1666 73.2669C74.7058 73.0032 75.329 72.8714 76.0361 72.8714C76.2758 72.8714 76.5334 72.8953 76.8091 72.9433C77.0847 72.9912 77.3604 73.0751 77.636 73.1949C77.9116 73.3028 78.1693 73.4526 78.409 73.6444C78.6606 73.8241 78.8704 74.0518 79.0381 74.3275H79.0741V69.5458H80.6021V82.3809ZM84.5708 71.4153H83.0428V69.5458H84.5708V71.4153ZM83.0428 73.0871H84.5708V82.3809H83.0428V73.0871ZM95.1711 82.3449C94.9074 82.5007 94.5419 82.5786 94.0745 82.5786C93.679 82.5786 93.3614 82.4707 93.1218 82.255C92.8941 82.0273 92.7802 81.6618 92.7802 81.1585C92.3608 81.6618 91.8694 82.0273 91.3062 82.255C90.7549 82.4707 90.1557 82.5786 89.5085 82.5786C89.0891 82.5786 88.6876 82.5307 88.3041 82.4348C87.9326 82.3389 87.609 82.1891 87.3334 81.9854C87.0577 81.7816 86.836 81.518 86.6683 81.1944C86.5125 80.8589 86.4346 80.4574 86.4346 79.99C86.4346 79.4627 86.5244 79.0313 86.7042 78.6957C86.884 78.3602 87.1177 78.0905 87.4053 77.8868C87.7049 77.6711 88.0404 77.5093 88.412 77.4014C88.7955 77.2936 89.1849 77.2037 89.5804 77.1318C89.9999 77.0479 90.3954 76.988 90.7669 76.952C91.1504 76.9041 91.4859 76.8441 91.7735 76.7722C92.0612 76.6884 92.2889 76.5745 92.4566 76.4307C92.6244 76.2749 92.7083 76.0532 92.7083 75.7656C92.7083 75.43 92.6424 75.1604 92.5106 74.9566C92.3907 74.7529 92.2289 74.5971 92.0252 74.4892C91.8335 74.3814 91.6117 74.3095 91.3601 74.2735C91.1204 74.2376 90.8807 74.2196 90.641 74.2196C89.9939 74.2196 89.4546 74.3454 89.0232 74.5971C88.5917 74.8368 88.358 75.2982 88.3221 75.9813H86.7941C86.8181 75.406 86.9379 74.9207 87.1536 74.5252C87.3693 74.1297 87.657 73.8121 88.0165 73.5725C88.376 73.3208 88.7835 73.141 89.2389 73.0332C89.7063 72.9253 90.2036 72.8714 90.7309 72.8714C91.1504 72.8714 91.5638 72.9013 91.9713 72.9613C92.3907 73.0212 92.7682 73.147 93.1038 73.3388C93.4393 73.5185 93.709 73.7762 93.9127 74.1117C94.1165 74.4473 94.2183 74.8847 94.2183 75.424V80.2057C94.2183 80.5652 94.2363 80.8289 94.2722 80.9967C94.3202 81.1645 94.464 81.2483 94.7037 81.2483C94.8355 81.2483 94.9913 81.2184 95.1711 81.1585V82.3449ZM92.6903 77.5812C92.4986 77.725 92.2469 77.8328 91.9353 77.9048C91.6237 77.9647 91.2942 78.0186 90.9466 78.0665C90.6111 78.1025 90.2695 78.1504 89.922 78.2103C89.5744 78.2583 89.2628 78.3422 88.9872 78.462C88.7116 78.5819 88.4839 78.7556 88.3041 78.9833C88.1363 79.199 88.0524 79.4987 88.0524 79.8821C88.0524 80.1338 88.1004 80.3495 88.1962 80.5293C88.3041 80.6971 88.4359 80.8349 88.5917 80.9428C88.7595 81.0506 88.9513 81.1285 89.167 81.1764C89.3827 81.2244 89.6104 81.2483 89.8501 81.2483C90.3534 81.2483 90.7848 81.1824 91.1444 81.0506C91.5039 80.9068 91.7975 80.733 92.0252 80.5293C92.2529 80.3136 92.4207 80.0859 92.5285 79.8462C92.6364 79.5945 92.6903 79.3608 92.6903 79.1451V77.5812ZM96.5932 73.0871H98.0313V74.5612H98.0672C98.7024 73.4346 99.7091 72.8714 101.087 72.8714C101.698 72.8714 102.208 72.9553 102.615 73.123C103.023 73.2908 103.352 73.5245 103.604 73.8241C103.856 74.1237 104.029 74.4833 104.125 74.9027C104.233 75.3102 104.287 75.7656 104.287 76.2689V82.3809H102.759V76.0891C102.759 75.5139 102.591 75.0585 102.256 74.7229C101.92 74.3874 101.459 74.2196 100.872 74.2196C100.404 74.2196 99.9967 74.2915 99.6491 74.4353C99.3136 74.5791 99.0319 74.7829 98.8042 75.0465C98.5765 75.3102 98.4028 75.6218 98.2829 75.9813C98.1751 76.3288 98.1211 76.7123 98.1211 77.1318V82.3809H96.5932V73.0871ZM107.517 79.4507C107.529 79.7863 107.607 80.0739 107.75 80.3136C107.894 80.5413 108.08 80.727 108.308 80.8708C108.547 81.0027 108.811 81.0985 109.099 81.1585C109.398 81.2184 109.704 81.2483 110.015 81.2483C110.255 81.2483 110.507 81.2304 110.77 81.1944C111.034 81.1585 111.274 81.0926 111.49 80.9967C111.717 80.9008 111.903 80.763 112.047 80.5832C112.191 80.3915 112.262 80.1518 112.262 79.8642C112.262 79.4687 112.113 79.1691 111.813 78.9654C111.513 78.7616 111.136 78.5998 110.681 78.48C110.237 78.3482 109.752 78.2343 109.224 78.1384C108.697 78.0306 108.206 77.8868 107.75 77.707C107.307 77.5153 106.936 77.2516 106.636 76.9161C106.336 76.5805 106.186 76.1131 106.186 75.5139C106.186 75.0465 106.288 74.645 106.492 74.3095C106.708 73.9739 106.977 73.7043 107.301 73.5005C107.637 73.2848 108.008 73.129 108.416 73.0332C108.835 72.9253 109.248 72.8714 109.656 72.8714C110.183 72.8714 110.669 72.9193 111.112 73.0152C111.555 73.0991 111.945 73.2549 112.28 73.4826C112.628 73.6983 112.904 73.9979 113.107 74.3814C113.311 74.7529 113.431 75.2203 113.467 75.7835H111.939C111.915 75.4839 111.837 75.2383 111.705 75.0465C111.573 74.8428 111.406 74.681 111.202 74.5612C110.998 74.4413 110.77 74.3574 110.519 74.3095C110.279 74.2496 110.033 74.2196 109.782 74.2196C109.554 74.2196 109.32 74.2376 109.081 74.2735C108.853 74.3095 108.643 74.3754 108.452 74.4713C108.26 74.5552 108.104 74.675 107.984 74.8308C107.864 74.9746 107.804 75.1664 107.804 75.406C107.804 75.6697 107.894 75.8914 108.074 76.0712C108.266 76.2389 108.505 76.3828 108.793 76.5026C109.081 76.6105 109.404 76.7063 109.764 76.7902C110.123 76.8621 110.483 76.94 110.842 77.0239C111.226 77.1078 111.597 77.2097 111.957 77.3295C112.328 77.4493 112.652 77.6111 112.928 77.8149C113.215 78.0066 113.443 78.2523 113.611 78.5519C113.79 78.8515 113.88 79.223 113.88 79.6664C113.88 80.2297 113.761 80.6971 113.521 81.0686C113.293 81.4401 112.988 81.7397 112.604 81.9674C112.233 82.1951 111.807 82.3509 111.328 82.4348C110.86 82.5307 110.393 82.5786 109.926 82.5786C109.41 82.5786 108.919 82.5247 108.452 82.4168C107.984 82.309 107.571 82.1352 107.211 81.8955C106.852 81.6438 106.564 81.3203 106.348 80.9248C106.133 80.5173 106.013 80.026 105.989 79.4507H107.517ZM45.1876 98.3028C45.0918 97.38 44.7562 96.7149 44.181 96.3074C43.6177 95.888 42.8927 95.6783 42.0058 95.6783C41.6463 95.6783 41.2928 95.7142 40.9452 95.7861C40.5977 95.858 40.2861 95.9779 40.0105 96.1456C39.7468 96.3134 39.5311 96.5411 39.3633 96.8287C39.2075 97.1044 39.1296 97.4519 39.1296 97.8714C39.1296 98.2669 39.2435 98.5904 39.4712 98.8421C39.7108 99.0818 40.0224 99.2795 40.4059 99.4353C40.8014 99.5911 41.2448 99.7229 41.7362 99.8308C42.2275 99.9267 42.7249 100.035 43.2282 100.154C43.7435 100.274 44.2469 100.418 44.7382 100.586C45.2296 100.742 45.667 100.957 46.0505 101.233C46.446 101.509 46.7576 101.856 46.9853 102.276C47.225 102.695 47.3448 103.222 47.3448 103.857C47.3448 104.541 47.189 105.128 46.8774 105.619C46.5778 106.099 46.1883 106.494 45.709 106.806C45.2296 107.105 44.6903 107.321 44.0911 107.453C43.5039 107.597 42.9166 107.668 42.3294 107.668C41.6103 107.668 40.9272 107.579 40.2801 107.399C39.6449 107.219 39.0817 106.949 38.5903 106.59C38.111 106.218 37.7275 105.751 37.4398 105.188C37.1642 104.613 37.0264 103.935 37.0264 103.156H38.6443C38.6443 103.696 38.7461 104.163 38.9498 104.559C39.1656 104.942 39.4412 105.26 39.7768 105.511C40.1243 105.763 40.5258 105.949 40.9812 106.069C41.4366 106.188 41.904 106.248 42.3833 106.248C42.7668 106.248 43.1503 106.212 43.5338 106.14C43.9293 106.069 44.2828 105.949 44.5944 105.781C44.906 105.601 45.1577 105.362 45.3494 105.062C45.5412 104.762 45.637 104.379 45.637 103.911C45.637 103.468 45.5172 103.108 45.2775 102.833C45.0498 102.557 44.7382 102.335 44.3428 102.168C43.9593 101.988 43.5218 101.844 43.0305 101.736C42.5391 101.628 42.0358 101.521 41.5205 101.413C41.0171 101.293 40.5198 101.161 40.0284 101.017C39.5371 100.861 39.0937 100.664 38.6982 100.424C38.3147 100.172 38.0031 99.8548 37.7634 99.4713C37.5357 99.0758 37.4219 98.5844 37.4219 97.9972C37.4219 97.3501 37.5537 96.7928 37.8173 96.3254C38.081 95.846 38.4285 95.4566 38.86 95.1569C39.3034 94.8454 39.8007 94.6177 40.352 94.4738C40.9153 94.3181 41.4905 94.2402 42.0777 94.2402C42.7369 94.2402 43.3481 94.3181 43.9113 94.4738C44.4746 94.6296 44.9659 94.8753 45.3854 95.2109C45.8168 95.5464 46.1524 95.9719 46.3921 96.4872C46.6437 96.9905 46.7815 97.5957 46.8055 98.3028H45.1876ZM56.8621 107.381H55.424V105.907H55.3881C55.0645 106.482 54.6511 106.907 54.1477 107.183C53.6444 107.447 53.0512 107.579 52.3681 107.579C51.7569 107.579 51.2475 107.501 50.8401 107.345C50.4326 107.177 50.103 106.943 49.8514 106.644C49.5997 106.344 49.4199 105.991 49.3121 105.583C49.2162 105.164 49.1683 104.702 49.1683 104.199V98.0871H50.6963V104.379C50.6963 104.954 50.864 105.409 51.1996 105.745C51.5352 106.081 51.9966 106.248 52.5838 106.248C53.0512 106.248 53.4526 106.176 53.7882 106.033C54.1357 105.889 54.4234 105.685 54.6511 105.421C54.8788 105.158 55.0465 104.852 55.1544 104.505C55.2742 104.145 55.3342 103.756 55.3342 103.336V98.0871H56.8621V107.381ZM59.1032 98.0871H60.5413V100.047H60.5772C60.9487 99.2915 61.4041 98.7342 61.9434 98.3747C62.4827 98.0152 63.1658 97.8474 63.9927 97.8714V99.4892C63.3815 99.4892 62.8602 99.5731 62.4288 99.7409C61.9973 99.9087 61.6498 100.154 61.3861 100.478C61.1225 100.802 60.9307 101.197 60.8109 101.664C60.6911 102.12 60.6311 102.647 60.6311 103.246V107.381H59.1032V98.0871ZM69.3318 107.381H67.696L64.2445 98.0871H65.9523L68.5588 105.835H68.5948L71.1295 98.0871H72.7294L69.3318 107.381ZM80.585 101.844C80.5611 101.485 80.4772 101.143 80.3334 100.819C80.2015 100.496 80.0158 100.22 79.7761 99.9926C79.5484 99.7529 79.2727 99.5671 78.9492 99.4353C78.6376 99.2915 78.29 99.2196 77.9065 99.2196C77.5111 99.2196 77.1515 99.2915 76.828 99.4353C76.5164 99.5671 76.2467 99.7529 76.019 99.9926C75.7913 100.232 75.6116 100.514 75.4797 100.837C75.3479 101.149 75.27 101.485 75.246 101.844H80.585ZM82.0591 104.433C81.8554 105.475 81.4059 106.26 80.7109 106.788C80.0158 107.315 79.1409 107.579 78.0863 107.579C77.3433 107.579 76.6961 107.459 76.1449 107.219C75.6056 106.979 75.1502 106.644 74.7787 106.212C74.4072 105.781 74.1255 105.266 73.9338 104.666C73.754 104.067 73.6521 103.414 73.6282 102.707C73.6282 102 73.736 101.353 73.9518 100.766C74.1675 100.178 74.4671 99.669 74.8506 99.2376C75.246 98.8061 75.7074 98.4706 76.2347 98.2309C76.774 97.9912 77.3613 97.8714 77.9964 97.8714C78.8233 97.8714 79.5064 98.0451 80.0457 98.3927C80.597 98.7282 81.0344 99.1597 81.358 99.687C81.6936 100.214 81.9213 100.79 82.0411 101.413C82.1729 102.036 82.2269 102.629 82.2029 103.192H75.246C75.2341 103.6 75.282 103.989 75.3899 104.361C75.4977 104.72 75.6715 105.044 75.9112 105.332C76.1509 105.607 76.4565 105.829 76.828 105.997C77.1995 106.164 77.6369 106.248 78.1402 106.248C78.7874 106.248 79.3147 106.099 79.7222 105.799C80.1416 105.499 80.4172 105.044 80.5491 104.433H82.0591ZM87.436 108.621C87.2562 109.077 87.0764 109.46 86.8967 109.772C86.7289 110.083 86.5372 110.335 86.3214 110.527C86.1177 110.73 85.884 110.874 85.6204 110.958C85.3687 111.054 85.0751 111.102 84.7395 111.102C84.5598 111.102 84.38 111.09 84.2002 111.066C84.0205 111.042 83.8467 111 83.6789 110.94V109.538C83.8107 109.598 83.9605 109.646 84.1283 109.682C84.3081 109.73 84.4579 109.754 84.5777 109.754C84.8893 109.754 85.147 109.676 85.3507 109.52C85.5664 109.376 85.7282 109.167 85.8361 108.891L86.4653 107.327L82.7801 98.0871H84.5058L87.2203 105.691H87.2562L89.8628 98.0871H91.4807L87.436 108.621ZM99.2285 101.844C99.2045 101.485 99.1206 101.143 98.9768 100.819C98.845 100.496 98.6592 100.22 98.4195 99.9926C98.1918 99.7529 97.9162 99.5671 97.5926 99.4353C97.281 99.2915 96.9335 99.2196 96.55 99.2196C96.1545 99.2196 95.795 99.2915 95.4714 99.4353C95.1598 99.5671 94.8902 99.7529 94.6625 99.9926C94.4348 100.232 94.255 100.514 94.1232 100.837C93.9913 101.149 93.9134 101.485 93.8895 101.844H99.2285ZM100.703 104.433C100.499 105.475 100.049 106.26 99.3543 106.788C98.6592 107.315 97.7844 107.579 96.7297 107.579C95.9867 107.579 95.3396 107.459 94.7883 107.219C94.249 106.979 93.7936 106.644 93.4221 106.212C93.0506 105.781 92.769 105.266 92.5772 104.666C92.3974 104.067 92.2956 103.414 92.2716 102.707C92.2716 102 92.3795 101.353 92.5952 100.766C92.8109 100.178 93.1105 99.669 93.494 99.2376C93.8895 98.8061 94.3509 98.4706 94.8782 98.2309C95.4175 97.9912 96.0047 97.8714 96.6399 97.8714C97.4668 97.8714 98.1499 98.0451 98.6892 98.3927C99.2404 98.7282 99.6779 99.1597 100.001 99.687C100.337 100.214 100.565 100.79 100.685 101.413C100.816 102.036 100.87 102.629 100.846 103.192H93.8895C93.8775 103.6 93.9254 103.989 94.0333 104.361C94.1412 104.72 94.3149 105.044 94.5546 105.332C94.7943 105.607 95.0999 105.829 95.4714 105.997C95.8429 106.164 96.2803 106.248 96.7837 106.248C97.4308 106.248 97.9581 106.099 98.3656 105.799C98.785 105.499 99.0607 105.044 99.1925 104.433H100.703ZM103.545 102.815C103.545 103.246 103.599 103.672 103.707 104.091C103.826 104.499 104 104.864 104.228 105.188C104.468 105.511 104.767 105.769 105.127 105.961C105.498 106.152 105.93 106.248 106.421 106.248C106.936 106.248 107.374 106.146 107.733 105.943C108.093 105.739 108.386 105.475 108.614 105.152C108.842 104.816 109.004 104.439 109.099 104.019C109.207 103.6 109.261 103.174 109.261 102.743C109.261 102.288 109.207 101.85 109.099 101.431C108.992 100.999 108.818 100.622 108.578 100.298C108.35 99.9746 108.051 99.7169 107.679 99.5252C107.308 99.3215 106.858 99.2196 106.331 99.2196C105.816 99.2196 105.378 99.3215 105.019 99.5252C104.659 99.7289 104.372 99.9986 104.156 100.334C103.94 100.67 103.784 101.053 103.689 101.485C103.593 101.916 103.545 102.359 103.545 102.815ZM110.735 107.381H109.207V106.123H109.171C108.92 106.638 108.524 107.009 107.985 107.237C107.446 107.465 106.852 107.579 106.205 107.579C105.486 107.579 104.857 107.447 104.318 107.183C103.79 106.919 103.347 106.566 102.987 106.123C102.64 105.679 102.376 105.164 102.197 104.577C102.017 103.989 101.927 103.366 101.927 102.707C101.927 102.048 102.011 101.425 102.179 100.837C102.358 100.25 102.622 99.7409 102.97 99.3095C103.329 98.8661 103.772 98.5185 104.3 98.2669C104.839 98.0032 105.462 97.8714 106.169 97.8714C106.409 97.8714 106.667 97.8953 106.942 97.9433C107.218 97.9912 107.494 98.0751 107.769 98.1949C108.045 98.3028 108.302 98.4526 108.542 98.6444C108.794 98.8241 109.004 99.0518 109.171 99.3275H109.207V94.5458H110.735V107.381Z" fill="black"/>
</g>
<defs>
<filter id="filter0_d_4522_63790" x="-0.00151849" y="-5.36442e-05" width="148.308" height="129.43" filterUnits="userSpaceOnUse" color-interpolation-filters="sRGB">
<feFlood flood-opacity="0" result="BackgroundImageFix"/>
<feColorMatrix in="SourceAlpha" type="matrix" values="0 0 0 0 0 0 0 0 0 0 0 0 0 0 0 0 0 0 127 0" result="hardAlpha"/>
<feOffset/>
<feGaussianBlur stdDeviation="1.79763"/>
<feComposite in2="hardAlpha" operator="out"/>
<feColorMatrix type="matrix" values="0 0 0 0 0 0 0 0 0 0 0 0 0 0 0 0 0 0 0.25 0"/>
<feBlend mode="normal" in2="BackgroundImageFix" result="effect1_dropShadow_4522_63790"/>
<feBlend mode="normal" in="SourceGraphic" in2="effect1_dropShadow_4522_63790" result="shape"/>
</filter>
</defs>
</svg>
