<svg width="22" height="15" viewBox="0 0 22 15" fill="none" xmlns="http://www.w3.org/2000/svg">
<g clip-path="url(#clip0_1159_12073)">
<path d="M16.4675 3.8688C16.4675 4.79682 17.2198 5.54912 18.1478 5.54912C19.0758 5.54912 19.8281 4.79682 19.8281 3.8688C19.8281 2.94078 19.0758 2.18848 18.1478 2.18848C17.2198 2.18848 16.4675 2.94078 16.4675 3.8688Z" fill="black"/>
<path d="M12.6882 7.64736C12.6882 8.57538 13.4405 9.32769 14.3685 9.32769C15.2965 9.32769 16.0488 8.57538 16.0488 7.64737C16.0488 6.71935 15.2965 5.96704 14.3685 5.96704C13.4405 5.96704 12.6882 6.71935 12.6882 7.64736Z" fill="black"/>
<path d="M1.35029 3.8688C1.35029 4.79682 2.1026 5.54912 3.03062 5.54912C3.95863 5.54912 4.71094 4.79682 4.71094 3.8688C4.71094 2.94078 3.95863 2.18848 3.03062 2.18848C2.1026 2.18848 1.35029 2.94078 1.35029 3.8688Z" fill="black"/>
<path d="M5.12861 7.64736C5.12861 8.57538 5.88092 9.32769 6.80894 9.32769C7.73695 9.32769 8.48926 8.57538 8.48926 7.64737C8.48926 6.71935 7.73695 5.96704 6.80894 5.96704C5.88092 5.96704 5.12861 6.71935 5.12861 7.64736Z" fill="black"/>
<path d="M8.90889 11.4286C8.90889 12.3566 9.66119 13.1089 10.5892 13.1089C11.5172 13.1089 12.2695 12.3566 12.2695 11.4286C12.2695 10.5006 11.5172 9.74829 10.5892 9.74829C9.66119 9.74829 8.90889 10.5006 8.90889 11.4286Z" fill="black"/>
</g>
<defs>
<clipPath id="clip0_1159_12073">
<rect width="14.2353" height="22" fill="white" transform="translate(22) rotate(90)"/>
</clipPath>
</defs>
</svg>
