<?xml version="1.0" encoding="UTF-8"?>
<svg id="Layer_2" data-name="Layer 2" xmlns="http://www.w3.org/2000/svg" viewBox="0 0 145 145">
  <defs>
    <style>
      .cls-1, .cls-2, .cls-3, .cls-4 {
        fill: none;
      }

      .cls-2 {
        stroke: #125;
      }

      .cls-2, .cls-3, .cls-4 {
        stroke-linecap: round;
      }

      .cls-2, .cls-4 {
        stroke-width: 6px;
      }

      .cls-3 {
        stroke-width: 4px;
      }

      .cls-3, .cls-4 {
        stroke: #2e6af5;
        stroke-linejoin: round;
      }
    </style>
  </defs>
  <g id="Layer_1-2" data-name="Layer 1">
    <g id="uuid-3f9a5481-6f38-4f1d-9155-25214089c79b" data-name="Layer 1-2">
      <g>
        <g>
          <path class="cls-3" d="M63.54,38.68c12.57-1.26,24.79,5.04,31.04,16.02"/>
          <path class="cls-3" d="M57.11,101.22c-7.58-2.39-14.19-7.55-18.26-14.7"/>
          <path class="cls-3" d="M97.6,61.91c.37,1.32.66,2.68.86,4.06"/>
          <path class="cls-4" d="M56.19,78.47s-.58,9.08,10.21,9.08c8.55,0,10.21-4.99,10.21-9.08,0-4.32-2.57-6.54-10.21-8.52-7.65-1.98-10.21-4.2-10.21-8.52,0-4.09,1.67-9.08,10.21-9.08,10.8,0,10.21,9.08,10.21,9.08"/>
          <line class="cls-4" x1="66.4" y1="46.37" x2="66.4" y2="93.65"/>
          <circle class="cls-2" cx="66.69" cy="70.49" r="42.35"/>
        </g>
        <rect class="cls-1" width="145" height="145"/>
      </g>
    </g>
  </g>
</svg>